<svg width="134" height="56" viewBox="0 0 134 56" fill="none" xmlns="http://www.w3.org/2000/svg">
<path d="M97.8546 42.1035V40.1605C97.8661 39.9971 97.8423 39.8331 97.7848 39.6795C97.7273 39.5259 97.6374 39.3862 97.521 39.2698C97.4047 39.1533 97.2647 39.0628 97.1102 39.0042C96.9558 38.9456 96.7905 38.9203 96.6254 38.9299C96.4094 38.916 96.1935 38.9597 96.0003 39.0565C95.807 39.1533 95.6436 39.2997 95.527 39.4804C95.4206 39.3051 95.2686 39.1615 95.0868 39.0646C94.9049 38.9677 94.7001 38.9212 94.4939 38.9299C94.3141 38.921 94.135 38.9587 93.9745 39.0394C93.8139 39.12 93.6774 39.2408 93.5785 39.3898V39.0077H92.8984V42.1035H93.585V40.3872C93.5701 40.2813 93.5792 40.1734 93.6114 40.0714C93.6436 39.9693 93.6983 39.8756 93.7714 39.797C93.8446 39.7183 93.9344 39.6567 94.0344 39.6165C94.1344 39.5764 94.2422 39.5587 94.35 39.5646C94.8011 39.5646 95.03 39.8561 95.03 40.3807V42.1035H95.7166V40.3872C95.7028 40.2814 95.7126 40.174 95.7453 40.0725C95.7779 39.9709 95.8326 39.8777 95.9055 39.7993C95.9784 39.7209 96.0678 39.6593 96.1673 39.6187C96.2668 39.5782 96.3741 39.5597 96.4816 39.5646C96.9458 39.5646 97.1681 39.8561 97.1681 40.3807V42.1035H97.8546ZM108.015 39.0077H106.904V38.0685H106.217V39.0077H105.583V39.6229H106.217V41.0349C106.217 41.7537 106.499 42.1813 107.303 42.1813C107.603 42.1821 107.898 42.0991 108.153 41.9416L107.957 41.3652C107.774 41.4729 107.567 41.5331 107.355 41.54C107.015 41.54 106.904 41.3327 106.904 41.0219V39.6229H108.015V39.0077ZM113.815 38.9299C113.649 38.9251 113.485 38.9646 113.34 39.0444C113.195 39.1242 113.075 39.2413 112.991 39.3833V39.0077H112.318V42.1035H112.998V40.3677C112.998 39.8561 113.22 39.5711 113.665 39.5711C113.81 39.5691 113.955 39.5956 114.09 39.6488L114.299 39.0141C114.144 38.9591 113.98 38.9306 113.815 38.9299ZM105.047 39.2538C104.662 39.027 104.22 38.9146 103.772 38.9299C102.981 38.9299 102.471 39.3056 102.471 39.9208C102.471 40.4261 102.85 40.737 103.55 40.8341L103.87 40.8794C104.243 40.9311 104.419 41.0284 104.419 41.2032C104.419 41.4429 104.171 41.5789 103.707 41.5789C103.333 41.5895 102.967 41.4755 102.667 41.255L102.347 41.7796C102.743 42.0537 103.217 42.1944 103.7 42.1813C104.602 42.1813 105.125 41.7602 105.125 41.1709C105.125 40.6268 104.714 40.3418 104.034 40.2447L103.713 40.1993C103.419 40.1605 103.184 40.1022 103.184 39.895C103.184 39.6683 103.406 39.5323 103.779 39.5323C104.121 39.5374 104.456 39.6288 104.753 39.7978L105.047 39.2538ZM123.263 38.9299C123.097 38.9251 122.933 38.9646 122.788 39.0444C122.643 39.1242 122.523 39.2413 122.439 39.3833V39.0077H121.766V42.1035H122.446V40.3677C122.446 39.8561 122.668 39.5711 123.113 39.5711C123.258 39.5691 123.403 39.5955 123.538 39.6488L123.747 39.0141C123.592 38.9591 123.428 38.9306 123.263 38.9299ZM114.502 40.5555C114.493 40.7736 114.53 40.9912 114.611 41.1942C114.692 41.3972 114.815 41.5812 114.972 41.7344C115.129 41.8875 115.316 42.0063 115.523 42.0833C115.729 42.1603 115.949 42.1936 116.169 42.1813C116.577 42.2016 116.978 42.0699 117.294 41.812L116.967 41.268C116.732 41.4455 116.445 41.5432 116.149 41.5465C115.895 41.5312 115.655 41.4201 115.48 41.2359C115.305 41.0518 115.208 40.8084 115.208 40.5556C115.208 40.3027 115.305 40.0593 115.48 39.8752C115.655 39.691 115.895 39.58 116.149 39.5646C116.445 39.568 116.732 39.6656 116.967 39.8432L117.294 39.2991C116.978 39.0413 116.577 38.9096 116.169 38.9299C115.949 38.9175 115.729 38.9509 115.523 39.0279C115.316 39.1048 115.129 39.2237 114.972 39.3768C114.815 39.5299 114.692 39.7139 114.611 39.9169C114.53 40.1199 114.493 40.3374 114.502 40.5555ZM120.87 40.5555V39.0077H120.19V39.3833C120.074 39.2351 119.924 39.1167 119.752 39.0378C119.58 38.9589 119.392 38.9219 119.203 38.9299C118.782 38.9504 118.384 39.1306 118.093 39.4332C117.802 39.7359 117.64 40.1377 117.64 40.5556C117.64 40.9735 117.802 41.3753 118.093 41.678C118.384 41.9806 118.782 42.1608 119.203 42.1813C119.392 42.1893 119.58 42.1523 119.752 42.0734C119.924 41.9945 120.074 41.876 120.19 41.7278V42.1035H120.87V40.5555ZM118.34 40.5555C118.35 40.3728 118.415 40.1972 118.525 40.0503C118.635 39.9034 118.786 39.7916 118.959 39.7287C119.133 39.6658 119.321 39.6546 119.501 39.6965C119.681 39.7383 119.844 39.8314 119.971 39.9642C120.099 40.097 120.184 40.2638 120.216 40.4439C120.249 40.624 120.227 40.8097 120.155 40.9779C120.082 41.1461 119.961 41.2896 119.807 41.3906C119.653 41.4917 119.473 41.5458 119.288 41.5465C119.158 41.5482 119.03 41.5234 118.911 41.4735C118.791 41.4236 118.684 41.3498 118.595 41.2567C118.506 41.1636 118.437 41.0532 118.393 40.9326C118.349 40.8119 118.331 40.6835 118.34 40.5555ZM110.134 38.9299C109.71 38.952 109.311 39.136 109.021 39.4431C108.731 39.7503 108.572 40.1568 108.578 40.5774C108.584 40.998 108.754 41.4 109.053 41.699C109.351 41.998 109.755 42.1709 110.18 42.1813C110.646 42.1975 111.102 42.043 111.461 41.7473L111.128 41.2486C110.87 41.4536 110.55 41.5675 110.219 41.5724C109.994 41.5911 109.771 41.5225 109.597 41.3811C109.422 41.2396 109.31 41.0365 109.284 40.8146H111.605C111.612 40.7304 111.618 40.6462 111.618 40.5555C111.612 39.5905 111.01 38.9299 110.134 38.9299ZM110.121 39.5323C110.326 39.5283 110.525 39.6051 110.673 39.746C110.821 39.8868 110.907 40.0801 110.912 40.2836H109.29C109.302 40.0757 109.396 39.8807 109.551 39.7403C109.706 39.5999 109.911 39.5253 110.121 39.5323ZM127.18 40.5555V37.7642H126.5V39.3833C126.384 39.2351 126.234 39.1167 126.062 39.0378C125.89 38.9589 125.702 38.9219 125.513 38.9299C125.091 38.9504 124.694 39.1306 124.403 39.4332C124.112 39.7358 123.95 40.1377 123.95 40.5556C123.95 40.9735 124.112 41.3754 124.403 41.678C124.694 41.9806 125.091 42.1608 125.513 42.1813C125.702 42.1892 125.89 42.1523 126.062 42.0734C126.234 41.9945 126.384 41.876 126.5 41.7278V42.1035H127.18V40.5555ZM128.313 41.6549C128.356 41.6546 128.397 41.6628 128.436 41.679C128.474 41.6945 128.508 41.7169 128.537 41.745C128.566 41.773 128.589 41.8063 128.605 41.843C128.621 41.8807 128.629 41.9214 128.629 41.9624C128.629 42.0034 128.621 42.0441 128.605 42.0818C128.589 42.1183 128.566 42.1514 128.537 42.1794C128.508 42.2075 128.474 42.23 128.436 42.2457C128.398 42.2622 128.356 42.2706 128.313 42.2703C128.251 42.2709 128.19 42.2534 128.138 42.2198C128.086 42.1863 128.045 42.1383 128.02 42.0818C128.004 42.044 127.995 42.0034 127.995 41.9624C127.995 41.9214 128.004 41.8808 128.02 41.843C128.036 41.8064 128.059 41.7731 128.087 41.745C128.116 41.7167 128.151 41.6942 128.188 41.679C128.228 41.6628 128.27 41.6545 128.313 41.6549ZM128.313 42.2024C128.346 42.2027 128.378 42.1962 128.407 42.1836C128.435 42.1713 128.461 42.1539 128.483 42.1323C128.528 42.0871 128.554 42.0261 128.554 41.9625C128.554 41.899 128.528 41.838 128.483 41.7928C128.461 41.7712 128.436 41.754 128.407 41.742C128.377 41.7295 128.346 41.7232 128.313 41.7235C128.281 41.7232 128.248 41.7295 128.218 41.742C128.189 41.7538 128.163 41.771 128.141 41.7928C128.095 41.838 128.07 41.899 128.07 41.9625C128.07 42.0261 128.095 42.0871 128.141 42.1323C128.163 42.1541 128.189 42.1715 128.218 42.1836C128.248 42.1962 128.281 42.2026 128.313 42.2024ZM128.332 41.8185C128.362 41.8165 128.393 41.8252 128.417 41.843C128.427 41.8511 128.435 41.8613 128.44 41.8729C128.446 41.8845 128.448 41.8971 128.447 41.9098C128.448 41.9206 128.446 41.9314 128.442 41.9415C128.438 41.9516 128.431 41.9606 128.423 41.9682C128.405 41.9848 128.381 41.9948 128.355 41.9965L128.45 42.1043H128.376L128.288 41.9972H128.26V42.1043H128.198V41.8185H128.332ZM128.26 41.8721V41.9483H128.331C128.345 41.9489 128.358 41.9456 128.37 41.9388C128.375 41.9356 128.378 41.9313 128.381 41.9262C128.383 41.9211 128.385 41.9154 128.384 41.9098C128.385 41.9042 128.383 41.8987 128.381 41.8937C128.378 41.8887 128.374 41.8845 128.37 41.8814C128.358 41.8747 128.345 41.8714 128.331 41.8721H128.26ZM124.649 40.5555C124.66 40.3728 124.724 40.1972 124.834 40.0503C124.945 39.9034 125.096 39.7916 125.269 39.7288C125.443 39.6659 125.631 39.6547 125.811 39.6966C125.991 39.7385 126.154 39.8315 126.281 39.9643C126.408 40.0971 126.493 40.2639 126.526 40.444C126.558 40.6241 126.537 40.8097 126.464 40.9779C126.392 41.1462 126.271 41.2896 126.117 41.3907C125.963 41.4917 125.782 41.5459 125.598 41.5465C125.468 41.5482 125.34 41.5234 125.22 41.4735C125.101 41.4236 124.993 41.3498 124.904 41.2567C124.815 41.1636 124.747 41.0532 124.703 40.9325C124.659 40.8119 124.641 40.6835 124.649 40.5555ZM101.686 40.5555V39.0077H101.006V39.3833C100.89 39.2351 100.74 39.1167 100.568 39.0378C100.396 38.9589 100.208 38.9219 100.019 38.9299C99.5975 38.9504 99.2003 39.1306 98.9093 39.4332C98.6184 39.7359 98.4562 40.1377 98.4562 40.5556C98.4562 40.9735 98.6184 41.3753 98.9093 41.678C99.2003 41.9806 99.5975 42.1608 100.019 42.1813C100.208 42.1893 100.396 42.1523 100.568 42.0734C100.74 41.9945 100.89 41.876 101.006 41.7278V42.1035H101.686V40.5555ZM99.1558 40.5555C99.1664 40.3728 99.2307 40.1972 99.3408 40.0503C99.4509 39.9034 99.6021 39.7916 99.7755 39.7288C99.949 39.6659 100.137 39.6547 100.317 39.6966C100.497 39.7385 100.66 39.8315 100.788 39.9643C100.915 40.0971 101 40.2639 101.032 40.444C101.065 40.6241 101.043 40.8097 100.971 40.9779C100.898 41.1462 100.777 41.2896 100.623 41.3907C100.469 41.4917 100.289 41.5459 100.104 41.5465C99.9744 41.5482 99.846 41.5234 99.7267 41.4735C99.6074 41.4236 99.4998 41.3498 99.4107 41.2567C99.3217 41.1636 99.253 41.0532 99.2092 40.9325C99.1653 40.8119 99.1471 40.6835 99.1558 40.5555Z" fill="#262626"/>
<path d="M115.151 15.4019H104.852V33.7355H115.151V15.4019Z" fill="#FF5F00"/>
<path d="M105.514 24.5786C105.512 22.813 105.916 21.0701 106.695 19.4819C107.474 17.8937 108.608 16.5019 110.01 15.4118C108.273 14.0598 106.188 13.219 103.992 12.9855C101.796 12.7521 99.5778 13.1353 97.5913 14.0915C95.6047 15.0477 93.9298 16.5382 92.758 18.3927C91.5863 20.2472 90.9648 22.3908 90.9648 24.5786C90.9648 26.7664 91.5863 28.9101 92.758 30.7646C93.9298 32.6191 95.6047 34.1096 97.5913 35.0658C99.5778 36.0219 101.796 36.4052 103.992 36.1717C106.188 35.9382 108.273 35.0974 110.01 33.7455C108.608 32.6553 107.474 31.2635 106.695 29.6753C105.916 28.0872 105.512 26.3443 105.514 24.5786Z" fill="#EB001B"/>
<path d="M129.044 24.5786C129.045 26.7664 128.423 28.91 127.251 30.7645C126.08 32.619 124.405 34.1095 122.418 35.0657C120.432 36.0219 118.214 36.4052 116.018 36.1717C113.822 35.9382 111.736 35.0975 110 33.7455C111.401 32.6542 112.534 31.2622 113.312 29.6743C114.091 28.0863 114.496 26.344 114.496 24.5786C114.496 22.8132 114.091 21.0709 113.312 19.483C112.534 17.8951 111.401 16.503 110 15.4118C111.736 14.0598 113.822 13.219 116.018 12.9855C118.214 12.7521 120.432 13.1353 122.418 14.0915C124.405 15.0477 126.08 16.5382 127.251 18.3927C128.423 20.2472 129.045 22.3909 129.044 24.5786Z" fill="#F79E1B"/>
<path d="M127.893 31.7948V31.4195H128.045V31.343H127.656V31.4195H127.809V31.7948H127.893ZM128.648 31.7948V31.3423H128.529L128.392 31.6536L128.254 31.3423H128.135V31.7948H128.219V31.4535L128.348 31.7478H128.435L128.564 31.4527V31.7948H128.648Z" fill="#F79E1B"/>
<g clip-path="url(#clip0_307_9582)">
<path d="M20.5312 36.0444L23.3757 20.0444H27.8201L25.0646 36.0444H20.5312Z" fill="#3C58BF"/>
<path d="M20.5312 36.0444L24.1757 20.0444H27.8201L25.0646 36.0444H20.5312Z" fill="#293688"/>
<path d="M41.1547 20.2223C40.2658 19.8668 38.8436 19.5112 37.0658 19.5112C32.6214 19.5112 29.4214 21.7335 29.4214 24.9335C29.4214 27.3335 31.6436 28.5779 33.4214 29.3779C35.1991 30.1779 35.7325 30.7112 35.7325 31.4223C35.7325 32.489 34.3102 33.0223 33.0658 33.0223C31.288 33.0223 30.3102 32.7557 28.7991 32.1335L28.1769 31.8668L27.5547 35.5112C28.6214 35.9557 30.5769 36.4001 32.6214 36.4001C37.3325 36.4001 40.4436 34.1779 40.4436 30.8001C40.4436 28.9335 39.288 27.5112 36.6214 26.3557C35.0214 25.5557 34.0436 25.1112 34.0436 24.3112C34.0436 23.6001 34.8436 22.889 36.6214 22.889C38.1325 22.889 39.1991 23.1557 39.9991 23.5112L40.4436 23.689L41.1547 20.2223Z" fill="#3C58BF"/>
<path d="M41.1547 20.2223C40.2658 19.8668 38.8436 19.5112 37.0658 19.5112C32.6214 19.5112 30.2214 21.7335 30.2214 24.9335C30.2214 27.3335 31.6436 28.5779 33.4214 29.3779C35.1991 30.1779 35.7325 30.7112 35.7325 31.4223C35.7325 32.489 34.3102 33.0223 33.0658 33.0223C31.288 33.0223 30.3102 32.7557 28.7991 32.1335L28.1769 31.8668L27.5547 35.5112C28.6214 35.9557 30.5769 36.4001 32.6214 36.4001C37.3325 36.4001 40.4436 34.1779 40.4436 30.8001C40.4436 28.9335 39.288 27.5112 36.6214 26.3557C35.0214 25.5557 34.0436 25.1112 34.0436 24.3112C34.0436 23.6001 34.8436 22.889 36.6214 22.889C38.1325 22.889 39.1991 23.1557 39.9991 23.5112L40.4436 23.689L41.1547 20.2223Z" fill="#293688"/>
<path d="M48.802 20.0444C47.7353 20.0444 46.9353 20.1333 46.4909 21.2L39.8242 36.0444H44.6242L45.5131 33.3778H51.202L51.7353 36.0444H56.002L52.2687 20.0444H48.802ZM46.7575 30.7111C47.0242 29.9111 48.5353 26 48.5353 26C48.5353 26 48.8909 25.0222 49.1575 24.4L49.4242 25.9111C49.4242 25.9111 50.3131 29.9111 50.4909 30.8H46.7575V30.7111Z" fill="#3C58BF"/>
<path d="M49.8687 20.0444C48.802 20.0444 48.002 20.1333 47.5575 21.2L39.8242 36.0444H44.6242L45.5131 33.3778H51.202L51.7353 36.0444H56.002L52.2687 20.0444H49.8687ZM46.7575 30.7111C47.1131 29.8222 48.5353 26 48.5353 26C48.5353 26 48.8909 25.0222 49.1575 24.4L49.4242 25.9111C49.4242 25.9111 50.3131 29.9111 50.4909 30.8H46.7575V30.7111Z" fill="#293688"/>
<path d="M12.3542 31.2444L11.9097 28.9333C11.1097 26.2666 8.53194 23.3333 5.6875 21.9111L9.6875 36.1333H14.4875L21.6875 20.1333H16.8875L12.3542 31.2444Z" fill="#3C58BF"/>
<path d="M12.3542 31.2444L11.9097 28.9333C11.1097 26.2666 8.53194 23.3333 5.6875 21.9111L9.6875 36.1333H14.4875L21.6875 20.1333H17.7764L12.3542 31.2444Z" fill="#293688"/>
<path d="M0 20.0444L0.8 20.2222C6.48889 21.5555 10.4 24.9333 11.9111 28.9333L10.3111 21.3778C10.0444 20.3111 9.24444 20.0444 8.26667 20.0444H0Z" fill="#FFBC00"/>
<path d="M0 20.0444C5.68889 21.3778 10.4 24.8444 11.9111 28.8444L10.4 22.5333C10.1333 21.4667 9.24444 20.8444 8.26667 20.8444L0 20.0444Z" fill="#F7981D"/>
<path d="M0 20.0444C5.68889 21.3778 10.4 24.8444 11.9111 28.8444L10.8444 25.3778C10.5778 24.3111 10.2222 23.2444 8.97778 22.8L0 20.0444Z" fill="#ED7C00"/>
<path d="M16.7996 30.7112L13.7773 27.6889L12.3551 31.0667L11.9996 28.8445C11.1996 26.1778 8.62179 23.2445 5.77734 21.8223L9.77734 36.0445H14.5773L16.7996 30.7112Z" fill="#051244"/>
<path d="M25.0646 36.0444L21.2424 32.1333L20.5312 36.0444H25.0646Z" fill="#051244"/>
<path d="M35.288 30.5337C35.6436 30.8892 35.8214 31.1559 35.7325 31.5115C35.7325 32.5781 34.3102 33.1115 33.0658 33.1115C31.288 33.1115 30.3102 32.8448 28.7991 32.2226L28.1769 31.9559L27.5547 35.6004C28.6214 36.0448 30.5769 36.4892 32.6214 36.4892C35.4658 36.4892 37.7769 35.6892 39.1102 34.267L35.288 30.5337Z" fill="#051244"/>
<path d="M40.4453 36.0443H44.6231L45.512 33.3777H51.2009L51.7342 36.0443H56.0009L54.4898 29.5555L49.1564 24.3999L49.4231 25.8221C49.4231 25.8221 50.312 29.8221 50.4898 30.711H46.7564C47.112 29.8221 48.5342 25.9999 48.5342 25.9999C48.5342 25.9999 48.8898 25.0221 49.1564 24.3999" fill="#051244"/>
</g>
<defs>
<clipPath id="clip0_307_9582">
<rect width="56" height="56" fill="white"/>
</clipPath>
</defs>
</svg>
