<svg width="144" height="48" viewBox="0 0 144 48" fill="none" xmlns="http://www.w3.org/2000/svg">
<rect width="144" height="48" fill="#FFCC00"/>
<rect width="112" height="16" transform="translate(16 16)" fill="#FFCC00"/>
<path fill-rule="evenodd" clip-rule="evenodd" d="M32.1009 21.0347L35.692 16.5C35.692 16.5 51.5956 16.5 56.2917 16.5375C61.5008 16.5375 62.8425 20.3976 61.3824 22.234L59.0146 25.2321H51.0431C49.5435 25.2321 50.0171 24.6325 50.2538 24.3327C50.559 23.9537 50.9759 23.4156 51.3633 22.9155L51.3633 22.9155C51.6271 22.5749 51.8773 22.252 52.0691 22.0091C52.5821 21.372 52.5821 21.0347 51.5956 21.0347H32.1009ZM37.823 22.159L30.6408 31.2659C30.6408 31.2659 43.4662 31.2659 48.1229 31.3034C53.8845 31.3034 57.1204 27.6306 58.107 26.3564H46.1892C44.7592 26.3564 45.1234 25.8452 45.3656 25.5053L45.3999 25.457C45.7051 25.078 46.122 24.5398 46.5094 24.0397L46.5097 24.0394C46.7734 23.699 47.0234 23.3762 47.2152 23.1334C47.7282 22.4963 47.7282 22.159 46.7417 22.159H37.823ZM16 26.3189H32.6534L31.8246 27.3683H16V26.3189ZM31.1143 28.2677H16V29.3171H30.2856L31.1143 28.2677ZM16 30.2165H29.5753L28.786 31.2659H16V30.2165ZM127.878 31.2659H111.264L112.092 30.2165H127.878V31.2659ZM112.803 29.3171H127.878V28.2677H113.631L112.803 29.3171ZM115.17 26.3189H127.878V27.3683H114.342L115.17 26.3189ZM71.7612 26.3189L67.8543 31.2659H57.594L61.5008 26.3189H71.7612ZM82.6924 31.2659L86.5992 26.3189H76.3388L72.432 31.2659H82.6924ZM89.9536 26.3189C89.9536 26.3189 89.2038 27.2933 88.8486 27.7431C87.5463 29.3546 88.6908 31.2659 92.9133 31.2659H109.409L113.316 26.3189H89.9536ZM87.5069 25.1946H62.369L69.2355 16.5H79.4959L75.5891 21.4844H80.1668L84.1131 16.5H94.3734L87.5069 25.1946ZM101.714 25.1946L108.58 16.5H97.6883L90.8218 25.1946H101.714Z" fill="#D40511"/>
</svg>
