<svg width="48" height="48" viewBox="0 0 48 48" fill="none" xmlns="http://www.w3.org/2000/svg">
<path d="M23.3465 1.01862L2.63084 11.0191C2.37115 11.1445 2.20605 11.4075 2.20605 11.6959V36.3039C2.20605 36.5922 2.37115 36.8552 2.63084 36.9807L23.3465 46.9814C23.7594 47.1807 24.2405 47.1807 24.6534 46.9814L45.369 36.9807C45.6287 36.8554 45.7938 36.5923 45.7938 36.304V11.696C45.7938 11.4076 45.6287 11.1447 45.369 11.0192L24.6534 1.01862C24.2405 0.819313 23.7594 0.819313 23.3465 1.01862Z" fill="#FFCC00"/>
<path d="M2.33102 11.2847C2.25199 11.4049 2.20605 11.5465 2.20605 11.696V36.304C2.20605 36.5925 2.37115 36.8554 2.63084 36.9808L23.3465 46.9816C23.553 47.0812 23.7765 47.1311 24 47.1311V21.7456L2.33102 11.2847Z" fill="#FFCC00"/>
<path d="M45.6689 11.2847C45.7479 11.4049 45.7939 11.5465 45.7939 11.696V36.304C45.7939 36.5925 45.6288 36.8554 45.3691 36.9808L24.6534 46.9816C24.447 47.0812 24.2235 47.1311 24 47.1311V21.7456L45.6689 11.2847Z" fill="#FFCC00"/>
<path d="M38.3256 14.8174L16.5806 4.3125L10.8485 7.09087L32.6423 17.6122L38.3256 14.8174Z" fill="white"/>
<path d="M32.6423 17.6122V25.7628C32.6423 26.0398 32.9319 26.2216 33.1815 26.1011L37.9009 23.8228C38.1607 23.6975 38.3257 23.4344 38.3257 23.146V14.8174L32.6423 17.6122Z" fill="white"/>
<path d="M46.0995 10.5909L24.3056 0.0698906C24.1124 -0.0232969 23.8874 -0.0232969 23.6943 0.0698906L1.90034 10.5909C1.65734 10.7082 1.50293 10.9543 1.50293 11.2241V36.7756C1.50293 37.0454 1.65734 37.2915 1.90034 37.4087L23.6942 47.9299C23.7908 47.9765 23.8954 47.9999 23.9999 47.9999C24.1045 47.9999 24.209 47.9765 24.3056 47.9299L46.0995 37.4087C46.3425 37.2915 46.4969 37.0454 46.4969 36.7756V11.2242C46.4969 10.9543 46.3424 10.7083 46.0995 10.5909ZM23.9999 1.48383L44.1765 11.2242L38.3277 14.0477C38.2907 14.0195 38.2516 13.9935 38.2087 13.9727L18.1691 4.29867L23.9999 1.48383ZM16.5812 5.09367L36.7285 14.8199L32.602 16.812L12.4631 7.08961L16.5812 5.09367ZM33.3455 18.0146L37.1998 16.1538V23.5175L33.3455 25.3783V18.0146ZM24.703 46.1766V22.1866L29.5661 19.839C29.9158 19.6701 30.0625 19.2498 29.8936 18.9C29.7248 18.5505 29.3045 18.4036 28.9547 18.5726L23.9999 20.9646L22.0503 20.0234C21.7005 19.8543 21.2802 20.0011 21.1114 20.3508C20.9426 20.7005 21.0892 21.1209 21.4389 21.2897L23.2968 22.1866V46.1765L2.90918 36.3343V12.3443L18.4342 19.8391C18.5327 19.8868 18.6369 19.9093 18.7393 19.9093C19.0007 19.9093 19.2518 19.7628 19.373 19.5117C19.5418 19.162 19.3952 18.7416 19.0455 18.5728L3.82334 11.2241L10.8082 7.85208L31.9295 18.0487C31.9326 18.053 31.936 18.0569 31.9392 18.0611V26.4985C31.9392 26.7405 32.0636 26.9654 32.2686 27.0941C32.3824 27.1655 32.5122 27.2016 32.6425 27.2016C32.7467 27.2016 32.8512 27.1785 32.9481 27.1317L38.2087 24.5921C38.4517 24.4748 38.6061 24.2288 38.6061 23.9589V15.475L45.0907 12.3445V36.3345L24.703 46.1766Z" fill="black"/>
<path d="M8.71181 33.6073L5.51352 32.0633C5.16365 31.8943 4.74346 32.0411 4.57462 32.3908C4.40577 32.7405 4.5524 33.1609 4.90209 33.3297L8.10037 34.8737C8.1989 34.9213 8.30306 34.9438 8.40553 34.9438C8.6669 34.9438 8.91797 34.7974 9.03919 34.5462C9.20812 34.1965 9.0615 33.7762 8.71181 33.6073Z" fill="white"/>
<path d="M11.6553 31.6917L5.51798 28.7288C5.1682 28.5599 4.74792 28.7066 4.57907 29.0564C4.41032 29.406 4.55695 29.8264 4.90664 29.9953L11.044 32.9581C11.1425 33.0057 11.2467 33.0283 11.3491 33.0283C11.6105 33.0283 11.8616 32.8818 11.9828 32.6307C12.1516 32.2809 12.005 31.8604 11.6553 31.6917Z" fill="white"/>
</svg>
