<svg width="44" height="44" viewBox="0 0 44 44" fill="none" xmlns="http://www.w3.org/2000/svg">
<rect x="1" y="1" width="42" height="42" rx="1" fill="#FFCC00" stroke="black" stroke-width="2"/>
<path d="M4.55171 7.95996H19.7241C19.867 7.95996 19.9827 8.07575 19.9827 8.21858V11.2531C19.9827 11.3959 19.867 11.5117 19.7241 11.5117H4.55171C4.40888 11.5117 4.29309 11.3959 4.29309 11.2531V8.21858C4.29309 8.07575 4.40888 7.95996 4.55171 7.95996Z" fill="white" stroke="black"/>
<path d="M24.276 7.95996H39.4483C39.5912 7.95996 39.707 8.07575 39.707 8.21858V11.2531C39.707 11.3959 39.5912 11.5117 39.4483 11.5117H24.276C24.1331 11.5117 24.0173 11.3959 24.0173 11.2531V8.21858C24.0173 8.07575 24.1331 7.95996 24.276 7.95996Z" fill="white" stroke="black"/>
<path d="M39.4483 15.0464H4.55171C4.13274 15.0464 3.79309 15.386 3.79309 15.805V30.9774C3.79309 31.3964 4.13274 31.736 4.55171 31.736H39.4483C39.8672 31.736 40.2069 31.3964 40.2069 30.9774V15.805C40.2069 15.386 39.8672 15.0464 39.4483 15.0464Z" fill="white"/>
<path d="M38.6896 34.77H28.0689C27.2309 34.77 26.5516 35.4493 26.5516 36.2873C26.5516 37.1252 27.2309 37.8045 28.0689 37.8045H38.6896C39.5275 37.8045 40.2068 37.1252 40.2068 36.2873C40.2068 35.4493 39.5275 34.77 38.6896 34.77Z" fill="black"/>
<path fill-rule="evenodd" clip-rule="evenodd" d="M9.10345 18.839H6.82759C6.40862 18.839 6.06897 18.4994 6.06897 18.0804C6.06897 17.6614 6.40862 17.3218 6.82759 17.3218H9.10345C9.52243 17.3218 9.86207 17.6614 9.86207 18.0804C9.86207 18.4994 9.52243 18.839 9.10345 18.839Z" fill="black"/>
<path fill-rule="evenodd" clip-rule="evenodd" d="M21.2413 18.839H12.1379C11.7189 18.839 11.3793 18.4994 11.3793 18.0804C11.3793 17.6614 11.7189 17.3218 12.1379 17.3218H21.2413C21.6603 17.3218 21.9999 17.6614 21.9999 18.0804C21.9999 18.4994 21.6603 18.839 21.2413 18.839Z" fill="black"/>
<path fill-rule="evenodd" clip-rule="evenodd" d="M26.5517 21.8737H6.82759C6.40862 21.8737 6.06897 21.534 6.06897 21.1151C6.06897 20.6961 6.40862 20.3564 6.82759 20.3564H26.5517C26.9707 20.3564 27.3103 20.6961 27.3103 21.1151C27.3103 21.534 26.9707 21.8737 26.5517 21.8737Z" fill="black"/>
</svg>
