<svg width="24" height="24" viewBox="0 0 24 24" fill="none" xmlns="http://www.w3.org/2000/svg">
<g opacity="0.6">
<path d="M12.0005 0C7.20775 0 3.30859 3.89916 3.30859 8.69184C3.30859 14.6397 11.087 23.3715 11.4182 23.7404C11.7292 24.0868 12.2723 24.0862 12.5828 23.7404C12.914 23.3715 20.6924 14.6397 20.6924 8.69184C20.6923 3.89916 16.7932 0 12.0005 0ZM12.0005 13.7316C9.58914 13.7316 6.88296 11.6667 6.96076 8.69184C6.88296 5.89681 9.58919 3.65211 12.0005 3.65211C14.4118 3.65211 17.0402 6.28055 17.0402 8.69189C17.0402 11.1032 14.334 13.7316 12.0005 13.7316Z" fill="black"/>
<circle cx="12" cy="8.5" r="1.5" fill="black"/>
</g>
</svg>
