<svg width="42" height="42" viewBox="0 0 42 42" fill="none" xmlns="http://www.w3.org/2000/svg">
<path d="M37.1979 19.1835C38.0274 20.2685 38.0274 21.7333 37.1979 22.8165C34.5852 26.2273 28.3167 33.25 20.9982 33.25C13.6797 33.25 7.41119 26.2273 4.79844 22.8165C4.39486 22.297 4.17578 21.6579 4.17578 21C4.17578 20.3421 4.39486 19.703 4.79844 19.1835C7.41119 15.7727 13.6797 8.75 20.9982 8.75C28.3167 8.75 34.5852 15.7727 37.1979 19.1835V19.1835Z" stroke="white" stroke-width="2" stroke-linecap="round" stroke-linejoin="round"/>
<path d="M21 26.25C23.8995 26.25 26.25 23.8995 26.25 21C26.25 18.1005 23.8995 15.75 21 15.75C18.1005 15.75 15.75 18.1005 15.75 21C15.75 23.8995 18.1005 26.25 21 26.25Z" stroke="white" stroke-width="2" stroke-linecap="round" stroke-linejoin="round"/>
</svg>
