<svg width="24" height="24" viewBox="0 0 24 24" fill="none" xmlns="http://www.w3.org/2000/svg">
<path d="M3 0C2.20435 0 1.44129 0.316071 0.87868 0.87868C0.316071 1.44129 0 2.20435 0 3L0 21C0 21.7957 0.316071 22.5587 0.87868 23.1213C1.44129 23.6839 2.20435 24 3 24H21C21.7957 24 22.5587 23.6839 23.1213 23.1213C23.6839 22.5587 24 21.7957 24 21V3C24 2.20435 23.6839 1.44129 23.1213 0.87868C22.5587 0.316071 21.7957 0 21 0L3 0Z" fill="#FFCC00"/>
<path d="M5.31603 16.0577C5.37528 16.1895 5.47136 16.3014 5.59271 16.3799C5.71406 16.4584 5.8555 16.5002 6.00003 16.5002H18C18.1446 16.5003 18.2861 16.4585 18.4075 16.38C18.5289 16.3015 18.625 16.1896 18.6843 16.0577C18.7436 15.9259 18.7635 15.7797 18.7416 15.6368C18.7197 15.4939 18.657 15.3603 18.561 15.2522L12.561 8.50223C12.4907 8.42292 12.4043 8.35943 12.3076 8.31596C12.2109 8.27248 12.106 8.25 12 8.25C11.894 8.25 11.7892 8.27248 11.6925 8.31596C11.5958 8.35943 11.5094 8.42292 11.439 8.50223L5.43903 15.2522C5.34307 15.3604 5.28042 15.4939 5.25859 15.6368C5.23677 15.7797 5.25672 15.9259 5.31603 16.0577Z" fill="white"/>
</svg>
