<svg width="16" height="16" viewBox="0 0 16 16" fill="none" xmlns="http://www.w3.org/2000/svg">
<path fill-rule="evenodd" clip-rule="evenodd" d="M14.3541 9.35408C14.3076 9.40065 14.2525 9.43759 14.1917 9.4628C14.131 9.488 14.0659 9.50098 14.0001 9.50098C13.9343 9.50098 13.8692 9.488 13.8084 9.4628C13.7477 9.43759 13.6925 9.40065 13.6461 9.35408L8.00008 3.70708L2.35408 9.35408C2.2602 9.44797 2.13286 9.50071 2.00008 9.50071C1.86731 9.50071 1.73997 9.44797 1.64608 9.35408C1.5522 9.2602 1.49945 9.13286 1.49945 9.00008C1.49945 8.86731 1.5522 8.73997 1.64608 8.64608L7.64608 2.64608C7.69253 2.59952 7.74771 2.56258 7.80845 2.53737C7.8692 2.51216 7.93432 2.49919 8.00008 2.49919C8.06585 2.49919 8.13097 2.51216 8.19172 2.53737C8.25246 2.56258 8.30764 2.59952 8.35408 2.64608L14.3541 8.64608C14.4006 8.69253 14.4376 8.7477 14.4628 8.80845C14.488 8.86919 14.501 8.93432 14.501 9.00008C14.501 9.06585 14.488 9.13097 14.4628 9.19172C14.4376 9.25246 14.4006 9.30764 14.3541 9.35408Z" fill="#D40511"/>
<path fill-rule="evenodd" clip-rule="evenodd" d="M14.3541 13.3541C14.3076 13.4006 14.2525 13.4376 14.1917 13.4628C14.131 13.488 14.0659 13.501 14.0001 13.501C13.9343 13.501 13.8692 13.488 13.8084 13.4628C13.7477 13.4376 13.6925 13.4006 13.6461 13.3541L8.00008 7.70708L2.35408 13.3541C2.3076 13.4006 2.25241 13.4374 2.19167 13.4626C2.13093 13.4878 2.06583 13.5007 2.00008 13.5007C1.93434 13.5007 1.86924 13.4878 1.8085 13.4626C1.74776 13.4374 1.69257 13.4006 1.64608 13.3541C1.5996 13.3076 1.56272 13.2524 1.53756 13.1917C1.5124 13.1309 1.49945 13.0658 1.49945 13.0001C1.49945 12.9343 1.5124 12.8692 1.53756 12.8085C1.56272 12.7478 1.5996 12.6926 1.64608 12.6461L7.64608 6.64608C7.69253 6.59952 7.74771 6.56258 7.80845 6.53737C7.8692 6.51216 7.93432 6.49919 8.00008 6.49919C8.06585 6.49919 8.13097 6.51216 8.19172 6.53737C8.25246 6.56258 8.30764 6.59952 8.35408 6.64608L14.3541 12.6461C14.4006 12.6925 14.4376 12.7477 14.4628 12.8084C14.488 12.8692 14.501 12.9343 14.501 13.0001C14.501 13.0659 14.488 13.131 14.4628 13.1917C14.4376 13.2525 14.4006 13.3076 14.3541 13.3541Z" fill="#D40511"/>
</svg>
