<svg width="26" height="26" viewBox="0 0 26 26" fill="none" xmlns="http://www.w3.org/2000/svg">
<path d="M13 23C10.3478 23 7.8043 21.9464 5.92893 20.0711C4.05357 18.1957 3 15.6522 3 13C3 10.3478 4.05357 7.8043 5.92893 5.92893C7.8043 4.05357 10.3478 3 13 3C15.6522 3 18.1957 4.05357 20.0711 5.92893C21.9464 7.8043 23 10.3478 23 13C23 15.6522 21.9464 18.1957 20.0711 20.0711C18.1957 21.9464 15.6522 23 13 23ZM13 25.5C16.3152 25.5 19.4946 24.183 21.8388 21.8388C24.183 19.4946 25.5 16.3152 25.5 13C25.5 9.68479 24.183 6.50537 21.8388 4.16117C19.4946 1.81696 16.3152 0.5 13 0.5C9.68479 0.5 6.50537 1.81696 4.16117 4.16117C1.81696 6.50537 0.5 9.68479 0.5 13C0.5 16.3152 1.81696 19.4946 4.16117 21.8388C6.50537 24.183 9.68479 25.5 13 25.5Z" fill="#00C008" stroke="#00C008"/>
<path d="M18 13C18 14.3261 17.4732 15.5979 16.5355 16.5355C15.5979 17.4732 14.3261 18 13 18C11.6739 18 10.4021 17.4732 9.46447 16.5355C8.52678 15.5979 8 14.3261 8 13C8 11.6739 8.52678 10.4021 9.46447 9.46447C10.4021 8.52678 11.6739 8 13 8C14.3261 8 15.5979 8.52678 16.5355 9.46447C17.4732 10.4021 18 11.6739 18 13Z" fill="#00C008"/>
</svg>
