<svg width="64" height="64" viewBox="0 0 64 64" fill="none" xmlns="http://www.w3.org/2000/svg">
<path d="M45.7867 10H18.2135C12.9028 10 8.58215 14.3206 8.58215 19.6313C8.58215 24.9421 12.9028 29.2627 18.2135 29.2627H25.2263V37.0439L24.8839 36.7567C23.1913 35.3363 20.5427 35.4518 18.9802 37.0144C17.3428 38.6519 17.45 41.2543 19.2306 42.7483L25.2262 47.7793V52.6279C25.2262 53.3856 25.8406 54 26.5984 54H43.0641C43.8219 54 44.4362 53.3856 44.4362 52.6279V37.209C44.4362 35.1365 42.8853 33.3804 40.8287 33.1241L33.4591 32.206V29.2625H45.7867C51.0974 29.2625 55.4179 24.9419 55.4179 19.6312C55.4179 14.3204 51.0974 10 45.7867 10Z" fill="#FFCC00"/>
<path d="M45.7867 10H18.2135C12.9028 10 8.58215 14.3206 8.58215 19.6313C8.58215 24.9421 12.9028 29.2627 18.2135 29.2627H25.2263V37.0439L24.8839 36.7567C23.1913 35.3363 20.5427 35.4518 18.9802 37.0144C17.3428 38.6519 17.45 41.2543 19.2306 42.7483L25.2262 47.7793V52.6279C25.2262 53.3856 25.8406 54 26.5984 54H43.0641C43.8219 54 44.4362 53.3856 44.4362 52.6279V37.209C44.4362 35.1365 42.8853 33.3804 40.8287 33.1241L33.4591 32.206V29.2625H45.7867C51.0974 29.2625 55.4179 24.9419 55.4179 19.6312C55.4179 14.3204 51.0974 10 45.7867 10ZM27.9705 51.2557V48.5114H41.6919V51.2557H27.9705ZM40.4895 35.8474C41.175 35.9328 41.692 36.5182 41.692 37.209V45.7672H27.0978L20.9945 40.646C20.4528 40.1914 20.42 39.4557 20.9207 38.9548C21.4831 38.3925 22.5108 38.3477 23.12 38.8589L25.7164 41.0376C26.6071 41.7847 27.9706 41.1509 27.9706 39.9864V22.4407C27.9706 21.6841 28.5861 21.0686 29.3427 21.0686C30.0993 21.0686 30.7149 21.6841 30.7149 22.4407V33.4179C30.7149 34.1101 31.2305 34.6939 31.9174 34.7795L40.4895 35.8474ZM45.7867 26.5183H33.4591V22.4407C33.4591 20.171 31.6124 18.3243 29.3427 18.3243C27.0729 18.3243 25.2262 20.171 25.2262 22.4407V26.5183H18.2134C14.4159 26.5183 11.3264 23.4288 11.3264 19.6313C11.3264 15.8339 14.4159 12.7443 18.2135 12.7443H45.7867C49.5841 12.7443 52.6736 15.8338 52.6736 19.6313C52.6736 23.4289 49.5841 26.5183 45.7867 26.5183Z" fill="black"/>
<path d="M44.742 15.8907L40.2237 20.409L38.4496 18.635C37.9138 18.0992 37.0449 18.0992 36.5091 18.635C35.9732 19.1709 35.9732 20.0396 36.5091 20.5755L39.2534 23.3198C39.7891 23.8556 40.658 23.8557 41.1938 23.3198L46.6824 17.8312C47.2183 17.2954 47.2183 16.4266 46.6824 15.8907C46.1466 15.3548 45.2778 15.3548 44.742 15.8907Z" fill="black"/>
</svg>
