<svg width="24" height="24" viewBox="0 0 24 24" fill="none" xmlns="http://www.w3.org/2000/svg">
<path d="M11.6728 0.509312L1.31493 5.50956C1.18509 5.57223 1.10254 5.70377 1.10254 5.84795V18.1519C1.10254 18.2961 1.18509 18.4276 1.31493 18.4903L11.6728 23.4907C11.8792 23.5904 12.1198 23.5904 12.3262 23.4907L22.684 18.4904C22.8139 18.4277 22.8964 18.2962 22.8964 18.152V5.848C22.8964 5.70381 22.8139 5.57233 22.684 5.50961L12.3262 0.509312C12.1198 0.409656 11.8792 0.409656 11.6728 0.509312Z" fill="#FFF1B8"/>
<path d="M1.16502 5.64209C1.12551 5.70223 1.10254 5.77301 1.10254 5.84778V18.1518C1.10254 18.296 1.18509 18.4274 1.31493 18.4902L11.6727 23.4905C11.776 23.5404 11.8877 23.5653 11.9995 23.5653V10.8725L1.16502 5.64209Z" fill="#EEBD00"/>
<path d="M22.8345 5.64209C22.874 5.70223 22.8969 5.77301 22.8969 5.84778V18.1518C22.8969 18.296 22.8144 18.4274 22.6845 18.4902L12.3267 23.4905C12.2235 23.5404 12.1117 23.5653 12 23.5653V10.8725L22.8345 5.64209Z" fill="#FFCC00"/>
<path d="M19.1634 7.40869L8.29084 2.15625L5.4248 3.54544L16.3217 8.80608L19.1634 7.40869Z" fill="#FF8087"/>
<path d="M16.3213 8.80608V12.8814C16.3213 13.0199 16.4661 13.1108 16.5909 13.0506L18.9506 11.9114C19.0804 11.8487 19.1629 11.7172 19.1629 11.573V7.40869L16.3213 8.80608Z" fill="#E6646E"/>
<path d="M23.0493 5.29545L12.1523 0.0349453C12.0557 -0.0116484 11.9432 -0.0116484 11.8467 0.0349453L0.94968 5.29545C0.82818 5.35409 0.750977 5.47713 0.750977 5.61204V18.3878C0.750977 18.5227 0.82818 18.6457 0.94968 18.7044L11.8466 23.965C11.8949 23.9883 11.9472 23.9999 11.9995 23.9999C12.0517 23.9999 12.104 23.9883 12.1523 23.965L23.0493 18.7044C23.1708 18.6457 23.248 18.5227 23.248 18.3878V5.61209C23.248 5.47713 23.1707 5.35413 23.0493 5.29545ZM11.9995 0.741914L22.0878 5.61209L19.1634 7.02387C19.1449 7.00976 19.1253 6.99673 19.1038 6.98637L9.08409 2.14934L11.9995 0.741914ZM8.29012 2.54684L18.3637 7.40993L16.3005 8.40598L6.23109 3.5448L8.29012 2.54684ZM16.6723 9.00729L18.5994 8.07691V11.7588L16.6723 12.6891V9.00729ZM12.351 23.0883V11.0933L14.7826 9.91948C14.9574 9.83505 15.0307 9.62491 14.9463 9.45002C14.8619 9.27523 14.6518 9.20182 14.4769 9.28629L11.9995 10.4823L11.0247 10.0117C10.8498 9.92716 10.6396 10.0006 10.5552 10.1754C10.4708 10.3503 10.5441 10.5604 10.7189 10.6449L11.6479 11.0933V23.0883L1.4541 18.1671V6.17215L9.2166 9.91957C9.26587 9.94338 9.31794 9.95463 9.36918 9.95463C9.49987 9.95463 9.6254 9.88141 9.68601 9.75584C9.77043 9.58099 9.69712 9.3708 9.52227 9.28638L1.91118 5.61204L5.4036 3.92604L15.9643 9.02435C15.9658 9.02651 15.9675 9.02843 15.9691 9.03054V13.2492C15.9691 13.3702 16.0313 13.4827 16.1338 13.547C16.1907 13.5828 16.2556 13.6008 16.3207 13.6008C16.3729 13.6008 16.4251 13.5892 16.4736 13.5658L19.1038 12.296C19.2253 12.2374 19.3026 12.1144 19.3026 11.9794V7.73749L22.5448 6.17224V18.1672L12.351 23.0883Z" fill="black"/>
<path d="M4.3556 16.8042L2.75646 16.0322C2.58152 15.9476 2.37143 16.0211 2.287 16.1959C2.20258 16.3707 2.27589 16.5809 2.45074 16.6654L4.04988 17.4373C4.09915 17.4612 4.15123 17.4724 4.20246 17.4724C4.33315 17.4724 4.45868 17.3992 4.51929 17.2736C4.60376 17.0987 4.53044 16.8886 4.3556 16.8042Z" fill="black"/>
<path d="M5.82803 15.8456L2.75936 14.3642C2.58447 14.2797 2.37433 14.353 2.2899 14.5279C2.20553 14.7028 2.27884 14.913 2.45369 14.9974L5.52236 16.4788C5.57162 16.5026 5.6237 16.5139 5.67494 16.5139C5.80562 16.5139 5.93115 16.4407 5.99176 16.3151C6.07619 16.1402 6.00287 15.93 5.82803 15.8456Z" fill="black"/>
</svg>
