<svg width="24" height="24" viewBox="0 0 24 24" fill="none" xmlns="http://www.w3.org/2000/svg">
<path d="M11.6732 0.509312L1.31542 5.50956C1.18557 5.57223 1.10303 5.70377 1.10303 5.84795V18.1519C1.10303 18.2961 1.18557 18.4276 1.31542 18.4903L11.6732 23.4907C11.8797 23.5904 12.1202 23.5904 12.3267 23.4907L22.6845 18.4904C22.8144 18.4277 22.8969 18.2962 22.8969 18.152V5.848C22.8969 5.70381 22.8144 5.57233 22.6845 5.50961L12.3267 0.509312C12.1202 0.409656 11.8797 0.409656 11.6732 0.509312Z" fill="#FFF1B8"/>
<path d="M1.16551 5.64209C1.126 5.70223 1.10303 5.77301 1.10303 5.84778V18.1518C1.10303 18.296 1.18557 18.4274 1.31542 18.4902L11.6732 23.4905C11.7765 23.5404 11.8882 23.5653 12 23.5653V10.8725L1.16551 5.64209Z" fill="#EEBD00"/>
<path d="M22.8345 5.64209C22.874 5.70223 22.8969 5.77301 22.8969 5.84778V18.1518C22.8969 18.296 22.8144 18.4274 22.6845 18.4902L12.3267 23.4905C12.2235 23.5404 12.1117 23.5653 12 23.5653V10.8725L22.8345 5.64209Z" fill="#FFCC00"/>
<path d="M19.1629 7.40869L8.29035 2.15625L5.42432 3.54544L16.3212 8.80608L19.1629 7.40869Z" fill="#FF8087"/>
<path d="M16.3213 8.80608V12.8814C16.3213 13.0199 16.4661 13.1108 16.5909 13.0506L18.9506 11.9114C19.0804 11.8487 19.1629 11.7172 19.1629 11.573V7.40869L16.3213 8.80608Z" fill="#E6646E"/>
<path d="M23.0498 5.29545L12.1528 0.0349453C12.0562 -0.0116484 11.9437 -0.0116484 11.8472 0.0349453L0.950168 5.29545C0.828668 5.35409 0.751465 5.47713 0.751465 5.61204V18.3878C0.751465 18.5227 0.828668 18.6457 0.950168 18.7044L11.8471 23.965C11.8954 23.9883 11.9477 23.9999 12 23.9999C12.0522 23.9999 12.1045 23.9883 12.1528 23.965L23.0498 18.7044C23.1713 18.6457 23.2485 18.5227 23.2485 18.3878V5.61209C23.2485 5.47713 23.1712 5.35413 23.0498 5.29545ZM12 0.741914L22.0883 5.61209L19.1639 7.02387C19.1454 7.00976 19.1258 6.99673 19.1043 6.98637L9.08457 2.14934L12 0.741914ZM8.29061 2.54684L18.3642 7.40993L16.301 8.40598L6.23157 3.5448L8.29061 2.54684ZM16.6727 9.00729L18.5999 8.07691V11.7588L16.6727 12.6891V9.00729ZM12.3515 23.0883V11.0933L14.7831 9.91948C14.9579 9.83505 15.0312 9.62491 14.9468 9.45002C14.8624 9.27523 14.6522 9.20182 14.4774 9.28629L12 10.4823L11.0252 10.0117C10.8503 9.92716 10.6401 10.0006 10.5557 10.1754C10.4713 10.3503 10.5446 10.5604 10.7194 10.6449L11.6484 11.0933V23.0883L1.45459 18.1671V6.17215L9.21709 9.91957C9.26636 9.94338 9.31843 9.95463 9.36967 9.95463C9.50035 9.95463 9.62589 9.88141 9.6865 9.75584C9.77092 9.58099 9.69761 9.3708 9.52276 9.28638L1.91167 5.61204L5.40409 3.92604L15.9647 9.02435C15.9663 9.02651 15.968 9.02843 15.9696 9.03054V13.2492C15.9696 13.3702 16.0318 13.4827 16.1343 13.547C16.1912 13.5828 16.2561 13.6008 16.3212 13.6008C16.3734 13.6008 16.4256 13.5892 16.474 13.5658L19.1043 12.296C19.2258 12.2374 19.303 12.1144 19.303 11.9794V7.73749L22.5453 6.17224V18.1672L12.3515 23.0883Z" fill="black"/>
<path d="M4.3556 16.8042L2.75646 16.0322C2.58152 15.9476 2.37143 16.0211 2.287 16.1959C2.20258 16.3707 2.27589 16.5809 2.45074 16.6654L4.04988 17.4373C4.09915 17.4612 4.15123 17.4724 4.20246 17.4724C4.33315 17.4724 4.45868 17.3992 4.51929 17.2736C4.60376 17.0987 4.53044 16.8886 4.3556 16.8042Z" fill="black"/>
<path d="M5.82803 15.8456L2.75936 14.3642C2.58447 14.2797 2.37433 14.353 2.2899 14.5279C2.20553 14.7028 2.27884 14.913 2.45369 14.9974L5.52236 16.4788C5.57162 16.5026 5.6237 16.5139 5.67494 16.5139C5.80562 16.5139 5.93115 16.4407 5.99176 16.3151C6.07619 16.1402 6.00287 15.93 5.82803 15.8456Z" fill="black"/>
</svg>
