<svg width="46" height="51" viewBox="0 0 46 51" fill="none" xmlns="http://www.w3.org/2000/svg">
<path d="M27.1733 48C24.32 43.8133 21.3333 38.2933 21.3333 33.3333C21.3333 28.4533 23.8933 24 27.7333 21.3333H26.6667V16H32V19.28C33.3333 18.9067 34.6667 18.6667 36 18.6667C36.4533 18.6667 36.9067 18.6667 37.3333 18.7467V0H0V48H16V38.6667H21.3333V48H27.1733ZM26.6667 5.33333H32V10.6667H26.6667V5.33333ZM10.6667 42.6667H5.33333V37.3333H10.6667V42.6667ZM10.6667 32H5.33333V26.6667H10.6667V32ZM10.6667 21.3333H5.33333V16H10.6667V21.3333ZM10.6667 10.6667H5.33333V5.33333H10.6667V10.6667ZM16 5.33333H21.3333V10.6667H16V5.33333ZM16 16H21.3333V21.3333H16V16ZM16 32V26.6667H21.3333V32H16ZM36 24C30.9333 24 26.6667 28.2933 26.6667 33.3333C26.6667 40.2933 36 50.6667 36 50.6667C36 50.6667 45.3333 40.2933 45.3333 33.3333C45.3333 28.2933 41.0667 24 36 24ZM36 36.8267C34.1333 36.8267 32.8 35.2267 32.8 33.6267C32.8 31.76 34.4 30.4267 36 30.4267C37.6 30.4267 39.2 32 39.2 33.6267C39.4667 35.2267 37.8667 36.8267 36 36.8267Z" fill="black"/>
</svg>
