<svg width="24" height="24" viewBox="0 0 24 24" fill="none" xmlns="http://www.w3.org/2000/svg">
<g clip-path="url(#clip0_330_10889)">
<path d="M14 9.08984L22.81 10.8398C23.52 10.9898 24 11.5898 24 12.2998V22.4998C24 23.3298 23.33 23.9998 22.5 23.9998H13.5C13.78 23.9998 14 23.7798 14 23.4998V22.9998H22.5C22.77 22.9998 23 22.7798 23 22.4998V12.2998C23 12.0698 22.84 11.8598 22.61 11.8098L14 10.1098V9.08984Z" fill="#FFCC00"/>
<path d="M19.5 14C19.78 14 20 14.22 20 14.5C20 14.78 19.78 15 19.5 15H17.5C17.22 15 17 14.78 17 14.5C17 14.22 17.22 14 17.5 14H19.5Z" fill="#FFCC00"/>
<path d="M19.5 17C19.78 17 20 17.22 20 17.5C20 17.78 19.78 18 19.5 18H17.5C17.22 18 17 17.78 17 17.5C17 17.22 17.22 17 17.5 17H19.5Z" fill="#FFCC00"/>
<path d="M19.5 20C19.78 20 20 20.22 20 20.5C20 20.78 19.78 21 19.5 21H17.5C17.22 21 17 20.78 17 20.5C17 20.22 17.22 20 17.5 20H19.5Z" fill="#FFCC00"/>
<path d="M14 23.4998C14 23.7798 13.78 23.9998 13.5 23.9998C13.22 23.9998 13 23.7798 13 23.4998V22.9998V9.49985C13 9.34985 13.07 9.20985 13.18 9.10985C13.3 9.01985 13.45 8.97985 13.6 9.00985L14 9.08985V10.1098V22.9998V23.4998Z" fill="#FFCC00"/>
<path d="M13 23V23.5C13 23.78 13.22 24 13.5 24H9.5C9.78 24 10 23.78 10 23.5V23H13Z" fill="#FFCC00"/>
<path d="M10.5 5C10.78 5 11 5.22 11 5.5C11 5.78 10.78 6.00001 10.5 6.00001H8.5C8.22 6.00001 8 5.78 8 5.5C8 5.22 8.22 5 8.5 5H10.5Z" fill="#FFCC00"/>
<path d="M11 8.5C11 8.78 10.78 9.00001 10.5 9.00001H8.5C8.22 9.00001 8 8.78 8 8.5C8 8.22 8.22 8 8.5 8H10.5C10.78 8 11 8.22 11 8.5Z" fill="#FFCC00"/>
<path d="M10.5 11C10.78 11 11 11.22 11 11.5C11 11.78 10.78 12 10.5 12H8.5C8.22 12 8 11.78 8 11.5C8 11.22 8.22 11 8.5 11H10.5Z" fill="#FFCC00"/>
<path d="M10.5 14C10.78 14 11 14.22 11 14.5C11 14.78 10.78 15 10.5 15H8.5C8.22 15 8 14.78 8 14.5C8 14.22 8.22 14 8.5 14H10.5Z" fill="#FFCC00"/>
<path d="M6 14.5C6 14.78 5.78 15 5.5 15H3.5C3.22 15 3 14.78 3 14.5C3 14.22 3.22 14 3.5 14H5.5C5.78 14 6 14.22 6 14.5Z" fill="#FFCC00"/>
<path d="M5.5 5C5.78 5 6 5.22 6 5.5C6 5.78 5.78 6.00001 5.5 6.00001H3.5C3.22 6.00001 3 5.78 3 5.5C3 5.22 3.22 5 3.5 5H5.5Z" fill="#FFCC00"/>
<path d="M5.5 8C5.78 8 6 8.22 6 8.5C6 8.78 5.78 9.00001 5.5 9.00001H3.5C3.22 9.00001 3 8.78 3 8.5C3 8.22 3.22 8 3.5 8H5.5Z" fill="#FFCC00"/>
<path d="M5.5 11C5.78 11 6 11.22 6 11.5C6 11.78 5.78 12 5.5 12H3.5C3.22 12 3 11.78 3 11.5C3 11.22 3.22 11 3.5 11H5.5Z" fill="#FFCC00"/>
<path d="M9 18.5C9 18.22 8.77 18 8.5 18H5.5C5.22 18 5 18.22 5 18.5V23H4V18.5C4 17.67 4.67 17 5.5 17H8.5C9.33 17 10 17.67 10 18.5V23H9V18.5Z" fill="#FFCC00"/>
<path d="M5 23H9H10V23.5C10 23.78 9.78 24 9.5 24H4.5C4.22 24 4 23.78 4 23.5V23H5Z" fill="#FFCC00"/>
<path d="M1.75 0.200133L12.74 1.87013C13.47 1.99013 14 2.61013 14 3.35013V9.09013L13.6 9.01013C13.45 8.98013 13.3 9.02013 13.18 9.11013C13.07 9.21013 13 9.35013 13 9.50013V3.35013C13 3.10013 12.82 2.89013 12.58 2.85013L1.59 1.19013C1.56 1.18013 1.53 1.18013 1.5 1.18013C1.38 1.18013 1.27 1.22013 1.18 1.30013C1.06 1.40013 1 1.53013 1 1.68013V22.5001C1 22.7801 1.23 23.0001 1.5 23.0001H4V23.5001C4 23.7801 4.22 24.0001 4.5 24.0001H1.5C0.67 24.0001 0 23.3301 0 22.5001V1.68013C0 1.24013 0.19 0.820133 0.53 0.540133C0.87 0.250133 1.31 0.130133 1.75 0.200133Z" fill="#FFCC00"/>
</g>
<defs>
<clipPath id="clip0_330_10889">
<rect width="24" height="24" fill="white"/>
</clipPath>
</defs>
</svg>
