<svg width="14" height="14" viewBox="0 0 14 14" fill="none" xmlns="http://www.w3.org/2000/svg">
<path d="M13.2197 13.4817L12.1106 9.42416C12.0857 9.33291 12.03 9.25307 11.9529 9.19819C10.195 7.94626 10.7713 8.35663 9.26842 7.28645C9.83886 6.70026 10.1677 5.90778 10.1677 5.07823C10.1677 3.42448 10.1787 3.33397 10.1302 3.03226C10.1123 1.30107 8.80021 0 7.06377 0H6.93624C5.19983 0 3.88774 1.30107 3.86983 3.03228C3.82135 3.334 3.83234 3.42442 3.83234 5.07825C3.83234 5.90775 4.16118 6.70023 4.73165 7.28648C2.82984 8.64076 3.94109 7.84941 2.0471 9.19822C1.97004 9.2531 1.91431 9.33294 1.88938 9.42419L0.780342 13.4817C0.709057 13.7426 0.90574 14 1.17598 14H6.58988V9.66555L7.00003 9.39608L7.41019 9.66555V14H12.8241C13.0945 14 13.2909 13.7423 13.2197 13.4817ZM6.73217 1.32896H7.26786C7.49438 1.32896 7.67802 1.5126 7.67802 1.73912C7.67802 1.96563 7.49438 2.14927 7.26786 2.14927H6.73217C6.50566 2.14927 6.32202 1.96563 6.32202 1.73912C6.32202 1.5126 6.50566 1.32896 6.73217 1.32896ZM6.5899 8.68402L5.6877 9.2768L4.48422 8.46973L5.40576 7.81348C5.78244 8.03318 6.18932 8.16463 6.5899 8.2162V8.68402ZM7.00003 7.42219C5.69724 7.42219 4.65265 6.36489 4.65265 5.07825C4.65263 4.78453 4.6523 4.54144 4.65202 4.33789L4.87253 4.65981C4.94898 4.77146 5.07558 4.83818 5.2109 4.83818H8.78913C8.92443 4.83818 9.05103 4.77146 9.12751 4.65981L9.34801 4.33789C9.34774 4.54141 9.34741 4.78453 9.34741 5.07825C9.34741 6.35337 8.31442 7.42219 7.00003 7.42219ZM7.41016 8.68402V8.21617C7.83208 8.16192 8.23572 8.02263 8.59428 7.81345L9.51582 8.4697L8.31234 9.27678L7.41016 8.68402ZM10.4844 12.2525H9.04614C8.81962 12.2525 8.63598 12.0689 8.63598 11.8424C8.63598 11.6159 8.81962 11.4322 9.04614 11.4322H10.4844C10.7109 11.4322 10.8945 11.6159 10.8945 11.8424C10.8945 12.0689 10.7109 12.2525 10.4844 12.2525Z" fill="white"/>
</svg>
