<svg width="24" height="24" viewBox="0 0 24 24" fill="none" xmlns="http://www.w3.org/2000/svg">
<path d="M19.2004 23.6H2.40039V2H13.6004L19.2004 7.6V23.6Z" fill="#FFCC00"/>
<path d="M21.5998 21.1999H4.7998V0.399902H15.9998L21.5998 5.9999V21.1999Z" fill="#EEBD00"/>
<path d="M16 5.9999H21.6L16 0.399902V5.9999Z" fill="#EEBD00"/>
<path d="M7.9998 18.0002H7.1998C6.9789 18.0002 6.7998 17.8211 6.7998 17.6002C6.7998 17.3793 6.9789 17.2002 7.1998 17.2002H7.9998C8.2207 17.2002 8.3998 17.3793 8.3998 17.6002C8.3998 17.8211 8.2207 18.0002 7.9998 18.0002Z" fill="#E9686A"/>
<path d="M19.2002 18.0002H9.6002C9.3793 18.0002 9.2002 17.8211 9.2002 17.6002C9.2002 17.3793 9.3793 17.2002 9.6002 17.2002H19.2002C19.4211 17.2002 19.6002 17.3793 19.6002 17.6002C19.6002 17.8211 19.4211 18.0002 19.2002 18.0002Z" fill="#E9686A"/>
<path d="M7.9998 15.5998H7.1998C6.9789 15.5998 6.7998 15.4207 6.7998 15.1998C6.7998 14.9789 6.9789 14.7998 7.1998 14.7998H7.9998C8.2207 14.7998 8.3998 14.9789 8.3998 15.1998C8.3998 15.4207 8.2207 15.5998 7.9998 15.5998Z" fill="#E9686A"/>
<path d="M19.2002 15.5998H9.6002C9.3793 15.5998 9.2002 15.4207 9.2002 15.1998C9.2002 14.9789 9.3793 14.7998 9.6002 14.7998H19.2002C19.4211 14.7998 19.6002 14.9789 19.6002 15.1998C19.6002 15.4207 19.4211 15.5998 19.2002 15.5998Z" fill="#E9686A"/>
<path d="M7.9998 13.1999H7.1998C6.9789 13.1999 6.7998 13.0208 6.7998 12.7999C6.7998 12.579 6.9789 12.3999 7.1998 12.3999H7.9998C8.2207 12.3999 8.3998 12.579 8.3998 12.7999C8.3998 13.0208 8.2207 13.1999 7.9998 13.1999Z" fill="#E9686A"/>
<path d="M19.2002 13.1999H9.6002C9.3793 13.1999 9.2002 13.0208 9.2002 12.7999C9.2002 12.579 9.3793 12.3999 9.6002 12.3999H19.2002C19.4211 12.3999 19.6002 12.579 19.6002 12.7999C19.6002 13.0208 19.4211 13.1999 19.2002 13.1999Z" fill="#E9686A"/>
<path d="M7.9998 10.8H7.1998C6.9789 10.8 6.7998 10.6209 6.7998 10.4C6.7998 10.1791 6.9789 10 7.1998 10H7.9998C8.2207 10 8.3998 10.1791 8.3998 10.4C8.3998 10.6209 8.2207 10.8 7.9998 10.8Z" fill="#E9686A"/>
<path d="M19.2002 10.8H9.6002C9.3793 10.8 9.2002 10.6209 9.2002 10.4C9.2002 10.1791 9.3793 10 9.6002 10H19.2002C19.4211 10 19.6002 10.1791 19.6002 10.4C19.6002 10.6209 19.4211 10.8 19.2002 10.8Z" fill="#E9686A"/>
<path d="M7.9998 8.4001H7.1998C6.9789 8.4001 6.7998 8.221 6.7998 8.0001C6.7998 7.7792 6.9789 7.6001 7.1998 7.6001H7.9998C8.2207 7.6001 8.3998 7.7792 8.3998 8.0001C8.3998 8.221 8.2207 8.4001 7.9998 8.4001Z" fill="#E9686A"/>
<path d="M19.2002 8.4001H9.6002C9.3793 8.4001 9.2002 8.221 9.2002 8.0001C9.2002 7.7792 9.3793 7.6001 9.6002 7.6001H19.2002C19.4211 7.6001 19.6002 7.7792 19.6002 8.0001C19.6002 8.221 19.4211 8.4001 19.2002 8.4001Z" fill="#E9686A"/>
<path d="M7.2002 4H9.6002V6.4H7.2002V4Z" fill="#E9686A"/>
<path d="M7.1998 18.0002H7.9998C8.2207 18.0002 8.3998 17.8211 8.3998 17.6002C8.3998 17.3793 8.2207 17.2002 7.9998 17.2002H7.1998C6.9789 17.2002 6.7998 17.3793 6.7998 17.6002C6.7998 17.8211 6.9789 18.0002 7.1998 18.0002Z" fill="black"/>
<path d="M19.2002 17.2002H9.6002C9.3793 17.2002 9.2002 17.3793 9.2002 17.6002C9.2002 17.8211 9.3793 18.0002 9.6002 18.0002H19.2002C19.4211 18.0002 19.6002 17.8211 19.6002 17.6002C19.6002 17.3793 19.4211 17.2002 19.2002 17.2002Z" fill="black"/>
<path d="M7.1998 15.5998H7.9998C8.2207 15.5998 8.3998 15.4207 8.3998 15.1998C8.3998 14.9789 8.2207 14.7998 7.9998 14.7998H7.1998C6.9789 14.7998 6.7998 14.9789 6.7998 15.1998C6.7998 15.4207 6.9789 15.5998 7.1998 15.5998Z" fill="black"/>
<path d="M19.2002 14.7998H9.6002C9.3793 14.7998 9.2002 14.9789 9.2002 15.1998C9.2002 15.4207 9.3793 15.5998 9.6002 15.5998H19.2002C19.4211 15.5998 19.6002 15.4207 19.6002 15.1998C19.6002 14.9789 19.4211 14.7998 19.2002 14.7998Z" fill="black"/>
<path d="M7.1998 13.1999H7.9998C8.2207 13.1999 8.3998 13.0208 8.3998 12.7999C8.3998 12.579 8.2207 12.3999 7.9998 12.3999H7.1998C6.9789 12.3999 6.7998 12.579 6.7998 12.7999C6.7998 13.0208 6.9789 13.1999 7.1998 13.1999Z" fill="black"/>
<path d="M19.2002 12.3999H9.6002C9.3793 12.3999 9.2002 12.579 9.2002 12.7999C9.2002 13.0208 9.3793 13.1999 9.6002 13.1999H19.2002C19.4211 13.1999 19.6002 13.0208 19.6002 12.7999C19.6002 12.579 19.4211 12.3999 19.2002 12.3999Z" fill="black"/>
<path d="M7.1998 10.8H7.9998C8.2207 10.8 8.3998 10.6209 8.3998 10.4C8.3998 10.1791 8.2207 10 7.9998 10H7.1998C6.9789 10 6.7998 10.1791 6.7998 10.4C6.7998 10.6209 6.9789 10.8 7.1998 10.8Z" fill="black"/>
<path d="M19.2002 10H9.6002C9.3793 10 9.2002 10.1791 9.2002 10.4C9.2002 10.6209 9.3793 10.8 9.6002 10.8H19.2002C19.4211 10.8 19.6002 10.6209 19.6002 10.4C19.6002 10.1791 19.4211 10 19.2002 10Z" fill="black"/>
<path d="M7.1998 8.4001H7.9998C8.2207 8.4001 8.3998 8.221 8.3998 8.0001C8.3998 7.7792 8.2207 7.6001 7.9998 7.6001H7.1998C6.9789 7.6001 6.7998 7.7792 6.7998 8.0001C6.7998 8.221 6.9789 8.4001 7.1998 8.4001Z" fill="black"/>
<path d="M9.2002 8.0001C9.2002 8.221 9.3793 8.4001 9.6002 8.4001H19.2002C19.4211 8.4001 19.6002 8.221 19.6002 8.0001C19.6002 7.7792 19.4211 7.6001 19.2002 7.6001H9.6002C9.3793 7.6001 9.2002 7.7792 9.2002 8.0001Z" fill="black"/>
<path d="M2.4 24H19.2C19.4209 24 19.6 23.8209 19.6 23.6V21.6H21.6C21.8209 21.6 22 21.4209 22 21.2V6C22 5.9912 21.9956 5.9836 21.9948 5.9748C21.9928 5.93975 21.986 5.90515 21.9744 5.872C21.97 5.8592 21.9668 5.8468 21.9612 5.8344C21.9417 5.7909 21.9146 5.7512 21.8812 5.7172L16.2812 0.1172C16.2472 0.08375 16.2075 0.05665 16.164 0.0372C16.1516 0.0316 16.1392 0.0284 16.1268 0.024C16.0934 0.0125 16.0585 0.0055 16.0232 0.0032C16.0164 0.0044 16.0088 0 16 0H4.8C4.5791 0 4.4 0.1791 4.4 0.4V1.6H2.4C2.1791 1.6 2 1.7791 2 2V23.6C2 23.8209 2.1791 24 2.4 24ZM20.6344 5.6H16.4V1.3656L20.6344 5.6ZM5.2 0.8H15.6V6C15.6 6.2209 15.7791 6.4 16 6.4H21.2V20.8H5.2V0.8ZM2.8 2.4H4.4V21.2C4.4 21.4209 4.5791 21.6 4.8 21.6H18.8V23.2H2.8V2.4Z" fill="black"/>
<path d="M7.1998 6.8001H9.5998C9.8207 6.8001 9.9998 6.621 9.9998 6.4001V4.0001C9.9998 3.7792 9.8207 3.6001 9.5998 3.6001H7.1998C6.9789 3.6001 6.7998 3.7792 6.7998 4.0001V6.4001C6.7998 6.621 6.9789 6.8001 7.1998 6.8001ZM7.5998 4.4001H9.1998V6.0001H7.5998V4.4001Z" fill="black"/>
</svg>
