<svg width="24" height="24" viewBox="0 0 24 24" fill="none" xmlns="http://www.w3.org/2000/svg">
<path d="M16.2262 10.195C15.9517 9.92044 15.5065 9.92039 15.2319 10.195L12.7045 12.7225L12.7044 5.22192C12.7044 4.83361 12.3896 4.5188 12.0013 4.5188C11.613 4.5188 11.2982 4.83361 11.2982 5.22192L11.2982 12.7226L8.77062 10.1951C8.49607 9.92049 8.05085 9.92049 7.77626 10.1951C7.50166 10.4697 7.50166 10.9148 7.77626 11.1894L11.5041 14.9172C11.636 15.0491 11.8148 15.1232 12.0013 15.1232C12.1878 15.1232 12.3666 15.0491 12.4985 14.9172L16.2263 11.1893C16.5008 10.9148 16.5008 10.4696 16.2262 10.195Z" fill="black"/>
<path d="M18.7789 18.075H5.22266C4.83434 18.075 4.51953 18.3898 4.51953 18.7781C4.51953 19.1664 4.83434 19.4812 5.22266 19.4812H18.7789C19.1672 19.4812 19.482 19.1664 19.482 18.7781C19.482 18.3897 19.1672 18.075 18.7789 18.075Z" fill="black"/>
</svg>
