<svg width="90" height="82" viewBox="0 0 90 82" fill="none" xmlns="http://www.w3.org/2000/svg">
<path d="M83.9482 40.2848L77.202 29.4908C76.8849 28.9808 76.2615 28.7447 75.6867 28.9079C75.1079 29.0752 74.7085 29.6041 74.7085 30.2059V34.2536H72.5848C69.5504 20.5493 57.4274 10.4138 43.3183 9.99554C42.9203 9.978 42.5277 9.97396 42.1283 9.97801C41.8665 9.9807 41.6048 9.9834 41.3552 9.9942C41.3417 9.9942 41.3282 9.99555 41.316 9.99689C41.312 9.99689 41.3093 9.99689 41.3053 9.99689C41.3039 9.99689 41.3012 9.99689 41.2999 9.99824C31.4315 10.3086 22.316 15.3278 16.7422 23.4597H9.94472C4.73798 23.4597 0.5 27.6963 0.5 32.9044V39.6506C0.5 44.1153 4.13082 47.7461 8.59548 47.7461H12.0684C15.1029 61.4504 27.2245 71.5859 41.3336 72.0042C41.6669 72.019 41.9961 72.0325 42.3266 72.0325C42.6572 72.0325 42.9864 72.019 43.2981 72.0042C43.3062 72.0042 43.3156 72.0028 43.3237 72.0028C43.3318 72.0028 43.3399 72.0028 43.348 72.0015C43.3548 72.0015 43.3615 71.9988 43.3683 71.9988C57.4665 71.5495 69.5558 61.4275 72.5848 47.7461H74.7085V51.7938C74.7085 52.3956 75.1079 52.9245 75.6867 53.0905C75.8082 53.1255 75.9337 53.1431 76.0578 53.1431C76.5138 53.1431 76.951 52.911 77.202 52.5089L83.9482 41.715C84.2221 41.2778 84.2221 40.7219 83.9482 40.2848ZM40.9774 24.7671C39.4231 24.7239 37.889 24.6295 36.4061 24.4433C37.9119 20.7936 39.6227 17.7591 40.9774 15.6192V24.7671ZM43.6759 15.6192C45.0305 17.7591 46.7414 20.7936 48.2485 24.4433C46.7643 24.6295 45.2302 24.7239 43.6759 24.7671V15.6192ZM45.2208 13.0206C49.6733 14.0757 53.6778 17.527 56.5679 22.5031C54.8314 23.1251 52.9654 23.631 50.9996 24.0075C49.0823 19.1826 46.794 15.3615 45.2208 13.0206ZM39.4366 13.0152C37.8633 15.3548 35.5737 19.1772 33.655 24.0061C31.6892 23.6297 29.8232 23.1224 28.0867 22.499C30.9795 17.5162 34.9881 14.0622 39.4366 13.0152ZM32.716 26.5643C31.9037 28.9511 31.2237 31.5282 30.7717 34.2536H23.9998C24.5598 30.8522 25.5218 27.6869 26.8224 24.8966C28.6655 25.5807 30.6368 26.1447 32.716 26.5643ZM35.4198 27.019C37.2211 27.2726 39.0817 27.4157 40.9774 27.4656V34.2536H33.4972C33.9519 31.6968 34.6278 29.2682 35.4198 27.019ZM43.6759 27.4656C45.5716 27.4157 47.4322 27.2726 49.2334 27.0203C50.0254 29.2695 50.7014 31.6982 51.1548 34.255H43.6759V27.4656ZM53.8816 34.2536C53.4282 31.5295 52.7496 28.9525 51.9373 26.567C54.0165 26.1474 55.9878 25.5834 57.8308 24.9007C59.1315 27.6909 60.0935 30.8535 60.6521 34.2536H53.8816ZM63.383 34.2536C62.8028 30.4555 61.7652 26.9488 60.3472 23.851C61.4441 23.3369 62.4601 22.7635 63.4194 22.1523C66.4593 25.5416 68.7003 29.6649 69.8202 34.255H63.383V34.2536ZM61.4805 20.1891C60.7398 20.6357 59.9626 21.0567 59.1342 21.4425C57.8659 19.1826 56.3763 17.2073 54.7208 15.549C57.194 16.7607 59.4634 18.3352 61.4805 20.1891ZM25.5204 21.4372C24.6785 21.0432 23.8892 20.6141 23.1377 20.1581C25.1831 18.2759 27.4863 16.7067 29.9743 15.5032C28.3039 17.1708 26.7995 19.1583 25.5204 21.4372ZM21.2082 22.1266C22.1756 22.7459 23.2011 23.3247 24.3075 23.8456C22.888 26.9448 21.8505 30.4542 21.2703 34.2536H14.8371C15.1299 33.042 15.4739 31.8452 15.9232 30.6957C16.6275 28.8877 17.5207 27.1553 18.5759 25.5443C19.3692 24.3272 20.2557 23.1925 21.2082 22.1266ZM12.0711 34.2536H9.94472C9.58448 34.2536 9.25256 34.116 8.98271 33.8408C8.73445 33.5966 8.59548 33.2646 8.59548 32.9044C8.59548 32.161 9.19994 31.5551 9.94472 31.5551H12.793C12.511 32.4416 12.2722 33.3402 12.0711 34.2536ZM43.6759 57.2327C45.2302 57.2758 46.7643 57.3703 48.2485 57.5565C46.7427 61.2075 45.0305 64.2406 43.6759 66.3805V57.2327ZM40.9774 66.3805C39.6227 64.2406 37.9119 61.2062 36.4061 57.5565C37.8903 57.3703 39.4244 57.2758 40.9774 57.2327V66.3805ZM39.4325 68.9778C34.9813 67.9227 30.9768 64.4727 28.088 59.4994C29.8245 58.876 31.6892 58.3687 33.655 57.9923C35.571 62.8185 37.8593 66.6396 39.4325 68.9778ZM45.2167 68.9846C46.7899 66.645 49.081 62.8226 50.9996 57.9923C52.9668 58.3687 54.8328 58.8747 56.5693 59.4967C53.6765 64.4822 49.6665 67.9376 45.2167 68.9846ZM51.9387 55.4328C52.7509 53.0473 53.4296 50.4702 53.8829 47.7461H60.6548C60.0962 51.1462 59.1342 54.3102 57.8335 57.0991C55.9891 56.4164 54.0179 55.8537 51.9387 55.4328ZM49.2334 54.9808C47.4322 54.7285 45.5716 54.5854 43.6759 54.5355V47.7461H51.1561C50.7014 50.3029 50.0268 52.7316 49.2334 54.9808ZM40.9774 54.5355C39.0817 54.5854 37.2211 54.7285 35.4198 54.9821C34.6278 52.7329 33.9519 50.3043 33.4972 47.7475H40.9774V54.5355ZM30.7717 47.7461C31.225 50.4716 31.9037 53.0486 32.716 55.4355C30.6368 55.8564 28.6669 56.4191 26.8238 57.1031C25.5231 54.3129 24.5598 51.1476 24.0012 47.7461H30.7717ZM21.2703 47.7461C21.8505 51.5469 22.8894 55.055 24.3088 58.1542C23.2132 58.6683 22.1972 59.2417 21.2393 59.8529C18.1967 56.4636 15.9543 52.3376 14.8344 47.7448H21.2703V47.7461ZM23.1781 61.816C23.9175 61.3694 24.6947 60.9485 25.5218 60.5626C26.7901 62.8212 28.2783 64.7938 29.9338 66.4507C27.4606 65.2404 25.1939 63.6672 23.1781 61.816ZM59.1355 60.5572C59.9626 60.9431 60.7398 61.364 61.4792 61.8093C59.4661 63.6578 57.2034 65.2296 54.7356 66.4399C56.3858 64.7844 57.87 62.8131 59.1355 60.5572ZM63.4181 59.8475C62.4587 59.2363 61.4428 58.6629 60.3472 58.1488C61.7652 55.0496 62.8028 51.5442 63.383 47.7448H69.8202C68.699 52.3362 66.4593 56.4595 63.4181 59.8475ZM77.407 47.089V46.3969C77.407 45.6521 76.8039 45.0476 76.0578 45.0476H8.59548C5.61904 45.0476 3.19849 42.6271 3.19849 39.6506V32.9044C3.19849 29.1845 6.22485 26.1582 9.94472 26.1582H15.1002C14.6212 27.0338 14.1895 27.9351 13.7968 28.8567H9.94472C7.71307 28.8567 5.89699 30.6727 5.89699 32.9044C5.89699 33.9986 6.32335 35.0173 7.07623 35.7486C7.83315 36.5244 8.85048 36.9521 9.94472 36.9521H76.0578C76.8039 36.9521 77.407 36.3477 77.407 35.6029V34.9107L81.2119 40.9999L77.407 47.089Z" fill="#D40511"/>
<path d="M38.7286 0.522461H82.804V3.22095H38.7286V0.522461Z" fill="#D40511"/>
<path d="M33.3317 0.522461H36.0302V3.22095H33.3317V0.522461Z" fill="#D40511"/>
<path d="M55.8191 6.81885H65.2638V9.51734H55.8191V6.81885Z" fill="#D40511"/>
<path d="M68.4121 6.81885H86.4021V9.51734H68.4121V6.81885Z" fill="#D40511"/>
<path d="M66.613 14.0151H69.3115V16.7136H66.613V14.0151Z" fill="#D40511"/>
<path d="M72.01 14.0151H74.7085V16.7136H72.01V14.0151Z" fill="#D40511"/>
<path d="M82.8041 14.0151H89.1006V16.7136H82.8041V14.0151Z" fill="#D40511"/>
<path d="M38.7286 78.7788H76.5075V81.4773H38.7286V78.7788Z" fill="#D40511"/>
<path d="M33.3317 78.7788H36.0302V81.4773H33.3317V78.7788Z" fill="#D40511"/>
<path d="M55.8191 71.583H65.2638V74.2815H55.8191V71.583Z" fill="#D40511"/>
<path d="M72.9095 71.583H90V74.2815H72.9095V71.583Z" fill="#D40511"/>
<path d="M66.613 65.2861H69.3115V67.9846H66.613V65.2861Z" fill="#D40511"/>
<path d="M72.01 65.2861H74.7085V67.9846H72.01V65.2861Z" fill="#D40511"/>
<path d="M77.407 65.2861H82.804V67.9846H77.407V65.2861Z" fill="#D40511"/>
</svg>
