<svg width="75" height="75" viewBox="0 0 75 75" fill="none" xmlns="http://www.w3.org/2000/svg">
<path d="M60.4958 20.8008H49.4099C48.6008 20.8008 47.9451 21.4565 47.9451 22.2656C47.9451 23.0747 48.6008 23.7305 49.4099 23.7305H60.4958C61.3049 23.7305 61.9606 23.0747 61.9606 22.2656C61.9606 21.4565 61.3049 20.8008 60.4958 20.8008Z" fill="#D40511"/>
<path d="M60.4958 14.3555H49.4099C48.6008 14.3555 47.9451 15.0112 47.9451 15.8203C47.9451 16.6294 48.6008 17.2852 49.4099 17.2852H60.4958C61.3049 17.2852 61.9606 16.6294 61.9606 15.8203C61.9606 15.0112 61.3049 14.3555 60.4958 14.3555Z" fill="#D40511"/>
<path d="M60.4958 7.91016H49.4099C48.6008 7.91016 47.9451 8.5659 47.9451 9.375C47.9451 10.1841 48.6008 10.8398 49.4099 10.8398H60.4958C61.3049 10.8398 61.9606 10.1841 61.9606 9.375C61.9606 8.5659 61.3049 7.91016 60.4958 7.91016Z" fill="#D40511"/>
<path d="M54.1814 50.5605C53.7963 50.5605 53.4187 50.7156 53.1446 50.9897C52.8722 51.2621 52.7155 51.6403 52.7155 52.0254C52.7155 52.4105 52.8722 52.7887 53.1446 53.0611C53.4187 53.3335 53.7946 53.4902 54.1814 53.4902C54.5671 53.4902 54.943 53.3335 55.2171 53.0611C55.4895 52.7887 55.6463 52.4105 55.6463 52.0254C55.6463 51.6403 55.4895 51.2621 55.2171 50.9897C54.943 50.7156 54.5671 50.5605 54.1814 50.5605Z" fill="#D40511"/>
<path d="M41.2343 37.9517H20.7264C19.1111 37.9517 17.7968 39.266 17.7968 40.8813V61.3892C17.7968 63.0045 19.1111 64.3189 20.7264 64.3189H41.2343C42.8496 64.3189 44.1639 63.0045 44.1639 61.3892V40.8813C44.1639 39.266 42.8496 37.9517 41.2343 37.9517ZM33.3968 40.8813V45.764H28.5141V40.8813H33.3968ZM41.2343 61.3892H20.7264V40.8813H25.5845V47.2288C25.5845 48.0379 26.2402 48.6937 27.0493 48.6937H34.8616C35.6707 48.6937 36.3265 48.0379 36.3265 47.2288V40.8813H41.2343L41.236 61.3886C41.236 61.3886 41.2354 61.3892 41.2343 61.3892Z" fill="#D40511"/>
<path d="M34.754 6.04005C34.3145 5.79915 33.7824 5.79915 33.3435 6.04005L26.5411 9.7754C26.4822 9.80744 26.4267 9.84349 26.3741 9.8824C26.0044 10.1565 25.7812 10.5919 25.7812 11.0594V18.5301C25.7812 19.0646 26.0725 19.5567 26.5411 19.8142L33.3435 23.5495C33.5632 23.6702 33.8058 23.7303 34.0485 23.7303C34.2854 23.7303 34.5222 23.672 34.7374 23.5569C34.7425 23.5547 34.7477 23.5529 34.7528 23.5501C34.7534 23.5495 34.7534 23.5495 34.754 23.5495L41.5564 19.8142C42.025 19.5567 42.3162 19.0646 42.3162 18.5301V11.0594C42.3162 10.525 42.025 10.0329 41.5564 9.7754L34.754 6.04005ZM34.0508 13.1228L30.2914 11.0583L34.0485 8.99549L37.8078 11.0594L34.0508 13.1228ZM28.7109 13.5354L32.5882 15.664V19.7924L28.7109 17.6632V13.5354ZM35.5179 19.7878V15.6594L39.3866 13.5348V17.6632L35.5179 19.7878Z" fill="#D40511"/>
<path d="M73.5352 35.1797H69.1406V21.6797C69.1406 20.8706 68.4849 20.2148 67.6758 20.2148C66.8667 20.2148 66.2109 20.8706 66.2109 21.6797V62.1094H61.9606V28.5639C61.9606 27.7554 61.3049 27.099 60.4958 27.099H28.3842L19.784 18.532C19.6535 18.4027 19.5013 18.3008 19.3359 18.2287V2.92969H66.2109V9.96094C66.2109 10.77 66.8667 11.4258 67.6758 11.4258C68.4849 11.4258 69.1406 10.77 69.1406 9.96094V1.46484C69.1406 0.655746 68.4849 0 67.6758 0H17.8711C17.062 0 16.4062 0.655746 16.4062 1.46484V18.1051H1.46484C0.655746 18.1051 0 18.7609 0 19.57V68.4757C0 72.0732 2.92683 75 6.52428 75H67.0155C67.0177 75 67.0195 74.9994 67.0212 74.9994C71.4214 74.9966 75 71.4163 75 67.0155V36.6446C75 35.836 74.3443 35.1797 73.5352 35.1797ZM2.92969 68.4757V21.0348H18.1446L26.7454 29.6019C27.0201 29.8754 27.392 30.0287 27.7794 30.0287H52.7161V45.9549C52.7161 46.7634 53.3718 47.4197 54.1809 47.4197C54.99 47.4197 55.6458 46.7634 55.6458 45.9549V30.0287H59.0309V67.0155C59.0309 68.9318 59.7101 70.6924 60.8402 72.0703H6.52428C4.54216 72.0703 2.92969 70.4578 2.92969 68.4757ZM72.0703 67.0155C72.0703 69.8027 69.8027 72.0703 67.0155 72.0703C64.2282 72.0703 61.9606 69.8027 61.9606 67.0155V65.0391H67.6758C68.4849 65.0391 69.1406 64.3833 69.1406 63.5742V38.1094H72.0703V67.0155Z" fill="#D40511"/>
<path d="M67.6758 14.3555C67.2907 14.3555 66.9125 14.5123 66.6401 14.7846C66.3677 15.057 66.2109 15.4352 66.2109 15.8203C66.2109 16.2054 66.3677 16.5836 66.6401 16.856C66.9125 17.1284 67.2907 17.2852 67.6758 17.2852C68.0609 17.2852 68.4391 17.1284 68.7115 16.856C68.9838 16.5836 69.1406 16.2054 69.1406 15.8203C69.1406 15.4352 68.9838 15.057 68.7115 14.7846C68.4391 14.5123 68.0609 14.3555 67.6758 14.3555Z" fill="#D40511"/>
</svg>
