<svg width="24" height="24" viewBox="0 0 24 24" fill="none" xmlns="http://www.w3.org/2000/svg">
<g opacity="0.6">
<path d="M7.77335 2.43881L8.84935 2.09481C9.85935 1.77281 10.9364 2.29381 11.3694 3.31181L12.2284 5.33981C12.6024 6.22281 12.3954 7.26181 11.7144 7.90781L9.82035 9.70581C9.93635 10.7818 10.2984 11.8408 10.9044 12.8828C11.4801 13.891 12.2524 14.7734 13.1754 15.4778L15.4504 14.7178C16.3134 14.4308 17.2524 14.7618 17.7804 15.5388L19.0134 17.3488C19.6284 18.2528 19.5184 19.4988 18.7554 20.2648L17.9374 21.0858C17.1234 21.9028 15.9604 22.1998 14.8854 21.8638C12.3464 21.0718 10.0124 18.7208 7.88235 14.8108C5.74935 10.8948 4.99635 7.57081 5.62435 4.84281C5.88835 3.69481 6.70535 2.77981 7.77335 2.43881Z" fill="black"/>
</g>
</svg>
