<svg width="67" height="67" viewBox="0 0 67 67" fill="none" xmlns="http://www.w3.org/2000/svg">
<path d="M37.0838 8.56152H34.8193L38.4426 28.4892L47.5006 27.5834L37.0838 8.56152Z" fill="#FFCC00" stroke="black" stroke-width="0.1"/>
<path d="M35.2722 54.7573L37.9896 34.8296L47.5006 35.7354L37.0839 54.7573H35.2722Z" fill="#FFCC00"/>
<path d="M17.1561 38.4528V24.8657H19.8735L21.6851 28.4889L22.138 33.9238L20.3264 38.4528L17.1561 38.4528Z" fill="#FFCC00" stroke="black" stroke-width="0.1"/>
<path d="M48.4063 28.0362C46.5947 27.6739 27.4219 29.3949 18.0619 30.3007C17.5878 30.3007 17.2271 30.7265 17.305 31.1942L17.609 33.0181L49.3122 35.2826L56.1057 34.8297L58.8231 33.471L59.7289 31.6594L59.276 30.3007L57.4644 28.942C55.1999 28.64 50.218 28.3985 48.4063 28.0362Z" fill="#FFCC00" stroke="black" stroke-width="0.1"/>
<path d="M31.8458 54.3087L24.1105 54.3087C23.7805 54.3089 23.4969 54.5705 23.4714 54.8996C23.443 55.2671 23.7418 55.5908 24.1105 55.5908L31.8458 55.5908C32.2 55.5908 32.4868 55.3039 32.4868 54.9498C32.4868 54.596 32.1997 54.3089 31.8458 54.3087Z" fill="black"/>
<path d="M31.8457 51.7233C32.1996 51.7235 32.4867 51.4364 32.4865 51.0824C32.4867 50.7285 32.1996 50.4414 31.8457 50.4416L27.0112 50.4414C26.6812 50.4416 26.3976 50.7032 26.372 51.0322C26.3436 51.3998 26.6425 51.7235 27.0112 51.7235L31.8457 51.7233Z" fill="black"/>
<path d="M32.8126 47.8559C33.1668 47.8559 33.4539 47.5688 33.4537 47.2148C33.4537 46.8606 33.1668 46.5738 32.8126 46.5738L29.4284 46.5738C29.0986 46.5738 28.8148 46.8355 28.7895 47.1648C28.7609 47.5322 29.0597 47.8559 29.4284 47.8559L32.8126 47.8559Z" fill="black"/>
<path d="M32.2452 8.78C32.245 8.42605 31.9579 8.13895 31.6041 8.13895L23.8686 8.13919C23.5147 8.13896 23.2276 8.42606 23.2278 8.78001C23.2278 9.12903 23.5196 9.42082 23.8689 9.42105L31.6041 9.42105C31.9581 9.42082 32.245 9.13395 32.2452 8.78Z" fill="black"/>
<path d="M32.2449 12.6475C32.2449 12.2933 31.958 12.0064 31.604 12.0066L26.7693 12.0066C26.4393 12.0064 26.156 12.2682 26.1304 12.5973C26.102 12.9648 26.4006 13.2883 26.7693 13.2883L31.6038 13.2885C31.958 13.2885 32.2451 13.0014 32.2449 12.6475Z" fill="black"/>
<path d="M28.5458 16.5149C28.546 16.8642 28.8375 17.1558 29.1868 17.156L32.571 17.156C32.925 17.1558 33.2118 16.8689 33.2121 16.5149C33.2118 16.161 32.925 15.8741 32.571 15.8739L29.1868 15.8739C28.8329 15.8741 28.546 16.161 28.5458 16.5149Z" fill="black"/>
<path d="M42.7082 49.5777L42.7081 49.5777L41.0088 49.5775L37.8903 55.3426L37.8903 55.3427C37.7607 55.5817 37.5105 55.7312 37.2384 55.7309H34.9309C34.4823 55.7312 34.13 55.3199 34.1988 54.8767L36.4622 40.2507C36.5246 39.8461 36.9032 39.569 37.3079 39.6316L37.308 39.6316C37.7122 39.6942 37.9894 40.0728 37.9267 40.4771L35.7953 54.2488L36.7968 54.249L46.7559 35.8393C44.2053 35.7679 41.4563 35.641 38.6993 35.485L38.3654 37.6427L38.2665 37.6274L38.3654 37.6427C38.3092 38.0057 37.9838 38.2794 37.6154 38.2699C37.1741 38.2585 36.8332 37.8531 36.9009 37.4158L36.9009 37.4157L37.2134 35.3982C31.8585 35.076 26.6018 34.6607 22.8409 34.3411L20.8228 38.8815L42.7082 49.5777ZM42.7082 49.5777C43.8707 49.5775 44.8164 48.6318 44.8167 47.4692V47.4692M42.7082 49.5777L44.8167 47.4692M44.8167 47.4692C44.8164 46.9062 44.5971 46.3765 44.1989 45.9782C43.9326 45.712 43.6072 45.5254 43.2521 45.4313L43.5981 44.7918L45.4429 44.7916C46.6056 44.7916 47.5514 43.8459 47.5511 42.6833C47.5514 41.662 46.8212 40.8102 45.8561 40.6174L48.4198 35.8785C49.2831 35.8945 50.117 35.9034 50.9125 35.9034L50.9125 35.8034L50.9125 35.9034C53.2638 35.9032 55.4682 35.615 57.1202 35.0886L57.0898 34.9933M44.8167 47.4692L57.0898 34.9933M57.0898 34.9933L57.1202 35.0886C58.517 34.6433 59.3734 34.0714 59.8808 33.4753C60.3896 32.8776 60.5417 32.2622 60.5417 31.7437M57.0898 34.9933L57.0896 28.4944M57.0896 28.4944L57.12 28.3991C58.5169 28.8445 59.3734 29.4164 59.8809 30.0124C60.3897 30.6101 60.5418 31.2254 60.5417 31.7437M57.0896 28.4944L57.12 28.3991C55.4685 27.8727 53.2638 27.5842 50.9125 27.5844C50.117 27.5844 49.2831 27.593 48.42 27.6091L45.8561 22.87M57.0896 28.4944L45.8561 22.87M60.5417 31.7437L60.4417 31.7437L60.5417 31.7437C60.5417 31.7437 60.5417 31.7437 60.5417 31.7437ZM45.8561 22.87C46.821 22.6774 47.5511 21.8256 47.5514 20.8044L47.5514 20.8044C47.5511 19.6418 46.6057 18.6958 45.4431 18.6961L43.5981 18.6961L43.2519 18.0563C43.6071 17.962 43.9326 17.7755 44.1989 17.5092C44.5969 17.1111 44.8164 16.5812 44.8164 16.0185C44.8167 14.8559 43.8707 13.9099 42.7081 13.9102C42.7081 13.9102 42.7081 13.9102 42.7081 13.9102H41.009L37.8903 8.1453L37.8902 8.1452C37.7605 7.90598 37.5106 7.75676 37.2385 7.75699L45.8561 22.87ZM37.2384 7.75699L34.9309 7.75699L37.2384 7.75699ZM34.1988 8.61118L37.2132 28.0894C31.8587 28.4116 26.6018 28.8272 22.8409 29.1468L20.8228 24.6058L20.8228 24.6058C20.7038 24.3382 20.4386 24.1658 20.1457 24.1658L17.4108 24.1658L17.4107 24.1658C17.0016 24.166 16.67 24.4976 16.67 24.9066L16.67 38.5808C16.6697 38.9854 17.0063 39.3219 17.411 39.3219H20.1455C20.4383 39.3219 20.704 39.1495 20.8228 38.8816L34.1988 8.61118ZM45.4431 20.1782L45.4431 20.1782C45.7838 20.1782 46.0695 20.4639 46.0695 20.8046C46.0695 21.15 45.7885 21.431 45.4431 21.431L45.0777 21.431L44.3999 20.178L45.4431 20.1782ZM42.7081 15.3923L42.7082 15.3923C43.0533 15.3921 43.3346 15.6733 43.3346 16.0187C43.3346 16.3641 43.0535 16.6451 42.7081 16.6451L42.4884 16.6449L41.8106 15.3923L42.7081 15.3923ZM50.9128 29.0663L50.9128 28.9663L50.9128 29.0663C53.0897 29.0661 55.1883 29.3389 56.6699 29.8112L56.6699 29.8112C57.2271 29.9888 57.8309 30.235 58.2933 30.5602C58.7574 30.8865 59.0598 31.278 59.0598 31.7439C59.0598 32.2099 58.7573 32.6013 58.2932 32.9276C57.8308 33.2528 57.227 33.499 56.6699 33.6767C55.1883 34.149 53.0897 34.4214 50.9125 34.4214C40.0065 34.4214 21.8556 32.7824 18.1518 32.437L18.1518 31.0509C21.8554 30.7052 40.0058 29.0663 50.9128 29.0663ZM45.443 42.0569H45.4431C45.7882 42.0566 46.0693 42.338 46.0695 42.6833C46.0695 43.024 45.7838 43.3097 45.4431 43.3097L44.3996 43.3097L45.0774 42.0566L45.443 42.0569ZM36.7968 9.23884L46.7562 27.6483C44.2053 27.72 41.4563 27.8469 38.6991 28.0026L35.7953 9.23864L36.7968 9.23884ZM18.1518 25.6476L19.6642 25.6478L21.2791 29.2814C19.9064 29.4012 18.8304 29.4994 18.1518 29.5624L18.1518 25.6476ZM21.2791 34.2065L19.6642 37.84L18.1521 37.84V33.9253C18.8303 33.9883 19.9064 34.0867 21.2791 34.2065ZM42.7081 46.8428C43.0535 46.8428 43.3346 47.1238 43.3346 47.4692C43.3346 47.8146 43.0535 48.0956 42.7081 48.0956L41.8105 48.0956L42.4881 46.8428L42.7081 46.8428Z" fill="black" stroke="black" stroke-width="0.2"/>
<path d="M11.867 51.367V51.4583H8.21484V47.8062H11.867V51.367Z" fill="#FFCC00"/>
<path d="M20.0842 66.067H0.910278V47.8062H8.21463V51.4583H11.8668V51.367V47.8062H20.0842V66.067Z" fill="#FFCC00"/>
<path d="M20.087 66.9826H0.913043C0.40813 66.9826 0 66.5745 0 66.0695V47.8105C0 47.3056 0.40813 46.8975 0.913043 46.8975H20.087C20.5919 46.8975 21 47.3056 21 47.8105V66.0695C21 66.5745 20.5919 66.9826 20.087 66.9826ZM1.82609 65.1565H19.1739V48.7235H1.82609V65.1565Z" fill="black"/>
<path d="M8.21761 52.3739C7.7127 52.3739 7.30457 51.9658 7.30457 51.4609V47.8105C7.30457 47.3056 7.7127 46.8975 8.21761 46.8975C8.72252 46.8975 9.13065 47.3056 9.13065 47.8105V51.4609C9.13065 51.9658 8.72252 52.3739 8.21761 52.3739Z" fill="black"/>
<path d="M11.8698 52.3739H8.21761C7.7127 52.3739 7.30457 51.9658 7.30457 51.4609C7.30457 50.956 7.7127 50.5479 8.21761 50.5479H11.8698C12.3747 50.5479 12.7828 50.956 12.7828 51.4609C12.7828 51.9658 12.3747 52.3739 11.8698 52.3739Z" fill="black"/>
<path d="M11.8695 52.2826C11.3646 52.2826 10.9564 51.8745 10.9564 51.3695V47.8105C10.9564 47.3056 11.3646 46.8975 11.8695 46.8975C12.3744 46.8975 12.7825 47.3056 12.7825 47.8105V51.3695C12.7825 51.8745 12.3744 52.2826 11.8695 52.2826Z" fill="black"/>
<path d="M9.13227 61.5043H3.65218C3.14727 61.5043 2.73914 61.0962 2.73914 60.5913C2.73914 60.0864 3.14727 59.6782 3.65218 59.6782H9.13227C9.63718 59.6782 10.0453 60.0864 10.0453 60.5913C10.0453 61.0962 9.63718 61.5043 9.13227 61.5043Z" fill="black"/>
<path d="M6.39131 64.2436H3.65218C3.14727 64.2436 2.73914 63.8354 2.73914 63.3305C2.73914 62.8256 3.14727 62.4175 3.65218 62.4175H6.39131C6.89623 62.4175 7.30436 62.8256 7.30436 63.3305C7.30436 63.8354 6.89623 64.2436 6.39131 64.2436Z" fill="black"/>
</svg>
