<svg width="89" height="89" viewBox="0 0 89 89" fill="none" xmlns="http://www.w3.org/2000/svg">
<path d="M84.8281 72.3125H83.4375V29.2031C83.4375 28.8343 83.291 28.4806 83.0302 28.2198C82.7694 27.959 82.4157 27.8125 82.0469 27.8125H31.9844C31.6156 27.8125 31.2618 27.959 31.0011 28.2198C30.7403 28.4806 30.5938 28.8343 30.5938 29.2031V72.3125H4.17188C3.80306 72.3125 3.44935 72.459 3.18855 72.7198C2.92776 72.9806 2.78125 73.3343 2.78125 73.7031V79.2656C2.78125 79.6344 2.92776 79.9882 3.18855 80.2489C3.44935 80.5097 3.80306 80.6562 4.17188 80.6562H8.34375V84.8281C8.34375 85.1969 8.49026 85.5507 8.75105 85.8114C9.01185 86.0722 9.36556 86.2188 9.73438 86.2188H18.0781C18.4469 86.2188 18.8007 86.0722 19.0614 85.8114C19.3222 85.5507 19.4688 85.1969 19.4688 84.8281V80.6562H38.9375V84.8281C38.9375 85.1969 39.084 85.5507 39.3448 85.8114C39.6056 86.0722 39.9593 86.2188 40.3281 86.2188H48.6719C49.0407 86.2188 49.3944 86.0722 49.6552 85.8114C49.916 85.5507 50.0625 85.1969 50.0625 84.8281V80.6562H69.5312V84.8281C69.5312 85.1969 69.6778 85.5507 69.9386 85.8114C70.1993 86.0722 70.5531 86.2188 70.9219 86.2188H79.2656C79.6344 86.2188 79.9882 86.0722 80.2489 85.8114C80.5097 85.5507 80.6562 85.1969 80.6562 84.8281V80.6562H84.8281C85.1969 80.6562 85.5507 80.5097 85.8114 80.2489C86.0722 79.9882 86.2188 79.6344 86.2188 79.2656V73.7031C86.2188 73.3343 86.0722 72.9806 85.8114 72.7198C85.5507 72.459 85.1969 72.3125 84.8281 72.3125ZM58.4062 52.8438H63.9688V59.7969C63.9688 60.1657 64.1153 60.5194 64.3761 60.7802C64.6368 61.041 64.9906 61.1875 65.3594 61.1875H73.7031C74.0719 61.1875 74.4257 61.041 74.6864 60.7802C74.9472 60.5194 75.0938 60.1657 75.0938 59.7969V52.8438H80.6562V72.3125H58.4062V52.8438ZM66.75 52.8438H72.3125V58.4062H66.75V52.8438ZM80.6562 50.0625H58.4062V30.5938H63.9688V37.5469C63.9688 37.9157 64.1153 38.2694 64.3761 38.5302C64.6368 38.791 64.9906 38.9375 65.3594 38.9375H73.7031C74.0719 38.9375 74.4257 38.791 74.6864 38.5302C74.9472 38.2694 75.0938 37.9157 75.0938 37.5469V30.5938H80.6562V50.0625ZM66.75 30.5938H72.3125V36.1562H66.75V30.5938ZM41.7188 30.5938H47.2812V36.1562H41.7188V30.5938ZM33.375 30.5938H38.9375V37.5469C38.9375 37.9157 39.084 38.2694 39.3448 38.5302C39.6056 38.791 39.9593 38.9375 40.3281 38.9375H48.6719C49.0407 38.9375 49.3944 38.791 49.6552 38.5302C49.916 38.2694 50.0625 37.9157 50.0625 37.5469V30.5938H55.625V50.0625H33.375V30.5938ZM41.7188 52.8438H47.2812V58.4062H41.7188V52.8438ZM33.375 52.8438H38.9375V59.7969C38.9375 60.1657 39.084 60.5194 39.3448 60.7802C39.6056 61.041 39.9593 61.1875 40.3281 61.1875H48.6719C49.0407 61.1875 49.3944 61.041 49.6552 60.7802C49.916 60.5194 50.0625 60.1657 50.0625 59.7969V52.8438H55.625V72.3125H33.375V52.8438ZM16.6875 83.4375H11.125V80.6562H16.6875V83.4375ZM47.2812 83.4375H41.7188V80.6562H47.2812V83.4375ZM77.875 83.4375H72.3125V80.6562H77.875V83.4375ZM83.4375 77.875H5.5625V75.0938H83.4375V77.875Z" fill="#D40511"/>
<path d="M75.0938 66.75H77.875V69.5312H75.0938V66.75Z" fill="#D40511"/>
<path d="M50.0625 66.75H52.8438V69.5312H50.0625V66.75Z" fill="#D40511"/>
<path d="M75.0938 44.5H77.875V47.2812H75.0938V44.5Z" fill="#D40511"/>
<path d="M50.0625 44.5H52.8438V47.2812H50.0625V44.5Z" fill="#D40511"/>
<path d="M3.25615 58.0622L14.3811 67.7966C14.6346 68.0184 14.96 68.1407 15.2969 68.1407C15.6337 68.1407 15.9591 68.0184 16.2126 67.7966L27.3376 58.0622C27.4868 57.9317 27.6063 57.7708 27.6882 57.5903C27.7701 57.4098 27.8125 57.2138 27.8125 57.0156V52.8437C27.8125 52.4749 27.666 52.1212 27.4052 51.8604C27.1444 51.5996 26.7907 51.4531 26.4219 51.4531H22.25V8.34375H19.4688V52.8437C19.4688 53.2126 19.6153 53.5663 19.8761 53.8271C20.1368 54.0879 20.4906 54.2344 20.8594 54.2344H25.0312V56.3846L15.2969 64.9022L5.5625 56.3846V54.2344H9.73438C10.1032 54.2344 10.4569 54.0879 10.7177 53.8271C10.9785 53.5663 11.125 53.2126 11.125 52.8437V8.34375H8.34375V51.4531H4.17188C3.80306 51.4531 3.44935 51.5996 3.18855 51.8604C2.92776 52.1212 2.78125 52.4749 2.78125 52.8437V57.0156C2.78124 57.2138 2.82361 57.4098 2.90552 57.5903C2.98742 57.7708 3.10697 57.9317 3.25615 58.0622Z" fill="#D40511"/>
<path d="M19.4688 2.78125H22.25V5.5625H19.4688V2.78125Z" fill="#D40511"/>
<path d="M8.34375 2.78125H11.125V5.5625H8.34375V2.78125Z" fill="#D40511"/>
<path d="M32.4593 14.9529L43.5843 24.6872C43.8378 24.9091 44.1632 25.0313 44.5 25.0313C44.8368 25.0313 45.1622 24.9091 45.4157 24.6872L56.5407 14.9529C56.6899 14.8223 56.8095 14.6614 56.8914 14.4809C56.9733 14.3004 57.0156 14.1045 57.0156 13.9062V9.73438C57.0156 9.36556 56.8691 9.01185 56.6083 8.75105C56.3475 8.49026 55.9938 8.34375 55.625 8.34375H51.4531V2.78125H48.6719V9.73438C48.6719 10.1032 48.8184 10.4569 49.0792 10.7177C49.34 10.9785 49.6937 11.125 50.0625 11.125H54.2344V13.2753L44.5 21.7928L34.7656 13.2753V11.125H38.9375C39.3063 11.125 39.66 10.9785 39.9208 10.7177C40.1816 10.4569 40.3281 10.1032 40.3281 9.73438V2.78125H37.5469V8.34375H33.375C33.0062 8.34375 32.6525 8.49026 32.3917 8.75105C32.1309 9.01185 31.9844 9.36556 31.9844 9.73438V13.9062C31.9844 14.1045 32.0267 14.3004 32.1086 14.4809C32.1905 14.6614 32.3101 14.8223 32.4593 14.9529Z" fill="#D40511"/>
<path d="M84.8281 8.34375H80.6562V2.78125H77.875V9.73438C77.875 10.1032 78.0215 10.4569 78.2823 10.7177C78.5431 10.9785 78.8968 11.125 79.2656 11.125H83.4375V13.2753L73.7031 21.7928L63.9688 13.2753V11.125H68.1406C68.5094 11.125 68.8632 10.9785 69.1239 10.7177C69.3847 10.4569 69.5312 10.1032 69.5312 9.73438V2.78125H66.75V8.34375H62.5781C62.2093 8.34375 61.8556 8.49026 61.5948 8.75105C61.334 9.01185 61.1875 9.36556 61.1875 9.73438V13.9062C61.1875 14.1045 61.2299 14.3004 61.3118 14.4809C61.3937 14.6614 61.5132 14.8223 61.6624 14.9529L72.7874 24.6872C73.0409 24.9091 73.3663 25.0313 73.7031 25.0313C74.04 25.0313 74.3654 24.9091 74.6189 24.6872L85.7439 14.9529C85.893 14.8223 86.0126 14.6614 86.0945 14.4809C86.1764 14.3004 86.2188 14.1045 86.2188 13.9062V9.73438C86.2188 9.36556 86.0722 9.01185 85.8114 8.75105C85.5507 8.49026 85.1969 8.34375 84.8281 8.34375Z" fill="#D40511"/>
</svg>
