<svg width="24" height="24" viewBox="0 0 24 24" fill="none" xmlns="http://www.w3.org/2000/svg">
<path d="M15.7713 3H8.22872C5.34559 3 3 5.34559 3 8.22872V15.7713C3 18.6544 5.34559 21 8.22872 21H15.7713C18.6544 21 21 18.6544 21 15.7713V8.22872C21 5.34559 18.6544 3 15.7713 3ZM19.5938 15.7713C19.5938 17.879 17.879 19.5938 15.7713 19.5938H8.22872C6.121 19.5938 4.40625 17.879 4.40625 15.7713V8.22872C4.40625 6.121 6.121 4.40625 8.22872 4.40625H15.7713C17.879 4.40625 19.5938 6.121 19.5938 8.22872V15.7713Z" fill="#8C8C8C"/>
<path d="M12 7.14844C9.32482 7.14844 7.14844 9.32482 7.14844 12C7.14844 14.6752 9.32482 16.8516 12 16.8516C14.6752 16.8516 16.8516 14.6752 16.8516 12C16.8516 9.32482 14.6752 7.14844 12 7.14844ZM12 15.4453C10.1003 15.4453 8.55469 13.8997 8.55469 12C8.55469 10.1003 10.1003 8.55469 12 8.55469C13.8997 8.55469 15.4453 10.1003 15.4453 12C15.4453 13.8997 13.8997 15.4453 12 15.4453Z" fill="#8C8C8C"/>
<path d="M16.9219 7.78125C17.3102 7.78125 17.625 7.46645 17.625 7.07812C17.625 6.6898 17.3102 6.375 16.9219 6.375C16.5335 6.375 16.2188 6.6898 16.2188 7.07812C16.2188 7.46645 16.5335 7.78125 16.9219 7.78125Z" fill="#8C8C8C"/>
</svg>
