<svg width="763" height="2" viewBox="0 0 763 2" fill="none" xmlns="http://www.w3.org/2000/svg">
<rect x="17" width="15" height="2" rx="1" fill="#FFCC00"/>
<rect x="38" width="15" height="2" rx="1" fill="#FFCC00"/>
<rect x="59" width="15" height="2" rx="1" fill="#FFCC00"/>
<rect x="80" width="15" height="2" rx="1" fill="#FFCC00"/>
<rect x="101" width="15" height="2" rx="1" fill="#FFCC00"/>
<rect x="122" width="15" height="2" rx="1" fill="#FFCC00"/>
<rect x="143" width="15" height="2" rx="1" fill="#FFCC00"/>
<rect x="164" width="15" height="2" rx="1" fill="#FFCC00"/>
<rect x="185" width="15" height="2" rx="1" fill="#FFCC00"/>
<rect x="206" width="15" height="2" rx="1" fill="#FFCC00"/>
<rect x="227" width="15" height="2" rx="1" fill="#FFCC00"/>
<rect x="248" width="15" height="2" rx="1" fill="#FFCC00"/>
<rect x="269" width="15" height="2" rx="1" fill="#FFCC00"/>
<rect x="290" width="15" height="2" rx="1" fill="#FFCC00"/>
<rect x="311" width="15" height="2" rx="1" fill="#FFCC00"/>
<rect x="332" width="15" height="2" rx="1" fill="#FFCC00"/>
<rect x="416" width="15" height="2" rx="1" fill="#FFCC00"/>
<rect x="437" width="15" height="2" rx="1" fill="#FFCC00"/>
<rect x="458" width="15" height="2" rx="1" fill="#FFCC00"/>
<rect x="479" width="15" height="2" rx="1" fill="#FFCC00"/>
<rect x="500" width="15" height="2" rx="1" fill="#FFCC00"/>
<rect x="521" width="15" height="2" rx="1" fill="#FFCC00"/>
<rect x="542" width="15" height="2" rx="1" fill="#FFCC00"/>
<rect x="563" width="15" height="2" rx="1" fill="#FFCC00"/>
<rect x="584" width="15" height="2" rx="1" fill="#FFCC00"/>
<rect x="605" width="15" height="2" rx="1" fill="#FFCC00"/>
<rect x="626" width="15" height="2" rx="1" fill="#FFCC00"/>
<rect x="647" width="15" height="2" rx="1" fill="#FFCC00"/>
<rect x="668" width="15" height="2" rx="1" fill="#FFCC00"/>
<rect x="689" width="15" height="2" rx="1" fill="#FFCC00"/>
<rect x="710" width="15" height="2" rx="1" fill="#FFCC00"/>
<rect x="731" width="15" height="2" rx="1" fill="#FFCC00"/>
<rect x="752" width="11" height="2" rx="1" fill="#FFCC00"/>
<rect width="11" height="2" rx="1" fill="#FFCC00"/>
</svg>
