<svg width="24" height="24" viewBox="0 0 24 24" fill="none" xmlns="http://www.w3.org/2000/svg">
<path d="M20.9954 21V20.9993H21V14.569C21 11.4232 20.2828 9 16.3883 9C14.5161 9 13.2597 9.97017 12.7468 10.8899H12.6926V9.29368H9V20.9993H12.845V15.2031C12.845 13.677 13.1514 12.2013 15.1528 12.2013C17.1248 12.2013 17.1542 13.9429 17.1542 15.301V21H20.9954Z" fill="#8C8C8C"/>
<path d="M3 9H7V21H3V9Z" fill="#8C8C8C"/>
<path d="M5 3C3.89591 3 3 3.89173 3 4.99068C3 6.08962 3.89591 7 5 7C6.10409 7 7 6.08962 7 4.99068C6.99931 3.89173 6.1034 3 5 3V3Z" fill="#8C8C8C"/>
</svg>
