<svg width="348" height="116" viewBox="0 0 348 116" fill="none" xmlns="http://www.w3.org/2000/svg">
<rect width="348" height="116" fill="white"/>
<rect width="112" height="16" transform="translate(118 50)" fill="white"/>
<path fill-rule="evenodd" clip-rule="evenodd" d="M62.1412 49.6971L72.2092 37C72.2092 37 116.796 37 129.962 37.1049C144.566 37.1049 148.328 47.9132 144.234 53.0551L137.596 61.4499H115.247C111.043 61.4499 112.37 59.7709 113.034 58.9314C113.89 57.8705 115.058 56.3643 116.144 54.9645L116.145 54.9635C116.884 54.0099 117.586 53.1057 118.124 52.4255C119.562 50.6416 119.562 49.6971 116.796 49.6971H62.1412ZM78.1822 52.8453L58.0462 78.3445C58.0462 78.3445 94.0033 78.3445 107.058 78.4495C123.212 78.4495 132.284 68.1658 135.05 64.598H101.637C97.6282 64.598 98.6493 63.1668 99.3284 62.215L99.3289 62.2143C99.3618 62.1682 99.3938 62.1232 99.4245 62.0796C100.28 61.0183 101.449 59.5113 102.535 58.111L102.536 58.1105C103.275 57.1573 103.976 56.2536 104.514 55.5736C105.952 53.7897 105.952 52.8453 103.186 52.8453H78.1822ZM295.027 64.493H330.652V67.4312H292.703L295.027 64.493ZM17 64.4931H63.6889L61.3655 67.4313H17V64.4931ZM59.3741 69.9496H17V72.8878H57.0507L59.3741 69.9496ZM17 75.4063H55.0592L52.8465 78.3445H17V75.4063ZM330.653 78.3445H284.075L286.398 75.4063H330.653V78.3445ZM288.39 72.8878H330.653V69.9496H290.713L288.39 72.8878ZM173.328 64.493L162.375 78.3445H133.609L144.562 64.493H173.328ZM203.98 78.3445L214.933 64.4931H186.167L175.214 78.3445H203.98ZM224.332 64.493C224.332 64.493 222.23 67.2214 221.234 68.4806C217.583 72.9928 220.792 78.3445 232.63 78.3445H278.876L289.829 64.493H224.332ZM217.471 61.3449H146.996L166.246 37H195.012L184.059 50.9564H196.893L207.957 37H236.722L217.471 61.3449ZM257.301 61.3449L276.552 37H246.016L226.766 61.3449H257.301Z" fill="#D40511"/>
</svg>
