<svg width="24" height="24" viewBox="0 0 24 24" fill="none" xmlns="http://www.w3.org/2000/svg">
<path d="M12.3461 0C7.74402 0 4 3.74402 4 8.34602C4 14.0572 11.4689 22.4417 11.7869 22.7958C12.0856 23.1285 12.6071 23.1279 12.9052 22.7958C13.2232 22.4417 20.6921 14.0572 20.6921 8.34602C20.692 3.74402 16.9481 0 12.3461 0ZM12.3461 13.1853C10.0307 13.1853 7.43215 11.2025 7.50685 8.34602C7.43215 5.6622 10.0307 3.50681 12.3461 3.50681C14.6614 3.50681 17.1852 6.03066 17.1852 8.34607C17.1852 10.6615 14.5867 13.1853 12.3461 13.1853Z" fill="#FFCC00"/>
<circle cx="12" cy="8.5" r="1.5" fill="#FFCC00"/>
</svg>
