<svg width="36" height="36" viewBox="0 0 36 36" fill="none" xmlns="http://www.w3.org/2000/svg">
<path d="M17.9998 0C10.8106 0 4.96191 5.84873 4.96191 13.0378C4.96191 21.9596 16.6295 35.0573 17.1263 35.6105C17.5929 36.1302 18.4075 36.1293 18.8732 35.6105C19.37 35.0573 31.0376 21.9596 31.0376 13.0378C31.0374 5.84873 25.1888 0 17.9998 0ZM17.9998 20.5974C14.3827 20.5974 10.3235 17.5 10.4402 13.0378C10.3235 8.84522 14.3828 5.47817 17.9998 5.47817C21.6167 5.47817 25.5593 9.42082 25.5593 13.0378C25.5593 16.6549 21.5 20.5974 17.9998 20.5974Z" fill="#D2D2D2"/>
<path d="M19.1133 15.3887H16.2881L15.751 17H14.0376L16.9487 9.17969H18.4419L21.3691 17H19.6558L19.1133 15.3887ZM16.7231 14.0835H18.6782L17.6953 11.1562L16.7231 14.0835Z" fill="#D2D2D2"/>
</svg>
