<svg width="24" height="24" viewBox="0 0 24 24" fill="none" xmlns="http://www.w3.org/2000/svg">
<path d="M11.79 23.4063L11.7899 23.4063C11.6314 23.2298 9.62174 20.9747 7.65469 18.0305C6.67116 16.5584 5.70499 14.9239 4.98618 13.2984C4.26463 11.6666 3.80835 10.0793 3.80835 8.69184C3.80835 4.1753 7.48365 0.5 12.0002 0.5C16.5168 0.5 20.192 4.1753 20.1921 8.69184C20.1921 10.0793 19.7358 11.6666 19.0143 13.2984C18.2955 14.9239 17.3293 16.5584 16.3458 18.0305C14.3787 20.9747 12.3691 23.2298 12.2105 23.4063L12.2105 23.4063C12.0985 23.5311 11.9021 23.5312 11.79 23.4063ZM6.46035 8.69222C6.38227 11.993 9.36637 14.2316 12.0002 14.2316C13.3413 14.2316 14.7204 13.4876 15.7469 12.4713C16.7741 11.4544 17.5399 10.0742 17.5399 8.69189C17.5399 7.31407 16.7979 5.93424 15.7779 4.9142C14.7579 3.89416 13.378 3.15211 12.0002 3.15211C10.6477 3.15211 9.25006 3.77628 8.20443 4.7596C7.15794 5.74374 6.42129 7.12902 6.46035 8.69222Z" fill="#D2D2D2" stroke="#8C8C8C"/>
<circle cx="12" cy="8.5" r="1" fill="#D2D2D2" stroke="#8C8C8C"/>
</svg>
