<svg width="48" height="48" viewBox="0 0 48 48" fill="none" xmlns="http://www.w3.org/2000/svg">
<g clip-path="url(#clip0_36_1241)">
<path d="M44.8594 2.97754H8.63212C8.38987 2.97754 8.17247 3.12604 8.08434 3.35169L6.177 8.23419V39.6623C6.177 40.5335 6.88322 41.2398 7.75444 41.2398H45.7372C46.6084 41.2398 47.3146 40.5335 47.3146 39.6623V8.23419L45.4073 3.3516C45.3191 3.12604 45.1017 2.97754 44.8594 2.97754Z" fill="white"/>
<path d="M45.7371 41.2399H7.75444C6.88322 41.2399 6.177 40.5337 6.177 39.6625V8.23438H47.3145V39.6625C47.3145 40.5336 46.6083 41.2399 45.7371 41.2399Z" fill="#FFCC00"/>
<path d="M43.1716 8.23438V36.6367C43.1716 38.0518 42.0245 39.1989 40.6094 39.1989H7.75444C6.88322 39.1989 6.177 38.4927 6.177 37.6215V39.6625C6.177 40.5337 6.88322 41.2399 7.75444 41.2399H45.7372C46.6084 41.2399 47.3146 40.5337 47.3146 39.6625V8.23438H43.1716Z" fill="#FFCC00"/>
<path d="M29.4519 23.178C29.7065 24.0065 29.241 24.8768 28.4211 25.1305L21.626 27.2337L22.0267 27.3971L26.5612 29.246L34.067 32.3065C34.9777 32.6778 35.415 33.717 35.0436 34.6277C34.6723 35.5384 33.6331 35.9756 32.7224 35.6043L34.463 36.3141C35.3737 36.6854 35.811 37.7246 35.4396 38.6353C35.0683 39.546 34.0291 39.9832 33.1184 39.6119L31.3777 38.9021C32.2777 39.2692 32.7154 40.2885 32.367 41.1914C32.0076 42.1228 30.9203 42.5618 29.9959 42.1849L28.5443 41.593C29.455 41.9644 29.8923 43.0036 29.5209 43.9143C29.1496 44.825 28.1104 45.2622 27.1997 44.8909L14.0531 39.5305C12.7614 39.0038 11.6254 38.1563 10.7527 37.0679C9.87996 35.9797 8.744 35.132 7.45222 34.6053L2.00085 32.3825L5.81103 23.0381L10.5301 24.9623C12.1098 25.6064 27.6024 22.1173 27.6024 22.1173C28.3989 21.95 29.2129 22.4002 29.4519 23.178Z" fill="#EEBD00"/>
<path d="M29.4519 23.178C29.7065 24.0065 29.241 24.8768 28.4211 25.1305L21.626 27.2337L22.0267 27.3971L26.5612 29.246L34.067 32.3065C34.9777 32.6778 35.415 33.717 35.0436 34.6277C34.6723 35.5384 33.6331 35.9756 32.7224 35.6043L34.463 36.3141C35.3737 36.6854 35.811 37.7246 35.4396 38.6353C35.0683 39.546 34.0291 39.9832 33.1184 39.6119L31.3777 38.9021C32.2777 39.2692 32.7154 40.2885 32.367 41.1914C32.0076 42.1228 30.9203 42.5618 29.9959 42.1849L28.5443 41.593C29.455 41.9644 29.8923 43.0036 29.5209 43.9143C29.1496 44.825 28.1104 45.2622 27.1997 44.8909L14.0531 39.5305C12.7614 39.0038 11.6254 38.1563 10.7527 37.0679C9.87996 35.9797 8.744 35.132 7.45222 34.6053L2.00085 32.3825L5.81103 23.0381L10.5301 24.9623C12.1098 25.6064 27.6024 22.1173 27.6024 22.1173C28.3989 21.95 29.2129 22.4002 29.4519 23.178Z" fill="white"/>
<path d="M28.8663 41.7643C28.742 41.6874 28.6195 41.6237 28.5035 41.5763L21.8401 38.8594C21.4878 39.7234 21.9002 40.7096 22.7627 41.0656L28.0477 43.247C28.556 43.4542 28.9562 44.0022 29.119 44.5134C29.2876 44.3482 29.4259 44.1467 29.5206 43.9143C29.845 43.1187 29.5524 42.2252 28.8663 41.7643Z" fill="white"/>
<path d="M32.3669 41.191C32.7097 40.3023 32.2912 39.3009 31.4199 38.9196C31.414 38.9171 31.4082 38.9146 31.4023 38.912C31.4011 38.9116 31.4 38.9111 31.3989 38.9105C31.3949 38.9088 31.3908 38.9071 31.3868 38.9055C31.3837 38.9042 31.3807 38.9029 31.3776 38.9016L31.3781 38.9018C31.3779 38.9017 31.3778 38.9017 31.3776 38.9016L23.185 35.561C22.8363 36.4163 23.2492 37.3922 24.1058 37.7375L31.3776 40.6684C31.7111 40.8044 32.0395 41.1395 32.2447 41.444C32.2915 41.3645 32.3325 41.28 32.3669 41.191Z" fill="white"/>
<path d="M34.8401 34.996C34.9205 34.884 34.9893 34.7609 35.0436 34.6275C35.415 33.7169 34.9777 32.6776 34.067 32.3063L26.5613 29.2457L22.0267 27.3968L21.626 27.2334C22.6378 28.9862 24.2043 30.3525 26.0783 31.1166L34.067 34.374C34.4559 34.5746 34.6788 34.7937 34.8401 34.996Z" fill="white"/>
<path d="M34.4629 36.314L24.5296 32.2637C24.1671 33.1528 24.5949 34.1675 25.4847 34.5286L34.4629 38.1722C34.7219 38.2777 35.0225 38.6645 35.2439 38.9925C35.3209 38.8835 35.3869 38.7642 35.4394 38.6353C35.8108 37.7245 35.3735 36.6853 34.4629 36.314Z" fill="white"/>
<path d="M5.23722 21.663C5.37878 21.3158 5.77506 21.1491 6.12231 21.2907L9.80377 22.7918C10.151 22.9333 10.3177 23.3296 10.1761 23.6769L5.67466 34.7169C5.5331 35.0642 5.13682 35.2309 4.78957 35.0893L1.1081 33.5882C0.760855 33.4466 0.594167 33.0504 0.73573 32.703L5.23722 21.663Z" fill="#FFCC00"/>
<path d="M9.80396 22.7922L8.21575 22.1445L4.01454 32.4478C3.87297 32.7951 3.47669 32.9618 3.12935 32.8202L1.0361 31.9667L0.73573 32.7034C0.594167 33.0506 0.760855 33.4469 1.1081 33.5886L4.78957 35.0897C5.13681 35.2313 5.53309 35.0646 5.67475 34.7173L10.1763 23.6772C10.3179 23.33 10.1512 22.9337 9.80396 22.7922Z" fill="#FFCC00"/>
<path d="M30.1988 2.97754H23.2926L22.0763 8.23419V19.3378C22.0763 19.641 22.4342 19.8021 22.6612 19.6011L26.5125 16.1891C26.6456 16.0712 26.8458 16.0712 26.9789 16.1891L30.8302 19.6011C31.0572 19.8022 31.4151 19.641 31.4151 19.3378V8.23419L30.1988 2.97754Z" fill="white"/>
<path d="M30.8304 19.6013L26.9791 16.1893C26.8459 16.0714 26.6458 16.0714 26.5127 16.1893L22.6613 19.6013C22.4344 19.8023 22.0764 19.6412 22.0764 19.338V8.23438H31.4154V19.338C31.4152 19.6412 31.0573 19.8023 30.8304 19.6013Z" fill="white"/>
<path d="M28.0976 42.6914L28.0966 42.6904V42.6914H28.0976Z" fill="#EEBD00"/>
<path d="M36.361 2.29248H8.63215C8.10377 2.29248 7.63821 2.61048 7.44593 3.10267L5.53859 7.98516C5.53719 7.98881 5.53644 7.99256 5.53503 7.99613C5.5279 8.01516 5.52172 8.03456 5.51628 8.05444C5.51431 8.06166 5.51244 8.06878 5.51075 8.076C5.50644 8.09428 5.50297 8.11284 5.50015 8.13159C5.49903 8.13909 5.49762 8.14659 5.49669 8.15409C5.49434 8.17453 5.49303 8.19516 5.49247 8.21606C5.49237 8.22131 5.49172 8.22656 5.49162 8.23191C5.49162 8.23275 5.49153 8.23359 5.49153 8.23444V18.3041C5.49153 18.6827 5.79837 18.9895 6.17693 18.9895C6.5555 18.9895 6.86234 18.6827 6.86234 18.3041V8.91994H21.3909V19.3382C21.3909 19.7456 21.6309 20.1169 22.0025 20.284C22.1385 20.3452 22.2833 20.3751 22.4272 20.3751C22.6762 20.3751 22.9225 20.2857 23.1157 20.1145L26.7457 16.8985L30.3758 20.1144C30.6806 20.3847 31.1177 20.4512 31.4892 20.284C31.8606 20.1168 32.1006 19.7456 32.1006 19.3382V8.91994H46.6291V39.6627C46.6291 40.1545 46.2289 40.5547 45.7371 40.5547H33.1697C33.1697 40.5469 33.1687 40.5391 33.1686 40.5313C33.1679 40.4698 33.1656 40.4084 33.1604 40.3475C34.3404 40.6603 35.6013 40.0539 36.0741 38.8942C36.3228 38.2842 36.3192 37.6138 36.0637 37.0067C36.0396 36.9495 36.0131 36.894 35.9852 36.8394C35.98 36.8293 35.975 36.8192 35.9699 36.8093C35.9424 36.7572 35.9132 36.7063 35.8823 36.6567C35.8763 36.647 35.8701 36.6376 35.864 36.6281C35.8314 36.5772 35.7976 36.5272 35.7615 36.4791C35.7608 36.4782 35.7601 36.4773 35.7594 36.4765C35.7236 36.4289 35.6857 36.3832 35.6466 36.3385C35.6395 36.3303 35.6325 36.3221 35.6253 36.3139C35.5865 36.2708 35.5463 36.2291 35.5047 36.1889C35.4965 36.181 35.4883 36.1734 35.48 36.1657C35.4364 36.1247 35.3918 36.0849 35.3453 36.0473C35.3437 36.0461 35.3421 36.0448 35.3405 36.0436C35.2948 36.0068 35.2473 35.9719 35.1988 35.9384C35.1901 35.9323 35.1814 35.9261 35.1725 35.9201C35.1241 35.8874 35.0744 35.8566 35.0234 35.8273C35.0192 35.8248 35.0153 35.822 35.011 35.8196C35.3007 35.5689 35.5294 35.2516 35.6782 34.8866C35.9269 34.2765 35.9233 33.6062 35.6678 32.999C35.4443 32.4677 35.0514 32.0404 34.5482 31.7753C34.4763 31.7374 34.4021 31.7028 34.3259 31.6718L23.6584 27.3221L28.6239 25.7852C29.8053 25.4194 30.4706 24.1594 30.107 22.9766C29.9714 22.535 29.7024 22.1627 29.355 21.8905C28.838 21.4854 28.1469 21.3025 27.4616 21.4464C27.4583 21.4472 27.4551 21.4477 27.4519 21.4486C27.4139 21.4571 23.6073 22.313 19.6316 23.0883C19.4553 23.1227 19.2834 23.1558 19.114 23.1885C18.9785 23.2145 18.8448 23.2402 18.7136 23.2652C18.6759 23.2724 18.6382 23.2795 18.6008 23.2866C18.3692 23.3306 18.1448 23.3727 17.9268 23.4132C17.839 23.4295 17.752 23.4456 17.6664 23.4614C12.6736 24.3812 11.271 24.3977 10.8818 24.345C10.8803 24.3448 10.879 24.3446 10.8775 24.3443C10.8716 24.3435 10.8657 24.3426 10.8603 24.3418C10.8564 24.3411 10.8527 24.3405 10.8491 24.3399C10.8464 24.3394 10.8436 24.339 10.8411 24.3386C10.8168 24.3342 10.7979 24.3296 10.7832 24.3252L10.6709 24.2794L10.8109 23.9362C10.9485 23.5987 10.9465 23.2278 10.8052 22.8919C10.7698 22.8079 10.7268 22.7286 10.6769 22.6548C10.5273 22.4332 10.3157 22.2607 10.0626 22.1575L6.38122 20.6565C6.04381 20.5188 5.67284 20.5209 5.33694 20.6622C5.00094 20.8035 4.74022 21.0672 4.60259 21.4046L0.101008 32.4449C-0.183054 33.1415 0.152664 33.9393 0.849319 34.2235L4.53078 35.7246C4.69887 35.7931 4.87278 35.8256 5.04406 35.8256C5.58247 35.8256 6.09378 35.5048 6.30931 34.9763L6.34315 34.8933L7.19196 35.2394C7.19243 35.2395 7.1929 35.2398 7.19346 35.24C8.00534 35.571 8.75337 36.0434 9.4008 36.6295C9.51855 36.7361 9.63293 36.8464 9.74383 36.9603C9.85474 37.0742 9.96199 37.1918 10.0656 37.3127C10.1173 37.3732 10.1682 37.4346 10.218 37.4968C11.1614 38.6731 12.3982 39.5959 13.7944 40.1652L14.7493 40.5546H7.75446C7.26265 40.5546 6.86243 40.1544 6.86243 39.6626V37.9283C6.86243 37.5497 6.55559 37.2429 6.17703 37.2429C5.79847 37.2429 5.49162 37.5497 5.49162 37.9283V39.6626C5.49162 40.9103 6.50665 41.9254 7.75446 41.9254H18.1113L26.9407 45.5256C27.2447 45.6495 27.5591 45.7083 27.8688 45.7082C28.8418 45.7082 29.766 45.1284 30.1555 44.1731C30.3153 43.7814 30.3665 43.3719 30.3235 42.9782C30.7828 43.0441 31.259 42.9837 31.6906 42.7973C32.1292 42.6078 32.4928 42.306 32.751 41.9253H45.7372C46.9849 41.9253 48 40.9103 48 39.6625V8.23453C48 8.23369 48 8.23284 48 8.232C48 8.22675 47.9993 8.2215 47.9991 8.21616C47.9985 8.19525 47.9973 8.17462 47.9949 8.15419C47.994 8.14669 47.9925 8.13919 47.9914 8.13169C47.9886 8.11284 47.9851 8.09428 47.9808 8.07609C47.9791 8.06887 47.9773 8.06175 47.9753 8.05453C47.9699 8.03475 47.9637 8.01534 47.9565 7.99622C47.9552 7.99256 47.9544 7.98881 47.953 7.98525L46.0456 3.10257C45.8534 2.61057 45.3877 2.29257 44.8594 2.29257H41.3866C41.008 2.29257 40.7012 2.59942 40.7012 2.97798C40.7012 3.35654 41.008 3.66338 41.3866 3.66338H44.7931L46.311 7.54922H31.9602L31.061 3.66338H36.361C36.7396 3.66338 37.0464 3.35654 37.0464 2.97798C37.0464 2.59942 36.7396 2.29248 36.361 2.29248ZM23.8376 3.66329H29.654L30.5532 7.54913H22.9385L23.8376 3.66329ZM21.5314 7.54913H7.18062L8.69852 3.66329H22.4305L21.5314 7.54913ZM30.7299 18.5967L27.4335 15.6764C27.2375 15.5028 26.9916 15.416 26.7459 15.416C26.5001 15.416 26.2542 15.5028 26.0582 15.6764L22.7618 18.5967V8.91994H30.73V18.5967H30.7299ZM5.04237 34.4528L1.37272 32.9565L5.86953 21.9283L9.53908 23.4246L5.04237 34.4528ZM32.425 38.5892L31.6384 38.2684C31.638 38.2682 31.6376 38.2681 31.6372 38.2679C31.6369 38.2678 31.6367 38.2677 31.6364 38.2676C31.6363 38.2676 31.6362 38.2675 31.6361 38.2675L23.4437 34.9271C23.0932 34.7842 22.6932 34.9524 22.5502 35.303C22.4073 35.6535 22.5756 36.0536 22.9262 36.1965L31.1188 39.537C31.153 39.551 31.1861 39.5665 31.2181 39.5834C31.2271 39.5882 31.2354 39.594 31.2442 39.599C31.2667 39.6117 31.2893 39.6245 31.3106 39.6387C31.3208 39.6455 31.3302 39.6534 31.3401 39.6605C31.359 39.674 31.3782 39.6873 31.396 39.7019C31.4068 39.7107 31.4165 39.7206 31.427 39.7298C31.4429 39.7439 31.4592 39.7576 31.4742 39.7726C31.4846 39.7829 31.4939 39.7943 31.5038 39.805C31.5176 39.8198 31.5318 39.8343 31.5447 39.8499C31.5545 39.8618 31.5632 39.8744 31.5725 39.8867C31.5843 39.9021 31.5965 39.9172 31.6072 39.9331C31.6163 39.9464 31.6241 39.9605 31.6325 39.9741C31.6423 39.9898 31.6526 40.0053 31.6615 40.0215C31.6696 40.0362 31.6763 40.0514 31.6837 40.0663C31.6916 40.0824 31.7001 40.0981 31.7073 40.1145C31.7141 40.1303 31.7196 40.1466 31.7257 40.1626C31.7319 40.1788 31.7387 40.1948 31.7441 40.2113C31.7495 40.2279 31.7537 40.2448 31.7583 40.2616C31.7629 40.2782 31.768 40.2945 31.7719 40.3113C31.7757 40.3283 31.7781 40.3455 31.7812 40.3626C31.7843 40.3797 31.7879 40.3965 31.7901 40.4138C31.7924 40.431 31.7932 40.4485 31.7946 40.4658C31.796 40.4832 31.7981 40.5006 31.7987 40.518C31.7992 40.5352 31.7984 40.5525 31.7982 40.5698C31.798 40.5876 31.7983 40.6054 31.7972 40.6233C31.7961 40.6403 31.7936 40.6572 31.7917 40.6742C31.7898 40.6925 31.7883 40.7108 31.7853 40.729C31.7825 40.7457 31.7783 40.7622 31.7749 40.7789C31.7709 40.7974 31.7676 40.8159 31.7627 40.8342C31.7584 40.8505 31.7525 40.8666 31.7474 40.8827C31.7416 40.9011 31.7362 40.9195 31.7294 40.9376C31.7236 40.95 31.7179 40.9626 31.7125 40.9752C31.7113 40.9781 31.7106 40.9812 31.7095 40.984C31.6024 41.2308 31.4046 41.4272 31.1466 41.5387C30.8626 41.6612 30.5374 41.6655 30.2542 41.55L28.8027 40.9582C28.796 40.9555 28.7891 40.9536 28.7824 40.9511C28.7755 40.948 28.769 40.9444 28.7621 40.9416L22.0987 38.2246C21.748 38.0818 21.3482 38.2499 21.2053 38.6006C21.0623 38.9511 21.2306 39.3511 21.5812 39.4941L28.2445 42.2111C28.2516 42.214 28.2589 42.216 28.2661 42.2186C28.2726 42.2215 28.2786 42.2249 28.2852 42.2276C28.8444 42.4556 29.114 43.0961 28.886 43.6554C28.6579 44.2148 28.0176 44.4844 27.4581 44.2561L18.5055 40.6057C18.5051 40.6055 18.5048 40.6053 18.5044 40.6051L14.3119 38.8956C13.5739 38.5947 12.8886 38.177 12.2836 37.6632C11.9206 37.3548 11.5866 37.012 11.2873 36.6389C10.9925 36.2713 10.6691 35.9284 10.3211 35.6133C9.5554 34.9202 8.67087 34.3618 7.71096 33.9703C7.71087 33.9703 7.71078 33.9702 7.71068 33.9702L6.86075 33.6237L8.55359 29.472L10.1533 25.5486L10.2714 25.5967C10.3825 25.642 10.5409 25.7063 10.9673 25.7224C11.5 25.7465 12.3812 25.6909 13.96 25.4679C15.0339 25.3162 16.3511 25.0968 17.8889 24.8139C17.9268 24.807 17.9644 24.8 18.0026 24.793C18.0745 24.7797 18.1472 24.7662 18.2201 24.7527C18.2768 24.7422 18.3338 24.7315 18.3913 24.7207C18.4568 24.7084 18.5225 24.6962 18.5887 24.6837C18.6589 24.6705 18.7299 24.6571 18.8014 24.6435C18.8586 24.6326 18.9157 24.6218 18.9734 24.6108C19.0605 24.5942 19.1491 24.5773 19.238 24.5602C19.2837 24.5514 19.329 24.5428 19.3751 24.534C19.5113 24.5077 19.6492 24.4811 19.7896 24.4538C23.7516 23.6832 27.5756 22.8255 27.7475 22.7868C27.7646 22.7833 27.7818 22.7812 27.7989 22.7787C28.2392 22.7135 28.6705 22.9682 28.7968 23.379C28.8411 23.5233 28.8463 23.6706 28.8184 23.8092C28.757 24.1142 28.5353 24.3773 28.2185 24.4753L21.4234 26.5785C21.1467 26.6642 20.9538 26.9142 20.9413 27.2035C20.9287 27.4927 21.0992 27.7587 21.3673 27.868L33.8083 32.9409C34.0792 33.0513 34.2909 33.2607 34.4044 33.5304C34.5178 33.8001 34.5195 34.0979 34.4089 34.3687C34.2984 34.6396 34.0892 34.8513 33.8194 34.9648C33.6846 35.0214 33.5428 35.0501 33.4008 35.0509C33.3987 35.0509 33.3966 35.0506 33.3946 35.0506C33.3612 35.0506 33.3279 35.0493 33.2946 35.0462C33.2848 35.0453 33.275 35.0432 33.2652 35.0421C33.2398 35.039 33.2144 35.0361 33.1892 35.0312C33.1732 35.0281 33.1575 35.0234 33.1416 35.0197C33.1227 35.0152 33.1037 35.0114 33.0849 35.0058C33.0655 35.0001 33.0465 34.9925 33.0274 34.9857C33.0122 34.9802 32.9967 34.9757 32.9817 34.9696L24.7883 31.6288C24.4378 31.4858 24.0379 31.6541 23.8949 32.0047C23.7519 32.3552 23.9202 32.7553 24.2708 32.8982L34.2041 36.9485C34.2719 36.9761 34.3359 37.0099 34.3956 37.0493C34.5748 37.1674 34.7151 37.3357 34.8002 37.538C34.8994 37.774 34.9131 38.0314 34.8409 38.2736C34.8306 38.3082 34.8185 38.3425 34.8048 38.3763C34.7905 38.4113 34.7747 38.4451 34.7573 38.4778C34.7169 38.5537 34.6677 38.6223 34.6128 38.6848C34.5786 38.7237 34.5422 38.7598 34.5034 38.793C34.4972 38.7983 34.4915 38.8043 34.4853 38.8093C34.2351 39.0139 33.9007 39.1018 33.574 39.0358C33.5077 39.0224 33.4418 39.0034 33.3769 38.977L32.425 38.5892Z" fill="black"/>
</g>
<defs>
<clipPath id="clip0_36_1241">
<rect width="48" height="48" fill="white"/>
</clipPath>
</defs>
</svg>
