<svg width="48" height="48" viewBox="0 0 48 48" fill="none" xmlns="http://www.w3.org/2000/svg">
<g clip-path="url(#clip0_181_769)">
<rect width="48" height="48" fill="white"/>
<path d="M47.4608 18.3529H27.3627L25.4118 22.255V12.7059H27.9686C32.7863 12.7059 36.7059 8.78635 36.7059 3.96866V1.41176H31.3254C29.0465 1.41176 26.9689 2.28913 25.4118 3.72339V0H22.5882V3.72339C21.031 2.28913 18.9535 1.41176 16.6745 1.41176H11.2941V3.96866C11.2941 8.78635 15.2136 12.7059 20.0313 12.7059H22.5882V22.255L20.6372 18.3529H0.539185L5.64704 28.5686V48H42.3529C42.3529 47.85 42.3529 28.9355 42.3529 28.5686L47.4608 18.3529ZM20.0313 9.88235C16.8599 9.88235 14.2635 7.37289 14.1237 4.23529H16.6746C19.846 4.23529 22.4424 6.74475 22.5823 9.88235H20.0313ZM31.3254 4.23529H33.8763C33.7365 7.37289 31.14 9.88235 27.9685 9.88235H25.4177C25.5576 6.74475 28.1541 4.23529 31.3254 4.23529ZM29.1078 21.1765H42.8922L40.0687 26.8235H26.2843L29.1078 21.1765ZM18.8922 21.1765L21.7157 26.8235H7.93137L5.10784 21.1765H18.8922ZM8.47057 35.2941H15.5294V39.5294H8.47057V35.2941ZM22.5882 45.1765H8.47057V42.3529H18.3529V32.4706H8.47057V29.6471H22.5882V45.1765ZM39.5294 39.5294H35.2941V35.2941H39.5294V39.5294ZM32.4706 32.4706V42.3529H39.5294V45.1765H25.4118V29.6471H39.5294V32.4706H32.4706Z" fill="black"/>
<path d="M14.1237 3.93535H13.81L13.824 4.24871C13.9709 7.54586 16.6987 10.1824 20.0313 10.1824H22.5823H22.896L22.882 9.86905C22.735 6.5719 20.0073 3.93535 16.6746 3.93535H14.1237ZM34.176 4.24871L34.19 3.93535H33.8763H31.3255C27.9928 3.93535 25.2651 6.5719 25.118 9.86904L25.104 10.1824H25.4177H27.9686C31.3013 10.1824 34.0291 7.54586 34.176 4.24871ZM29.1079 20.8765H28.9224L28.8395 21.0424L26.016 26.6894L25.7989 27.1236H26.2843H40.0687H40.2541L40.337 26.9578L43.1606 21.3107L43.3776 20.8765H42.8922H29.1079ZM19.1606 21.0424L19.0776 20.8765H18.8922H5.10785H4.62244L4.83952 21.3107L7.66305 26.9578L7.74597 27.1236H7.93138H21.7158H22.2012L21.9841 26.6894L19.1606 21.0424ZM8.47058 34.9942H8.17058V35.2942V39.5295V39.8295H8.47058H15.5294H15.8294V39.5295V35.2942V34.9942H15.5294H8.47058ZM22.5882 45.4765H22.8882V45.1765V29.6471V29.3471H22.5882H8.47058H8.17058V29.6471V32.4706V32.7706H8.47058H18.0529V42.053H8.47058H8.17058V42.353V45.1765V45.4765H8.47058H22.5882ZM39.5294 39.8295H39.8294V39.5295V35.2942V34.9942H39.5294H35.2941H34.9941V35.2942V39.5295V39.8295H35.2941H39.5294ZM39.8294 42.353V42.053H39.5294H32.7706V32.7706H39.5294H39.8294V32.4706V29.6471V29.3471H39.5294H25.4118H25.1118V29.6471V45.1765V45.4765H25.4118H39.5294H39.8294V45.1765V42.353Z" fill="#FFCC00" stroke="#FFCC00" stroke-width="0.6"/>
</g>
<defs>
<clipPath id="clip0_181_769">
<rect width="48" height="48" fill="white"/>
</clipPath>
</defs>
</svg>
