<svg width="89" height="89" viewBox="0 0 89 89" fill="none" xmlns="http://www.w3.org/2000/svg">
<g clip-path="url(#clip0_1154_8834)">
<path d="M31.9185 38.416H22.4089C21.4494 38.416 20.6706 37.6379 20.6706 36.6777V17.8792H17.8133C17.1764 17.8792 16.5897 17.5308 16.2862 16.9706C15.982 16.4105 16.0085 15.7294 16.3555 15.1943L25.7055 0.791733C26.0267 0.298088 26.5753 0 27.164 0C27.7527 0 28.3014 0.298088 28.6219 0.791733L37.9719 15.1943C38.3189 15.7294 38.3454 16.4105 38.0419 16.9706C37.7377 17.5308 37.151 17.8799 36.5141 17.8799H33.6568V36.6777C33.6568 37.6372 32.8786 38.416 31.9185 38.416ZM24.1472 34.9395H30.1802V16.1409C30.1802 15.1814 30.9584 14.4026 31.9185 14.4026H33.3132L27.164 4.93034L21.0142 14.4026H22.4089C23.369 14.4026 24.1472 15.1814 24.1472 16.1409V34.9395Z" fill="#D40511"/>
<path d="M44.4688 88.9999C43.7416 88.9999 43.0775 88.53 42.8324 87.8462C42.5886 87.1679 42.8025 86.385 43.3579 85.9253C43.8971 85.4785 44.6698 85.4024 45.287 85.7297C45.9266 86.0692 46.2967 86.7999 46.1867 87.5162C46.0584 88.3562 45.3216 88.9999 44.4688 88.9999Z" fill="#D40511"/>
<path d="M87.2617 75.9716H80.9109V49.2598C80.9109 48.115 80.5042 47.0632 79.8279 46.2416C80.5042 45.42 80.9109 44.3688 80.9109 43.224V17.7922C80.9109 15.1691 78.7774 13.0356 76.1544 13.0356H47.5175C44.8952 13.0356 42.7617 15.1691 42.7617 17.7922V43.224C42.7617 43.7604 42.8507 44.2758 43.015 44.7572C42.5342 44.5929 42.0182 44.504 41.4825 44.504H12.8456C10.2226 44.504 8.08912 46.6374 8.08912 49.2598V75.9716H1.73828C0.778152 75.9716 0 76.7498 0 77.7099V87.2616C0 88.2217 0.778152 88.9999 1.73828 88.9999H36.639C37.5992 88.9999 38.3773 88.2217 38.3773 87.2616C38.3773 86.3015 37.5992 85.5233 36.639 85.5233H3.47656V79.4482H85.5234V85.5233H52.361C51.4015 85.5233 50.6227 86.3015 50.6227 87.2616C50.6227 88.2217 51.4015 88.9999 52.361 88.9999H87.2617C88.2218 88.9999 89 88.2217 89 87.2616V77.7099C89 76.7498 88.2218 75.9716 87.2617 75.9716ZM65.7627 16.5122V27.3656L62.6515 25.7136C62.3961 25.5784 62.1164 25.5105 61.836 25.5105C61.5562 25.5105 61.2758 25.5784 61.0211 25.7136L57.9099 27.3656V16.5122H65.7627ZM46.2383 17.7922C46.2383 17.0867 46.812 16.5122 47.5175 16.5122H54.4333V30.2575C54.4333 30.8673 54.7531 31.4329 55.276 31.7473C55.551 31.9123 55.8613 31.9958 56.1716 31.9958C56.4514 31.9958 56.7318 31.9279 56.9871 31.7928L61.836 29.2166L66.6855 31.7928C67.224 32.0786 67.8738 32.0617 68.3959 31.7473C68.9188 31.4329 69.2386 30.8673 69.2386 30.2575V16.5122H76.1544C76.8599 16.5122 77.4336 17.0867 77.4336 17.7922V43.224C77.4336 43.9295 76.8599 44.504 76.1544 44.504H47.5175C46.812 44.504 46.2383 43.9295 46.2383 43.224V17.7922ZM57.9099 47.9805H65.7627V58.8339L62.6515 57.1812C62.3968 57.0461 62.1164 56.9782 61.8366 56.9782C61.5562 56.9782 61.2758 57.0461 61.0211 57.1812L57.9106 58.8339V47.9805H57.9099ZM31.0901 47.9805V58.8339L27.9789 57.1812C27.7242 57.0461 27.4438 56.9782 27.164 56.9782C26.8836 56.9782 26.6032 57.0461 26.3485 57.1812L23.2373 58.8339V47.9805H31.0901ZM11.5657 49.2598C11.5657 48.5543 12.1401 47.9798 12.8456 47.9798H19.7607V61.7252C19.7607 62.3349 20.0805 62.9005 20.6034 63.2149C21.1269 63.5293 21.776 63.5463 22.3145 63.2604L27.164 60.6842L32.0129 63.2604C32.2682 63.3955 32.5486 63.4635 32.8284 63.4635C33.1387 63.4635 33.449 63.3799 33.724 63.2143C34.2469 62.9005 34.5667 62.3349 34.5667 61.7252V47.9798H41.4825C42.188 47.9798 42.7617 48.5536 42.7617 49.2598V75.9716H11.5657V49.2598ZM46.2383 75.9716V49.2598C46.2383 48.5543 46.812 47.9798 47.5175 47.9798H54.4333V61.7252C54.4333 62.3349 54.7531 62.9005 55.276 63.2149C55.7988 63.5293 56.448 63.5463 56.9871 63.2604L61.836 60.6842L66.6855 63.2604C66.9408 63.3955 67.2212 63.4635 67.5003 63.4635C67.8113 63.4635 68.1209 63.3799 68.3959 63.2143C68.9188 62.9005 69.2386 62.3349 69.2386 61.7252V47.9798H76.1544C76.8599 47.9798 77.4336 48.5536 77.4336 49.2598V75.9716H46.2383Z" fill="#D40511"/>
</g>
<defs>
<clipPath id="clip0_1154_8834">
<rect width="89" height="89" fill="white"/>
</clipPath>
</defs>
</svg>
