<svg width="60" height="60" viewBox="0 0 60 60" fill="none" xmlns="http://www.w3.org/2000/svg">
<g clip-path="url(#clip0_23_0)">
<path d="M56.3672 8.4375H16.0547C14.7601 8.4375 13.7109 9.48669 13.7109 10.7813V51.0938C13.7109 52.3883 14.7601 53.4375 16.0547 53.4375H56.3672C57.6618 53.4375 58.711 52.3883 58.711 51.0938V10.7813C58.711 9.48669 57.6618 8.4375 56.3672 8.4375Z" fill="#FFCC00"/>
<path d="M29.4608 8.4375H42.9612V21.5598L39.5861 18.1847L36.211 21.5598L32.8359 18.1847L29.4608 21.5598V8.4375Z" fill="#FFCC00"/>
<path d="M36.0988 31.1788L31.8654 28.0033C29.5843 26.2922 26.8089 25.3688 23.9575 25.3716L19.6719 25.3762L19.6692 25.3739L11.1383 33.9048L11.141 33.9071L11.1378 36.0897C11.1337 38.9695 12.2758 41.7325 14.312 43.7687L23.3326 52.7894C24.1964 53.6532 25.5972 53.6532 26.4605 52.7894C27.2877 51.9626 27.3207 50.6452 26.5645 49.7764L28.0549 51.2668C28.8574 52.0693 30.1474 52.1783 31.0318 51.4678C32.0356 50.6612 32.1304 49.2179 31.3211 48.2882L32.6523 49.6194C33.4401 50.4072 34.8166 50.507 35.6698 49.7906C36.6783 48.9446 36.7273 47.4381 35.8168 46.5281L34.449 45.1603C35.3787 45.9696 36.822 45.8748 37.6286 44.871C38.3391 43.9866 38.2301 42.6966 37.4276 41.8941L28.3932 32.8597C28.2358 32.7018 28.4376 32.4509 28.6253 32.5708L33.1384 35.452C34.2956 36.1904 35.8273 35.9029 36.6375 34.7951C37.4785 33.6452 37.2386 32.0334 36.0988 31.1788Z" fill="#FFCC00"/>
<path d="M10.8174 34.2261L19.7676 25.2754L1.05469 6.5625V24.4634L10.8174 34.2261Z" fill="white"/>
<path d="M56.3672 7.26563H16.0547C14.1161 7.26563 12.5391 8.84262 12.5391 10.7813V16.3893L1.88324 5.73395C1.42593 5.27618 0.683899 5.27618 0.226135 5.73395C-0.231628 6.19125 -0.231628 6.93329 0.226135 7.39105L14.0295 21.1945L6.73645 28.4876L1.88324 23.6343C1.42593 23.177 0.683899 23.177 0.226135 23.6343C-0.231628 24.0921 -0.231628 24.8341 0.226135 25.2919L9.96735 35.0331L9.96598 36.0878C9.96186 38.7795 10.8875 41.4221 12.5391 43.5301V51.0938C12.5391 53.0324 14.1161 54.6094 16.0547 54.6094H56.3672C58.3058 54.6094 59.8828 53.0324 59.8828 51.0938V24.3736C59.8828 23.7264 59.3582 23.2018 58.711 23.2018C58.0637 23.2018 57.5391 23.7264 57.5391 24.3736V51.0938C57.5391 51.7397 57.0136 52.2657 56.3672 52.2657H31.902C31.951 52.2222 31.9991 52.1773 32.0462 52.1302C32.3465 51.8299 32.5777 51.4865 32.7411 51.1199C33.2048 51.352 33.7193 51.4756 34.2531 51.4756C35.1567 51.4756 36.0063 51.1235 36.6458 50.4845C37.2849 49.8459 37.6369 48.9958 37.6369 48.0922C37.6369 47.5589 37.5133 47.0449 37.2817 46.5816C37.6529 46.415 37.9949 46.1815 38.291 45.8853C38.9301 45.2463 39.2821 44.3962 39.2821 43.4926C39.2821 42.5885 38.9301 41.7389 38.291 41.0999L34.2549 37.0638C35.4978 37.1544 36.7548 36.6197 37.538 35.5495L37.5765 35.4968C38.8042 33.8182 38.4494 31.4461 36.7854 30.2092C35.7358 29.4292 34.314 28.3681 32.5594 27.0548C30.098 25.2136 27.0506 24.2001 23.9768 24.2001C23.9717 24.2001 23.9667 24.2001 23.9612 24.2001L20.3536 24.2038L14.8828 18.7331V10.7813C14.8828 10.1349 15.4083 9.60938 16.0547 9.60938H28.2889V21.5598C28.2889 22.034 28.5745 22.4611 29.0126 22.6424C29.4502 22.8241 29.9542 22.7239 30.2893 22.3888L32.8359 19.8422L35.3824 22.3883C35.8397 22.8461 36.5817 22.8461 37.0395 22.3883L39.586 19.8422L42.1321 22.3883C42.3564 22.6126 42.6563 22.7316 42.9611 22.7316C43.1122 22.7316 43.2646 22.7023 43.4093 22.6424C43.8474 22.4611 44.133 22.034 44.133 21.5598V9.60938H56.3672C57.0136 9.60938 57.5391 10.1349 57.5391 10.7813V14.9986C57.5391 15.6459 58.0637 16.1705 58.711 16.1705C59.3582 16.1705 59.8828 15.6459 59.8828 14.9986V10.7813C59.8828 8.84262 58.3058 7.26563 56.3672 7.26563ZM14.8828 51.0938V45.997L18.712 49.8262C18.7125 49.8267 18.7129 49.8271 18.7129 49.8271L21.1514 52.2657H16.0547C15.4083 52.2657 14.8828 51.7397 14.8828 51.0938ZM23.9639 26.5434H23.9768C26.5476 26.5434 29.0964 27.3917 31.155 28.9316C32.9118 30.2458 34.336 31.3088 35.3874 32.0902C36.0219 32.5621 36.1556 33.4694 35.685 34.1126L35.6465 34.1652C35.2153 34.7544 34.3968 34.9059 33.7834 34.5104L29.2864 31.6113C28.7013 31.2346 27.9305 31.3587 27.4938 31.9007C27.0566 32.4422 27.0982 33.2218 27.5903 33.7139L36.6339 42.7574C36.8303 42.9538 36.9383 43.2147 36.9383 43.4926C36.9383 43.7705 36.8303 44.0314 36.6339 44.2278C36.4375 44.4242 36.1762 44.5326 35.8983 44.5326C35.6621 44.5326 35.4378 44.4535 35.2551 44.3088L30.7164 39.7701C30.6853 39.7389 30.6523 39.7101 30.6185 39.6831L30.1547 39.2194C29.697 38.7621 28.9549 38.7616 28.4972 39.2194C28.0399 39.6767 28.0399 40.4187 28.4972 40.8765L33.506 45.8853C33.5578 45.9371 33.6118 45.9865 33.6662 46.0346L34.9887 47.357C35.1851 47.5534 35.2931 47.8144 35.2931 48.0922C35.2931 48.3701 35.1851 48.631 34.9887 48.8274C34.7923 49.0238 34.531 49.1323 34.2531 49.1323C33.9757 49.1323 33.7143 49.0238 33.5179 48.8274L32.195 47.5044C32.1474 47.4504 32.0984 47.3969 32.0462 47.3447L27.594 42.8925C27.5624 42.8614 27.5295 42.8325 27.4956 42.8055L27.0319 42.3418C26.5746 41.884 25.8325 41.884 25.3748 42.3418C24.917 42.7991 24.917 43.5411 25.3748 43.9989L30.4697 49.0938C30.7915 49.5017 30.7654 50.0968 30.3891 50.473C29.9835 50.8782 29.3239 50.8782 28.9183 50.473L27.4388 48.9936C27.3908 48.9386 27.3413 48.8851 27.2896 48.8333L24.4716 46.0149C24.44 45.9838 24.4071 45.9549 24.3732 45.9279L23.9095 45.4642C23.4522 45.0064 22.7101 45.0064 22.2524 45.4642C21.7946 45.922 21.7946 46.664 22.2524 47.1218L25.7131 50.5825C25.8577 50.7651 25.9369 50.9894 25.9369 51.2256C25.9369 51.5035 25.8289 51.7649 25.632 51.9612C25.4357 52.1576 25.1747 52.2657 24.8969 52.2657C24.619 52.2657 24.3581 52.1576 24.1617 51.9612L18.0235 45.8231C18.0231 45.8226 18.0226 45.8222 18.0226 45.8217L15.141 42.9405C13.3383 41.1374 12.3061 38.6412 12.3097 36.0919L12.3125 34.3886L20.1531 26.548L23.9639 26.5434ZM10.8174 32.5685L8.39356 30.1451L15.6867 22.8516L18.1105 25.2754L10.8174 32.5685ZM41.7893 18.7308L40.4146 17.3561C39.9568 16.8988 39.2148 16.8988 38.7575 17.3561L36.211 19.9027L33.6644 17.3561C33.4355 17.1272 33.1357 17.0128 32.8359 17.0128C32.536 17.0128 32.2362 17.1272 32.0073 17.3561L30.6326 18.7308V9.60938H41.7893V18.7308Z" fill="black"/>
<path d="M52.3828 40.4478H44.8828C44.2355 40.4478 43.7109 40.9724 43.7109 41.6196C43.7109 42.2669 44.2355 42.7915 44.8828 42.7915H52.3828C53.0301 42.7915 53.5547 42.2669 53.5547 41.6196C53.5547 40.9724 53.0301 40.4478 52.3828 40.4478Z" fill="black"/>
<path d="M52.3828 45.2817H47.3048C46.6575 45.2817 46.1329 45.8063 46.1329 46.4536C46.1329 47.1004 46.6575 47.6255 47.3048 47.6255H52.3828C53.0301 47.6255 53.5547 47.1004 53.5547 46.4536C53.5547 45.8063 53.0301 45.2817 52.3828 45.2817Z" fill="black"/>
<path d="M42.6173 45.2812C42.3083 45.2812 42.0071 45.4067 41.7892 45.6246C41.5699 45.8425 41.4454 46.1451 41.4454 46.4531C41.4454 46.7617 41.5699 47.0638 41.7892 47.2817C42.0071 47.4996 42.3092 47.625 42.6173 47.625C42.9258 47.625 43.228 47.4996 43.4459 47.2817C43.6642 47.0638 43.7892 46.7617 43.7892 46.4531C43.7892 46.1451 43.6642 45.8425 43.4459 45.6246C43.228 45.4067 42.9258 45.2812 42.6173 45.2812Z" fill="black"/>
<path d="M58.7109 18.5142C58.4029 18.5142 58.1003 18.6396 57.8824 18.8575C57.6645 19.0758 57.5391 19.378 57.5391 19.686C57.5391 19.9946 57.6645 20.2967 57.8824 20.5146C58.1003 20.7325 58.4029 20.8579 58.7109 20.8579C59.019 20.8579 59.3216 20.7325 59.5395 20.5146C59.7574 20.2967 59.8828 19.9946 59.8828 19.686C59.8828 19.378 59.7574 19.0758 59.5395 18.8575C59.3216 18.6396 59.019 18.5142 58.7109 18.5142Z" fill="black"/>
</g>
<defs>
<clipPath id="clip0_23_0">
<rect width="60" height="60" fill="white"/>
</clipPath>
</defs>
</svg>
