<svg width="64" height="64" viewBox="0 0 64 64" fill="none" xmlns="http://www.w3.org/2000/svg">
<path d="M34.4083 15.9504V22.2802H53.3979V15.9504H34.4083ZM48.0061 46.0084L39.9485 40.6351C38.0755 39.388 35.555 39.6368 33.9602 41.2301L31.8399 43.3488C30.5959 43.1695 27.638 42.4293 24.6045 39.3957C21.5709 36.3621 20.8307 33.4043 20.6514 32.1603L22.7701 30.04C24.3634 28.4467 24.6137 25.9278 23.3635 24.0502L17.9918 15.9942C17.199 14.8057 15.9303 14.0439 14.5085 13.9033C13.0867 13.7643 11.6943 14.2618 10.6852 15.271L7.32715 18.6275C5.72781 20.2269 4.88404 22.4121 5.01391 24.6235C5.26732 28.929 7.13262 37.5907 16.7711 47.2292C26.4111 56.8676 35.0714 58.7329 39.3767 58.9863C41.5421 59.1217 43.753 58.2945 45.3712 56.6729L48.7293 53.3148C49.7384 52.3057 50.2376 50.9118 50.0969 49.4916C49.9564 48.0699 49.1945 46.8012 48.0061 46.0084Z" fill="black"/>
<path d="M44.7579 4.99951C36.9088 4.99951 30.5157 11.361 30.5157 19.2417C30.5157 21.6788 31.1486 24.0524 32.3513 26.1728L30.6106 31.3951C30.4207 31.9647 30.5789 32.5977 30.9904 33.0092C31.4602 33.4317 32.0442 33.6126 32.6045 33.389L37.8267 31.6481C39.9471 32.8508 42.3209 33.4839 44.7579 33.4839C52.6385 33.4839 59 27.0907 59 19.2418C59 11.361 52.6385 4.99951 44.7579 4.99951V4.99951ZM38.428 20.8241C37.5734 20.8241 36.8456 20.0963 36.8456 19.2417C36.8456 18.3556 37.5734 17.6592 38.428 17.6592C39.3141 17.6592 40.0105 18.3556 40.0105 19.2417C40.0105 20.0963 39.3141 20.8241 38.428 20.8241ZM44.7579 20.8241C43.9033 20.8241 43.1754 20.0963 43.1754 19.2417C43.1754 18.3556 43.9033 17.6592 44.7579 17.6592C45.644 17.6592 46.3404 18.3556 46.3404 19.2417C46.3404 20.0963 45.644 20.8241 44.7579 20.8241ZM51.0877 20.8241C50.2331 20.8241 49.5053 20.0963 49.5053 19.2417C49.5053 18.3556 50.2331 17.6592 51.0877 17.6592C51.9738 17.6592 52.6702 18.3556 52.6702 19.2417C52.6702 20.0963 51.9738 20.8241 51.0877 20.8241Z" fill="#FFCC00"/>
</svg>
