<svg width="48" height="48" viewBox="0 0 48 48" fill="none" xmlns="http://www.w3.org/2000/svg">
<path d="M19.2767 8.92041C17.5028 11.0993 15.1381 12.6621 12.4382 13.4399C11.5556 13.6941 11.0462 14.6157 11.3004 15.4983C11.5402 16.3307 12.3735 16.831 13.2079 16.6721C13.2582 16.6625 13.3087 16.6505 13.3589 16.6361C14.7327 16.2403 16.0365 15.6809 17.2488 14.9724L19.2767 8.92041Z" fill="#FFCC00"/>
<path d="M24.0097 19.1481L25.8204 13.9757C26.3667 14.0606 26.9154 14.1041 27.4622 14.1041C29.9272 14.1041 32.3486 13.2507 34.2949 11.6341L34.5182 11.4486C35.2117 10.8723 35.3545 9.84228 34.8033 9.12852C34.2248 8.37923 33.1454 8.26468 32.4233 8.86463L32.1695 9.07555C31.7363 9.43543 31.2689 9.74038 30.7774 9.98833C28.8604 10.9554 26.5568 10.4547 25.0962 8.88104C24.3815 8.11103 23.3598 7.62207 22.2085 7.62207C20.4136 7.62207 18.8454 8.83454 18.3936 10.5716L16.1625 19.1481H24.0097Z" fill="#FFCC00"/>
<path d="M16.1624 19.1484L9.6075 36.3367C9.18172 37.453 9.90738 38.6748 11.0914 38.8351L11.1352 38.841C11.9456 38.9507 12.7263 38.5397 13.0899 37.8186C14.9437 34.1432 20.4161 23.3233 20.4161 23.3233H22.6386L21.5052 30.4489C21.3374 31.5036 22.1524 32.4584 23.2204 32.4584C24.0002 32.4584 24.6844 31.9386 24.8935 31.1874L27.0235 23.5336C27.6369 21.3298 25.9797 19.1484 23.6921 19.1484H22.6775H16.1624Z" fill="#FFCC00"/>
<path d="M47.0586 20.8511L38.9795 22.477L40.7354 24.2329L35.1198 29.8485L31.1361 25.8647L12.6273 44.3738L15.316 47.0624L31.1361 31.2424L35.1198 35.2262L43.4243 26.9218L45.4327 28.9302L47.0586 20.8511Z" fill="#FFCC00"/>
<path d="M47.0586 20.8511L38.9795 22.477L40.7354 24.2329L35.1198 29.8485L31.1361 25.8647L12.6273 44.3738L15.316 47.0624L31.1361 31.2424L35.1198 35.2262L43.4243 26.9218L45.4327 28.9302L47.0586 20.8511Z" fill="#FFCC00"/>
<path d="M24.641 7.6223C26.4869 7.6223 27.9834 6.12586 27.9834 4.2799C27.9834 2.43394 26.4869 0.9375 24.641 0.9375C22.795 0.9375 21.2986 2.43394 21.2986 4.2799C21.2986 6.12586 22.795 7.6223 24.641 7.6223Z" fill="#FFCC00"/>
<path d="M8.22651 26.1831L1.29836 19.2549C0.822423 18.779 0.822423 18.0074 1.29836 17.5315L6.32738 12.5025C6.80331 12.0265 7.57491 12.0265 8.05084 12.5025L14.979 19.4306C15.4549 19.9065 15.4549 20.6781 14.979 21.1541L9.94998 26.1831C9.47404 26.6589 8.70245 26.6589 8.22651 26.1831Z" fill="#FFCC00"/>
<path d="M7.11272 20.4267L6.82605 20.1401C6.32247 19.6365 6.32247 18.8201 6.82605 18.3166L8.02446 17.1182L10.1346 19.2283L8.9362 20.4267C8.43262 20.9302 7.61621 20.9302 7.11272 20.4267Z" fill="#FFCC00"/>
<path d="M47.7215 20.1883C47.4996 19.9665 47.1809 19.8704 46.8736 19.9322L38.7945 21.5581C38.4558 21.6264 38.182 21.8754 38.0821 22.206C37.9821 22.5367 38.0722 22.8957 38.3165 23.1401L39.4096 24.2331L35.1197 28.523L31.7988 25.202C31.6229 25.0263 31.3845 24.9274 31.1359 24.9274C30.8873 24.9274 30.6489 25.0263 30.473 25.202L26.398 29.2771L27.9266 23.7847C28.2982 22.4495 28.0305 21.0509 27.1921 19.9473C26.6786 19.2714 26.0007 18.773 25.2342 18.4875L26.4562 14.9969C26.7934 15.0265 27.1297 15.0416 27.4622 15.0416C30.1691 15.0416 32.8084 14.0875 34.8939 12.3552L35.1173 12.1697C36.2168 11.2562 36.4046 9.66864 35.5452 8.55572C35.1094 7.9913 34.4796 7.63732 33.7719 7.55914C33.0638 7.48087 32.372 7.6886 31.8242 8.14372L31.5704 8.35455C31.1965 8.66512 30.7876 8.93332 30.355 9.15146C28.9095 9.88059 27.1044 9.55587 25.905 8.3688C27.6497 7.82837 28.9207 6.19968 28.9207 4.27964C28.9208 1.91985 27.0008 0 24.6409 0C22.281 0 20.3611 1.91985 20.3611 4.27974C20.3611 5.21885 20.6659 6.08766 21.1806 6.79411C20.207 7.00372 19.3308 7.50571 18.6603 8.21544C18.6212 8.24975 18.5837 8.28687 18.5498 8.32868C16.8972 10.3586 14.6941 11.8146 12.1787 12.5391C11.4976 12.7354 10.9586 13.1877 10.6351 13.761L8.71374 11.8396C7.87305 10.999 6.50534 10.9991 5.66456 11.8396L3.1501 14.3542L0.635635 16.8687C0.228322 17.2759 0.00408936 17.8172 0.00408936 18.3933C0.00408936 18.9692 0.228416 19.5106 0.635541 19.9179L7.56361 26.846C7.97092 27.2532 8.51228 27.4774 9.08824 27.4774C9.66429 27.4774 10.2057 27.2531 10.6129 26.846L13.2164 24.2425L11.9819 27.4796C11.7974 27.9633 12.04 28.505 12.5237 28.6895C12.6337 28.7314 12.7466 28.7513 12.8576 28.7513C13.2352 28.7513 13.5912 28.5215 13.7338 28.1477L16.8083 20.0857H22.6776H23.6922C24.487 20.0857 25.2185 20.4487 25.6993 21.0816C26.1801 21.7144 26.3336 22.5165 26.1205 23.2821L23.9904 30.9358C23.8946 31.2802 23.5779 31.5208 23.2204 31.5208C22.8996 31.5208 22.7018 31.3451 22.6124 31.2404C22.5231 31.1357 22.3806 30.9126 22.4309 30.596L23.5644 23.4704C23.6075 23.1994 23.5297 22.9232 23.3516 22.7146C23.1735 22.5059 22.9129 22.3857 22.6386 22.3857H20.4161C20.0626 22.3857 19.7391 22.5845 19.5796 22.9C19.5248 23.0082 14.0858 33.7624 12.2529 37.3963C12.0695 37.7602 11.6706 37.9678 11.2616 37.9119L11.2171 37.9059C10.9381 37.8682 10.6956 37.7077 10.5518 37.4656C10.4079 37.2234 10.383 36.9337 10.4834 36.6706L11.0611 35.156C11.2455 34.6723 11.0029 34.1306 10.5192 33.9461C10.0356 33.7616 9.49387 34.0043 9.30929 34.4879L8.73164 36.0025C8.42614 36.8036 8.50207 37.6859 8.93994 38.423C9.37781 39.1601 10.1162 39.6489 10.9652 39.7638L11.0096 39.7698C11.1381 39.7873 11.2662 39.7956 11.3934 39.7956C12.4547 39.7956 13.4418 39.2026 13.927 38.2406C15.5279 35.0665 19.8819 26.4566 20.9926 24.2606H21.5403L20.5794 30.3014C20.4563 31.0755 20.6776 31.8614 21.1865 32.4575C21.5139 32.841 21.9378 33.1186 22.407 33.2683L11.9644 43.711C11.7886 43.8868 11.6898 44.1252 11.6898 44.3738C11.6898 44.6224 11.7886 44.8609 11.9644 45.0367L14.6532 47.7254C14.8363 47.9084 15.0762 48 15.316 48C15.5559 48 15.7958 47.9084 15.9789 47.7254L21.148 42.5564C21.514 42.1903 21.514 41.5967 21.148 41.2305C20.7818 40.8646 20.1884 40.8646 19.8222 41.2305L15.316 45.7368L13.953 44.3737L31.1361 27.1905L34.457 30.5114C34.6329 30.6872 34.8713 30.786 35.1199 30.786C35.3685 30.786 35.6069 30.6872 35.7827 30.5114L41.3982 24.8959C41.7643 24.5298 41.7643 23.9362 41.3982 23.57L40.8791 23.0509L45.8614 22.0482L44.8587 27.0306L44.0871 26.259C43.721 25.893 43.1276 25.893 42.7613 26.259L35.1198 33.9005L31.7989 30.5796C31.4327 30.2136 30.8393 30.2136 30.473 30.5796L25.1249 35.9277C24.7589 36.2938 24.7589 36.8873 25.1249 37.2535C25.4911 37.6195 26.0845 37.6195 26.4507 37.2535L31.1359 32.5683L34.4568 35.8893C34.823 36.2552 35.4164 36.2552 35.7826 35.8893L43.4242 28.2477L44.7698 29.5933C45.0141 29.8376 45.3732 29.9279 45.7037 29.8278C46.0345 29.7279 46.2835 29.4541 46.3517 29.1153L47.9776 21.0361C48.0395 20.7285 47.9433 20.4103 47.7215 20.1883ZM24.6409 1.87486C25.967 1.87486 27.0458 2.95374 27.0458 4.27974C27.0458 5.60582 25.9669 6.68471 24.6409 6.68471C23.3148 6.68471 22.236 5.60582 22.236 4.27974C22.236 2.95374 23.3148 1.87486 24.6409 1.87486ZM15.3649 18.4908L14.224 17.3499C14.7659 17.1731 15.298 16.9709 15.8191 16.7447L15.3649 18.4908ZM12.2012 15.239C12.0904 14.8545 12.3132 14.4516 12.6977 14.3408C14.2388 13.8968 15.6761 13.2114 16.9711 12.3162L16.4417 14.3514C15.3879 14.9337 14.2658 15.3994 13.0991 15.7355C13.0775 15.7417 13.0548 15.7471 13.0324 15.7514C12.8594 15.7843 12.6864 15.7499 12.5411 15.6671L12.2665 15.3925C12.2394 15.3446 12.2169 15.2936 12.2012 15.239ZM6.99018 13.1653C7.04502 13.1105 7.11711 13.0831 7.1891 13.0831C7.2611 13.0831 7.33319 13.1105 7.38793 13.1653L10.805 16.5825C10.9636 16.7989 11.1526 16.9876 11.3654 17.1429L14.3161 20.0935C14.4258 20.2031 14.4258 20.3816 14.3161 20.4912L12.4645 22.3428L10.4052 20.2835L10.7975 19.8913C11.1635 19.5252 11.1635 18.9317 10.7975 18.5655L8.6873 16.4553C8.32114 16.0894 7.72775 16.0894 7.3615 16.4553L6.96928 16.8476L5.13857 15.0169L6.99018 13.1653ZM8.27333 19.764C8.18362 19.8537 8.07891 19.8672 8.02445 19.8672C7.97008 19.8672 7.86537 19.8537 7.77565 19.7641V19.764L7.48889 19.4773C7.39928 19.3876 7.38578 19.2829 7.38578 19.2285C7.38578 19.1741 7.39928 19.0694 7.48899 18.9796L8.02445 18.4442L8.80879 19.2285L8.27333 19.764ZM9.28707 25.5203C9.21892 25.5883 9.14139 25.6026 9.08824 25.6026C9.03518 25.6026 8.95747 25.5883 8.88941 25.5202L1.96135 18.5921C1.8932 18.524 1.87895 18.4463 1.87895 18.3933C1.87895 18.3401 1.8932 18.2625 1.96135 18.1945L3.81286 16.3428L5.73122 18.2611C5.58732 18.559 5.51092 18.8879 5.51092 19.2285C5.51092 19.8234 5.74265 20.3826 6.16318 20.8031L6.44985 21.0897V21.0898C6.87038 21.5103 7.42965 21.7421 8.02445 21.7421C8.36511 21.7421 8.69396 21.6658 8.99187 21.5218L11.1388 23.6687L9.28707 25.5203ZM22.6775 18.2109H17.375L19.3008 10.8077C19.6452 9.48406 20.8409 8.55966 22.2086 8.55966C23.0535 8.55966 23.835 8.90032 24.4092 9.51893C26.1704 11.4167 28.9629 11.9539 31.1996 10.8255C31.7581 10.5438 32.286 10.1978 32.7686 9.79679L33.0224 9.58596C33.1754 9.45884 33.3684 9.40053 33.5662 9.42284C33.7635 9.44459 33.9394 9.54359 34.0614 9.70173C34.297 10.0067 34.2332 10.467 33.9193 10.7277L33.696 10.9132C31.9464 12.3666 29.7326 13.1669 27.4623 13.1669C26.9693 13.1669 26.4654 13.1275 25.9646 13.0496C25.5175 12.9794 25.0851 13.2393 24.9357 13.6661L23.3447 18.2109H22.6775Z" fill="black"/>
<path d="M23.1541 38.3223C22.9076 38.3223 22.6657 38.4225 22.4913 38.5969C22.317 38.7712 22.2167 39.0131 22.2167 39.2597C22.2167 39.5072 22.3169 39.7481 22.4913 39.9224C22.6657 40.0977 22.9076 40.1971 23.1541 40.1971C23.4006 40.1971 23.6425 40.0977 23.8168 39.9224C23.9911 39.7481 24.0915 39.5071 24.0915 39.2597C24.0915 39.0131 23.9912 38.7712 23.8168 38.5969C23.6425 38.4225 23.4006 38.3223 23.1541 38.3223Z" fill="black"/>
<path d="M11.5197 32.2606C11.7662 32.2606 12.0081 32.1603 12.1825 31.9858C12.3567 31.8116 12.4571 31.5697 12.4571 31.3232C12.4571 31.0766 12.3568 30.8348 12.1825 30.6604C12.0072 30.486 11.7662 30.3857 11.5197 30.3857C11.2732 30.3857 11.0313 30.486 10.856 30.6604C10.6817 30.8348 10.5823 31.0766 10.5823 31.3232C10.5823 31.5697 10.6817 31.8116 10.856 31.9858C11.0313 32.1602 11.2722 32.2606 11.5197 32.2606Z" fill="black"/>
</svg>
