<svg width="24" height="24" viewBox="0 0 24 24" fill="none" xmlns="http://www.w3.org/2000/svg">
<g clip-path="url(#clip0_53_200)">
<path fill-rule="evenodd" clip-rule="evenodd" d="M21 19.7938L14.9368 13.8557C15.8842 12.6959 16.5 11.2577 16.5 9.63402C16.5 5.96907 13.4684 3 9.77368 3C6.03158 3 3 5.96907 3 9.63402C3 13.299 6.03158 16.2216 9.77368 16.2216C11.1947 16.2216 12.4737 15.8041 13.5632 15.0619L19.6737 21L21 19.7938ZM4.51579 9.68041C4.51579 6.85052 6.83684 4.57732 9.72632 4.57732C12.6158 4.57732 14.9368 6.85052 14.9368 9.68041C14.9368 12.5103 12.6158 14.7835 9.72632 14.7835C6.88421 14.7835 4.51579 12.5103 4.51579 9.68041Z" fill="#D40511"/>
<mask id="mask0_53_200" style="mask-type:alpha" maskUnits="userSpaceOnUse" x="3" y="3" width="18" height="18">
<path fill-rule="evenodd" clip-rule="evenodd" d="M21 19.7938L14.9368 13.8557C15.8842 12.6959 16.5 11.2577 16.5 9.63402C16.5 5.96907 13.4684 3 9.77368 3C6.03158 3 3 5.96907 3 9.63402C3 13.299 6.03158 16.2216 9.77368 16.2216C11.1947 16.2216 12.4737 15.8041 13.5632 15.0619L19.6737 21L21 19.7938ZM4.51579 9.68041C4.51579 6.85052 6.83684 4.57732 9.72632 4.57732C12.6158 4.57732 14.9368 6.85052 14.9368 9.68041C14.9368 12.5103 12.6158 14.7835 9.72632 14.7835C6.88421 14.7835 4.51579 12.5103 4.51579 9.68041Z" fill="white"/>
</mask>
<g mask="url(#mask0_53_200)">
</g>
</g>
<defs>
<clipPath id="clip0_53_200">
<rect width="24" height="24" fill="white"/>
</clipPath>
</defs>
</svg>
