<svg width="30" height="30" viewBox="0 0 30 30" fill="none" xmlns="http://www.w3.org/2000/svg">
<circle cx="15" cy="15" r="15" fill="#D2D2D2"/>
<path d="M15 17.5C16.3807 17.5 17.5 16.3807 17.5 15C17.5 13.6193 16.3807 12.5 15 12.5C13.6193 12.5 12.5 13.6193 12.5 15C12.5 16.3807 13.6193 17.5 15 17.5Z" stroke="black" stroke-linecap="round" stroke-linejoin="round"/>
<path d="M20.6064 17.2726C20.5055 17.5011 20.4755 17.7545 20.52 18.0003C20.5646 18.246 20.6817 18.4728 20.8564 18.6514L20.9018 18.6968C21.0427 18.8375 21.1545 19.0046 21.2307 19.1886C21.307 19.3725 21.3462 19.5697 21.3462 19.7688C21.3462 19.9679 21.307 20.1651 21.2307 20.349C21.1545 20.5329 21.0427 20.7 20.9018 20.8407C20.7611 20.9816 20.594 21.0934 20.4101 21.1696C20.2261 21.2459 20.029 21.2851 19.8299 21.2851C19.6308 21.2851 19.4336 21.2459 19.2497 21.1696C19.0657 21.0934 18.8986 20.9816 18.7579 20.8407L18.7124 20.7953C18.5339 20.6206 18.3071 20.5035 18.0614 20.4589C17.8156 20.4144 17.5622 20.4444 17.3337 20.5453C17.1096 20.6413 16.9185 20.8008 16.7839 21.004C16.6493 21.2073 16.5771 21.4455 16.5761 21.6892V21.818C16.5761 22.2199 16.4165 22.6052 16.1323 22.8894C15.8482 23.1735 15.4628 23.3332 15.0609 23.3332C14.6591 23.3332 14.2737 23.1735 13.9896 22.8894C13.7054 22.6052 13.5458 22.2199 13.5458 21.818V21.7498C13.5399 21.4991 13.4587 21.2559 13.3128 21.0519C13.1669 20.8479 12.963 20.6925 12.7276 20.6059C12.4991 20.5051 12.2456 20.475 11.9999 20.5195C11.7541 20.5641 11.5274 20.6812 11.3488 20.8559L11.3034 20.9014C11.1626 21.0422 10.9955 21.154 10.8116 21.2302C10.6277 21.3065 10.4305 21.3457 10.2314 21.3457C10.0323 21.3457 9.83511 21.3065 9.65117 21.2302C9.46724 21.154 9.30013 21.0422 9.15942 20.9014C9.01854 20.7606 8.90679 20.5935 8.83054 20.4096C8.75429 20.2257 8.71504 20.0285 8.71504 19.8294C8.71504 19.6303 8.75429 19.4331 8.83054 19.2492C8.90679 19.0652 9.01854 18.8981 9.15942 18.7574L9.20487 18.712C9.37952 18.5334 9.49668 18.3066 9.54124 18.0609C9.5858 17.8151 9.55572 17.5617 9.45487 17.3332C9.35884 17.1091 9.19938 16.918 8.99613 16.7834C8.79288 16.6488 8.55471 16.5766 8.31093 16.5756H8.18214C7.7803 16.5756 7.39492 16.416 7.11077 16.1318C6.82662 15.8477 6.66699 15.4623 6.66699 15.0604C6.66699 14.6586 6.82662 14.2732 7.11077 13.9891C7.39492 13.7049 7.7803 13.5453 8.18214 13.5453H8.25033C8.50108 13.5394 8.74427 13.4583 8.94828 13.3123C9.15229 13.1664 9.30769 12.9625 9.39427 12.7271C9.49511 12.4986 9.52519 12.2451 9.48063 11.9994C9.43607 11.7536 9.31891 11.5269 9.14427 11.3483L9.09881 11.3029C8.95794 11.1622 8.84618 10.995 8.76993 10.8111C8.69368 10.6272 8.65444 10.43 8.65444 10.2309C8.65444 10.0318 8.69368 9.83462 8.76993 9.65069C8.84618 9.46675 8.95794 9.29965 9.09881 9.15893C9.23953 9.01805 9.40663 8.9063 9.59057 8.83005C9.7745 8.7538 9.97167 8.71455 10.1708 8.71455C10.3699 8.71455 10.5671 8.7538 10.751 8.83005C10.9349 8.9063 11.102 9.01805 11.2428 9.15893L11.2882 9.20438C11.4667 9.37903 11.6935 9.49619 11.9393 9.54075C12.185 9.58531 12.4385 9.55523 12.667 9.45438H12.7276C12.9517 9.35835 13.1428 9.19889 13.2774 8.99564C13.412 8.79239 13.4842 8.55422 13.4852 8.31044V8.18166C13.4852 7.77981 13.6448 7.39443 13.929 7.11028C14.2131 6.82614 14.5985 6.6665 15.0003 6.6665C15.4022 6.6665 15.7876 6.82614 16.0717 7.11028C16.3558 7.39443 16.5155 7.77981 16.5155 8.18166V8.24984C16.5164 8.49361 16.5887 8.73179 16.7233 8.93504C16.8579 9.13829 17.049 9.29774 17.2731 9.39378C17.5016 9.49462 17.755 9.5247 18.0008 9.48014C18.2465 9.43558 18.4733 9.31843 18.6518 9.14378L18.6973 9.09832C18.838 8.95745 19.0051 8.84569 19.1891 8.76944C19.373 8.69319 19.5702 8.65395 19.7693 8.65395C19.9684 8.65395 20.1655 8.69319 20.3495 8.76944C20.5334 8.84569 20.7005 8.95745 20.8412 9.09832C20.9821 9.23904 21.0939 9.40614 21.1701 9.59008C21.2464 9.77402 21.2856 9.97118 21.2856 10.1703C21.2856 10.3694 21.2464 10.5666 21.1701 10.7505C21.0939 10.9344 20.9821 11.1015 20.8412 11.2423L20.7958 11.2877C20.6211 11.4663 20.504 11.693 20.4594 11.9388C20.4149 12.1845 20.4449 12.438 20.5458 12.6665V12.7271C20.6418 12.9512 20.8013 13.1423 21.0045 13.2769C21.2078 13.4115 21.4459 13.4837 21.6897 13.4847H21.8185C22.2204 13.4847 22.6057 13.6443 22.8899 13.9285C23.174 14.2126 23.3337 14.598 23.3337 14.9998C23.3337 15.4017 23.174 15.7871 22.8899 16.0712C22.6057 16.3554 22.2204 16.515 21.8185 16.515H21.7503C21.5065 16.516 21.2684 16.5882 21.0651 16.7228C20.8619 16.8574 20.7024 17.0485 20.6064 17.2726V17.2726Z" stroke="black" stroke-linecap="round" stroke-linejoin="round"/>
</svg>
