<svg width="60" height="60" viewBox="0 0 60 60" fill="none" xmlns="http://www.w3.org/2000/svg">
<path d="M38.4375 9.375L30 14.0625L49.6875 25.3125L57.1875 20.625L38.4375 9.375Z" fill="#FFCC00"/>
<path d="M21.5625 9.375L2.8125 20.625L10.3125 25.3125L30 14.0625L21.5625 9.375Z" fill="#FFCC00"/>
<path d="M10.3125 25.3125L30 36.5625L49.6875 25.3125L30 14.0625L10.3125 25.3125Z" fill="white"/>
<path d="M10.3125 25.3125V45.9375L30 57.1875V36.5625L10.3125 25.3125Z" fill="#FFCC00"/>
<path d="M49.6875 25.3125V45.9375L30 57.1875V36.5625L49.6875 25.3125Z" fill="#FFCC00"/>
<path d="M37.5 41.25L57.1875 30L49.6875 25.3125L30 36.5625L37.5 41.25Z" fill="#FFCC00"/>
<path d="M2.8125 30L22.5 41.25L30 36.5625L10.3125 25.3125L2.8125 30Z" fill="#FFCC00"/>
<path d="M41.25 14.0625C41.25 20.2781 30 32.8125 30 32.8125C30 32.8125 18.75 20.2781 18.75 14.0625C18.75 11.0788 19.9353 8.21733 22.045 6.10755C24.1548 3.99776 27.0163 2.8125 30 2.8125C32.9837 2.8125 35.8452 3.99776 37.955 6.10755C40.0647 8.21733 41.25 11.0788 41.25 14.0625Z" fill="#FFCC00"/>
<path d="M30 16.875C32.0711 16.875 33.75 15.1961 33.75 13.125C33.75 11.0539 32.0711 9.375 30 9.375C27.9289 9.375 26.25 11.0539 26.25 13.125C26.25 15.1961 27.9289 16.875 30 16.875Z" fill="#D2D2D2"/>
<path d="M57.6843 29.2047L51.4565 25.3122L57.6843 21.4197C57.8193 21.3345 57.9302 21.2162 58.0066 21.076C58.083 20.9359 58.1224 20.7786 58.121 20.6189C58.1196 20.4593 58.0774 20.3027 57.9986 20.164C57.9197 20.0252 57.8067 19.9089 57.6703 19.826L41.5312 10.1369C40.7142 7.72805 39.1629 5.63568 37.0955 4.1538C35.0281 2.67192 32.5483 1.875 30.0046 1.875C27.461 1.875 24.9812 2.67192 22.9138 4.1538C20.8464 5.63568 19.2951 7.72805 18.4781 10.1369L2.32965 19.8213C2.19323 19.9042 2.08023 20.0205 2.00136 20.1593C1.92249 20.298 1.88035 20.4546 1.87894 20.6143C1.87753 20.7739 1.9169 20.9312 1.99331 21.0713C2.06972 21.2115 2.18065 21.3298 2.31558 21.415L8.5434 25.3122L2.31558 29.2047C2.17796 29.2904 2.0649 29.4102 1.98743 29.5526C1.90996 29.695 1.87072 29.855 1.87356 30.0171C1.87639 30.1791 1.92119 30.3377 2.0036 30.4773C2.086 30.6169 2.20318 30.7327 2.34371 30.8135L9.37496 34.8297V45.9372C9.37463 46.1021 9.4178 46.2642 9.5001 46.407C9.58239 46.5499 9.70092 46.6685 9.84371 46.751L29.5312 58.001C29.6728 58.0819 29.8331 58.1244 29.9962 58.1244C30.1593 58.1244 30.3196 58.0819 30.4612 58.001L50.1487 46.751C50.2929 46.6695 50.4129 46.5513 50.4966 46.4083C50.5802 46.2654 50.6245 46.1029 50.625 45.9372V34.8297L57.6562 30.8135C57.7969 30.733 57.9144 30.6175 57.9971 30.4781C58.0799 30.3387 58.1251 30.1802 58.1283 30.0181C58.1315 29.8561 58.0926 29.6959 58.0155 29.5534C57.9383 29.4108 57.8255 29.2907 57.6881 29.2047H57.6843ZM39.9065 20.8057L47.7975 25.3122L30 35.4822L12.2025 25.3122L20.0934 20.8057C22.7432 25.3072 25.8277 29.5383 29.3025 33.4385C29.3904 33.5364 29.4979 33.6147 29.6181 33.6683C29.7383 33.7219 29.8684 33.7496 30 33.7496C30.1315 33.7496 30.2617 33.7219 30.3818 33.6683C30.502 33.6147 30.6095 33.5364 30.6975 33.4385C34.1723 29.5383 37.2567 25.3072 39.9065 20.8057ZM55.3921 20.6416L49.6659 24.22L40.7596 19.1332C41.5844 17.5611 42.0708 15.8337 42.1875 14.0622C42.1853 13.5963 42.1565 13.1308 42.1012 12.6682L55.3921 20.6416ZM30 3.74973C32.734 3.75296 35.3552 4.84049 37.2884 6.77376C39.2217 8.70703 40.3092 11.3282 40.3125 14.0622C40.3125 18.5313 33.4209 27.4319 30 31.3919C26.579 27.4329 19.6875 18.5341 19.6875 14.0622C19.6907 11.3282 20.7782 8.70703 22.7115 6.77376C24.6448 4.84049 27.2659 3.75296 30 3.74973ZM17.8987 12.6682C17.8434 13.1308 17.8146 13.5963 17.8125 14.0622C17.9294 15.8338 18.4161 17.5612 19.2412 19.1332L10.335 24.22L4.60777 20.6416L17.8987 12.6682ZM10.334 26.4044L28.1737 36.5979L22.4784 40.1604L4.63871 29.9641L10.334 26.4044ZM11.25 35.9004L22.0312 42.0635C22.1783 42.1475 22.3454 42.1902 22.5147 42.1869C22.6841 42.1836 22.8494 42.1345 22.9931 42.0447L29.0625 38.2497V55.5719L11.25 45.3935V35.9004ZM48.75 45.3935L30.9375 55.5719V38.2497L37.0031 42.041C37.1468 42.1307 37.3121 42.1798 37.4814 42.1831C37.6508 42.1865 37.8179 42.1438 37.965 42.0597L48.75 35.9004V45.3935ZM37.5215 40.1575L31.8262 36.595L49.6659 26.4044L55.3612 29.9669L37.5215 40.1575Z" fill="black"/>
<path d="M36.1293 48.8549L33.2681 50.4899C33.1611 50.551 33.0673 50.6326 32.9919 50.73C32.9165 50.8274 32.861 50.9387 32.8287 51.0575C32.7963 51.1763 32.7876 51.3004 32.8032 51.4225C32.8187 51.5447 32.8582 51.6626 32.9193 51.7696C32.9804 51.8765 33.062 51.9703 33.1594 52.0457C33.2568 52.1211 33.3681 52.1766 33.4869 52.209C33.6058 52.2414 33.7298 52.25 33.852 52.2345C33.9742 52.2189 34.0921 52.1794 34.199 52.1183L37.0593 50.4833C37.1662 50.4222 37.2601 50.3407 37.3355 50.2434C37.4109 50.146 37.4664 50.0348 37.4989 49.916C37.5313 49.7972 37.54 49.6732 37.5245 49.5511C37.509 49.4289 37.4696 49.311 37.4085 49.2041C37.3475 49.0972 37.2659 49.0033 37.1686 48.9279C37.0713 48.8525 36.96 48.797 36.8412 48.7645C36.7225 48.7321 36.5984 48.7234 36.4763 48.7389C36.3541 48.7544 36.2362 48.7938 36.1293 48.8549Z" fill="black"/>
<path d="M39.3487 49.0308C39.5116 49.0311 39.6716 48.9884 39.8128 48.9071L40.8806 48.2968C40.9875 48.2357 41.0813 48.1542 41.1568 48.0569C41.2322 47.9595 41.2877 47.8483 41.3201 47.7295C41.3525 47.6107 41.3613 47.4867 41.3458 47.3645C41.3303 47.2424 41.2909 47.1245 41.2298 47.0176C41.1687 46.9106 41.0872 46.8168 40.9899 46.7414C40.8925 46.666 40.7813 46.6104 40.6625 46.578C40.5437 46.5456 40.4197 46.5369 40.2976 46.5524C40.1754 46.5679 40.0575 46.6073 39.9506 46.6683L38.8827 47.2796C38.7031 47.3824 38.5625 47.5417 38.4829 47.7327C38.4033 47.9238 38.3891 48.1358 38.4426 48.3358C38.4962 48.5357 38.6143 48.7123 38.7787 48.838C38.9431 48.9638 39.1445 49.0316 39.3515 49.0308H39.3487Z" fill="black"/>
<path d="M36.1293 45.1049L33.2681 46.7399C33.1611 46.801 33.0673 46.8826 32.9919 46.98C32.9165 47.0774 32.861 47.1887 32.8287 47.3075C32.7963 47.4263 32.7876 47.5504 32.8032 47.6725C32.8187 47.7947 32.8582 47.9126 32.9193 48.0196C32.9804 48.1265 33.062 48.2203 33.1594 48.2957C33.2568 48.3711 33.3681 48.4266 33.4869 48.459C33.6058 48.4914 33.7298 48.5 33.852 48.4845C33.9742 48.4689 34.0921 48.4294 34.199 48.3683L37.0593 46.7333C37.1662 46.6722 37.2601 46.5907 37.3355 46.4934C37.4109 46.396 37.4664 46.2848 37.4989 46.166C37.5313 46.0472 37.54 45.9232 37.5245 45.8011C37.509 45.6789 37.4696 45.561 37.4085 45.4541C37.3475 45.3472 37.2659 45.2533 37.1686 45.1779C37.0713 45.1025 36.96 45.047 36.8412 45.0145C36.7225 44.9821 36.5984 44.9734 36.4763 44.9889C36.3541 45.0044 36.2362 45.0438 36.1293 45.1049Z" fill="black"/>
<path d="M39.3487 45.2808C39.5116 45.2811 39.6716 45.2384 39.8128 45.1571L40.8806 44.5468C41.0965 44.4235 41.2546 44.2194 41.3201 43.9795C41.3856 43.7396 41.3531 43.4835 41.2298 43.2676C41.1065 43.0516 40.9024 42.8935 40.6625 42.828C40.4226 42.7625 40.1665 42.795 39.9506 42.9183L38.8827 43.5296C38.7031 43.6324 38.5625 43.7917 38.4829 43.9827C38.4033 44.1738 38.3891 44.3858 38.4426 44.5858C38.4962 44.7857 38.6143 44.9623 38.7787 45.088C38.9431 45.2138 39.1445 45.2816 39.3515 45.2808H39.3487Z" fill="black"/>
<path d="M30 17.8125C30.9271 17.8125 31.8334 17.5376 32.6042 17.0225C33.3751 16.5074 33.9759 15.7754 34.3307 14.9188C34.6855 14.0623 34.7783 13.1198 34.5974 12.2105C34.4166 11.3012 33.9701 10.466 33.3146 9.81044C32.659 9.15488 31.8238 8.70844 30.9145 8.52757C30.0052 8.3467 29.0627 8.43953 28.2062 8.79432C27.3496 9.1491 26.6176 9.74991 26.1025 10.5208C25.5874 11.2916 25.3125 12.1979 25.3125 13.125C25.314 14.3677 25.8083 15.5592 26.6871 16.4379C27.5658 17.3167 28.7573 17.811 30 17.8125ZM30 10.3125C30.5563 10.3125 31.1 10.4775 31.5625 10.7865C32.0251 11.0955 32.3855 11.5348 32.5984 12.0487C32.8113 12.5626 32.867 13.1281 32.7585 13.6737C32.6499 14.2193 32.3821 14.7204 31.9887 15.1137C31.5954 15.5071 31.0943 15.7749 30.5487 15.8835C30.0031 15.992 29.4376 15.9363 28.9237 15.7234C28.4098 15.5105 27.9705 15.1501 27.6615 14.6875C27.3525 14.225 27.1875 13.6813 27.1875 13.125C27.1875 12.3791 27.4838 11.6637 28.0113 11.1363C28.5387 10.6088 29.2541 10.3125 30 10.3125Z" fill="black"/>
</svg>
