<svg width="89" height="89" viewBox="0 0 89 89" fill="none" xmlns="http://www.w3.org/2000/svg">
<path d="M68.1406 20.3282L86.547 11.125L68.1406 1.92188V5.56253H41.7188V8.34378H70.9219V6.42194L80.3281 11.125L70.9219 15.8281V13.9063H30.5938V16.6875H68.1406V20.3282Z" fill="#D40511"/>
<path d="M36.1562 5.5625H38.9375V8.34375H36.1562V5.5625Z" fill="#D40511"/>
<path d="M30.5938 5.5625H33.375V8.34375H30.5938V5.5625Z" fill="#D40511"/>
<path d="M50.0626 68.6719L31.6562 77.875L50.0626 87.0782V83.4375H76.4844V80.6563H47.2813V82.5781L37.8751 77.875L47.2813 73.1719V75.0938H87.6094V72.3125H50.0626V68.6719Z" fill="#D40511"/>
<path d="M79.2656 80.6562H82.0469V83.4375H79.2656V80.6562Z" fill="#D40511"/>
<path d="M84.8281 80.6562H87.6094V83.4375H84.8281V80.6562Z" fill="#D40511"/>
<path d="M79.2656 55.625H82.0469V58.4062H79.2656V55.625Z" fill="#D40511"/>
<path d="M73.7031 55.625H76.4844V58.4062H73.7031V55.625Z" fill="#D40511"/>
<path d="M68.1406 55.625H70.9219V58.4062H68.1406V55.625Z" fill="#D40511"/>
<path d="M68.1406 50.0625H82.0469V52.8438H68.1406V50.0625Z" fill="#D40511"/>
<path d="M83.4375 27.8125H73.7031H59.7969H50.3142C45.0117 21.6214 37.3633 18.0781 29.2031 18.0781C13.8673 18.0781 1.39062 30.5548 1.39062 45.8906C1.39062 61.2264 13.8673 73.7031 29.2031 73.7031C37.3633 73.7031 45.0117 70.1598 50.3142 63.9688H83.4375C85.7376 63.9688 87.6094 62.097 87.6094 59.7969V31.9844C87.6094 29.6843 85.7376 27.8125 83.4375 27.8125ZM70.9219 30.5938V36.1562H62.5781V30.5938H70.9219ZM47.4398 28.7665C46.8557 29.2435 46.4052 29.8692 46.1465 30.5938H38.5704C37.6456 26.9044 36.3635 23.7129 34.7406 21.4754C39.5786 22.5685 43.991 25.0897 47.4398 28.7665ZM45.8906 58.4062H39.185C39.8581 54.8949 40.2377 51.0763 40.3128 47.2812H45.8906V58.4062ZM29.2031 70.9219C26.853 70.9219 24.3485 67.2548 22.7033 61.1875H35.7043C34.0578 67.2548 31.5533 70.9219 29.2031 70.9219ZM22.0386 58.4062C21.3795 55.1717 20.9651 51.4128 20.8858 47.2812H37.5218C37.4426 51.4128 37.0268 55.1717 36.369 58.4062H22.0386ZM4.2428 47.2812H18.0934C18.1685 51.0763 18.5482 54.8949 19.2212 58.4062H7.55944C5.63898 55.0993 4.4653 51.3182 4.2428 47.2812ZM29.2031 20.8594C31.5533 20.8594 34.0578 24.5265 35.7029 30.5938H22.702C24.3485 24.5265 26.853 20.8594 29.2031 20.8594ZM36.3676 33.375C37.0268 36.6096 37.4412 40.3685 37.5205 44.5H20.8858C20.9651 40.3685 21.3809 36.6096 22.0386 33.375H36.3676ZM18.0934 44.5H4.2428C4.46669 40.463 5.63898 36.6819 7.55944 33.375H19.2212C18.5482 36.8863 18.1685 40.705 18.0934 44.5ZM45.8906 44.5H40.3128C40.2377 40.705 39.8581 36.8863 39.185 33.375H45.8906V44.5ZM23.6462 21.5018C22.0331 23.738 20.7565 26.9183 19.8359 30.5938H9.434C12.9272 26.0895 17.9085 22.8104 23.6462 21.5018ZM9.434 61.1875H19.8359C20.7565 64.8629 22.0317 68.0433 23.6462 70.278C17.9085 68.9708 12.9272 65.6917 9.434 61.1875ZM34.7406 70.3058C36.3635 68.0683 37.6456 64.8768 38.5704 61.1875H46.1465C46.4052 61.912 46.8543 62.5378 47.4398 63.0148C43.991 66.6916 39.5786 69.2128 34.7406 70.3058ZM84.8281 59.7969C84.8281 60.5645 84.2037 61.1875 83.4375 61.1875H50.0625C49.2963 61.1875 48.6719 60.5645 48.6719 59.7969V31.9844C48.6719 31.2181 49.2963 30.5938 50.0625 30.5938H59.7969V38.9375H73.7031V30.5938H83.4375C84.2037 30.5938 84.8281 31.2181 84.8281 31.9844V59.7969Z" fill="#D40511"/>
<path d="M23.6406 50.0625H26.4219V52.8438H23.6406V50.0625Z" fill="#D40511"/>
<path d="M29.2031 50.0625H31.9844V52.8438H29.2031V50.0625Z" fill="#D40511"/>
<path d="M31.9844 38.9375H34.7656V41.7188H31.9844V38.9375Z" fill="#D40511"/>
<path d="M26.4219 38.9375H29.2031V41.7188H26.4219V38.9375Z" fill="#D40511"/>
</svg>
