<svg width="60" height="60" viewBox="0 0 60 60" fill="none" xmlns="http://www.w3.org/2000/svg">
<path d="M30.0501 57.9977C45.8115 57.9977 58.5886 45.2207 58.5886 29.4593C58.5886 13.698 45.8115 0.920898 30.0501 0.920898C14.2888 0.920898 1.51172 13.698 1.51172 29.4593C1.51172 45.2207 14.2888 57.9977 30.0501 57.9977Z" fill="#FFCC00"/>
<path d="M49.4883 8.57227C49.8649 10.7071 50.0561 12.872 50.059 15.0399C50.058 35.5565 33.4797 52.2169 12.9631 52.3191C25.6001 61.7387 43.4802 59.1302 52.8998 46.4942C61.5925 34.8315 60.1236 18.4965 49.4883 8.57227Z" fill="#FFCC00"/>
<path d="M14.5293 9.93311L12.5266 11.9357L21.9143 16.1295L24.7931 13.0623L14.5293 9.93311Z" fill="white"/>
<path d="M27.4215 15.4717L24.2924 18.4446L28.429 27.9575L30.5508 26.0809L27.4215 15.4717Z" fill="white"/>
<path d="M35.5576 28.9585V36.9692H39.563V48.9854H44.5698L48.5752 44.98V40.9746L52.5806 34.9665H48.5752L45.5712 28.9585H35.5576Z" fill="white"/>
<path d="M15.5308 33.9653V40.9748H20.5375V51.9896L24.5428 48.9855V45.9815L29.5496 41.9761V36.9694H23.5416L20.5375 33.9653H15.5308Z" fill="white"/>
<path d="M28.5481 3.9248L32.5535 2.92342V1.03703C31.7284 0.964963 30.8943 0.9209 30.0502 0.9209C26.5585 0.919845 23.0958 1.56063 19.8364 2.81233L25.5441 5.92756L28.5481 3.9248Z" fill="white"/>
<path d="M43.5683 15.9409H37.5603V22.9504H41.5657L43.5683 19.9463H49.5764L53.5818 26.9558H58.4723C57.9977 21.4825 55.946 16.2654 52.5643 11.9355H47.5736L43.5683 15.9409Z" fill="white"/>
<path d="M5.51729 24.9532L8.52131 21.9492L5.51729 16.9424H4.39978C2.57128 20.6884 1.58994 24.791 1.5249 28.9586H5.51729V24.9532Z" fill="white"/>
<path d="M27.4257 10.0545L18.5347 18.9455L14.5293 17.9441L12.5266 19.9467L17.5334 22.9508L20.5374 27.9575L22.54 25.9549L21.5387 21.9495L30.5749 13.0305C31.8456 11.6847 32.5535 9.90331 32.5535 8.05184V7.93066C30.6299 7.93055 28.7854 8.69462 27.4257 10.0545Z" fill="white"/>
<path d="M18.5236 55.5653C11.8888 58.4982 6.70772 58.7756 4.22238 56.2882C1.73704 53.8009 2.09951 48.7582 4.71305 42.5869C7.50578 36.4096 11.2068 30.6848 15.6948 25.604L14.1738 24.3022C9.96311 29.0877 6.40139 34.4078 3.5796 40.1236C-0.0792698 47.891 -0.544978 54.3528 2.80651 57.7042C4.52485 59.2933 6.8139 60.1165 9.151 59.9853C12.2692 59.9853 16.0954 58.9509 20.4522 56.8892C20.4993 56.8652 20.7366 56.744 21.0921 56.5547C20.216 56.2652 19.3598 55.9357 18.5236 55.5653Z" fill="#EEBD00"/>
<path d="M3.75887 37.6704C2.98577 35.1721 2.57233 32.5755 2.53225 29.9601H5.51728C6.07007 29.9601 6.51866 29.5115 6.51866 28.9587V25.3678L9.22936 22.6571C9.55479 22.3317 9.61585 21.827 9.3796 21.4334L6.37558 16.4267C6.2844 16.2764 6.15526 16.1523 6.00104 16.0671C9.02709 10.6558 13.7816 6.41511 19.5023 4.02493L25.0967 6.82867C25.4182 6.98887 25.7996 6.96484 26.0981 6.76562L28.9578 4.8633L32.7949 3.90399C33.2445 3.79289 33.5589 3.3873 33.5548 2.92371V2.15272C40.0376 2.98488 46.0116 6.098 50.4065 10.9345H47.5737C47.3084 10.9345 47.053 11.0396 46.8657 11.2279L43.1538 14.9399H37.5602C37.0075 14.9399 36.5589 15.3885 36.5589 15.9413V22.9507C36.5589 23.5035 37.0075 23.9521 37.5602 23.9521H41.5656C41.9001 23.9521 42.2125 23.7848 42.3987 23.5065L44.1041 20.948H48.9957L52.7126 27.4568C52.8919 27.7673 53.2234 27.9585 53.5818 27.9575H57.5452C57.5712 28.4581 57.5872 28.9588 57.5872 29.4595C57.5912 44.6679 45.2656 56.9995 30.0572 57.0035C20.7176 57.0066 12.014 52.2752 6.93715 44.4356L5.25783 45.5261C8.2138 50.0882 12.3724 53.7451 17.274 56.0953C11.2429 58.5216 6.55956 58.6168 4.2275 56.2886C-0.318604 51.7414 4.61305 38.5507 15.6999 25.6043L14.1789 24.3026C2.01252 38.5015 -2.66074 52.237 2.80659 57.7043C4.52587 59.2945 6.81703 60.1176 9.15518 59.9863C12.8691 59.8011 16.5041 58.8418 19.8265 57.1716C35.112 62.7881 52.0569 54.9496 57.6734 39.664C63.2899 24.3785 55.4514 7.43372 40.1658 1.81721C24.8803 -3.7993 7.93548 4.03923 2.31897 19.3247C0.0799546 25.4159 -0.0852816 32.0758 1.84634 38.2713L3.75887 37.6704ZM54.1626 25.9546L50.4456 19.4458C50.2663 19.1354 49.9349 18.9441 49.5764 18.9452H43.5684C43.2339 18.9452 42.9215 19.1124 42.7353 19.3907L41.03 21.9492H38.5616V16.9424H43.5684C43.8337 16.9424 44.0891 16.8373 44.2763 16.649L47.9883 12.937H52.0648C54.9307 16.7421 56.7541 21.2292 57.357 25.9545L54.1626 25.9546ZM31.5522 1.9644V2.14159L28.3048 2.95371C28.1937 2.98171 28.0875 3.02777 27.9924 3.09187L25.472 4.77212L22.1145 3.09281C24.688 2.31573 27.3615 1.92127 30.0502 1.92221C30.5509 1.92233 31.0516 1.93838 31.5522 1.9644ZM7.26059 21.794L4.80935 24.2453C4.62114 24.4335 4.51591 24.6879 4.51591 24.9532V27.9572H2.55522C2.74049 24.5256 3.5716 21.1591 5.00447 18.0349L7.26059 21.794Z" fill="black"/>
<path d="M33.5549 8.05178V7.93061C33.5549 7.37783 33.1063 6.92923 32.5535 6.92923C30.3636 6.92325 28.2617 7.79338 26.7176 9.34648L24.2574 11.8058L14.8166 8.97406C14.4641 8.86894 14.0816 8.96504 13.8213 9.22543L11.8187 11.2281C11.4272 11.6185 11.4272 12.2524 11.8176 12.6439C11.9047 12.731 12.0069 12.8012 12.119 12.8513L19.7994 16.2638L18.2262 17.8369L14.7716 16.9728C14.4301 16.8877 14.0687 16.9878 13.8204 17.2361L11.8178 19.2387C11.4273 19.6303 11.4273 20.2642 11.8178 20.6546C11.8759 20.7127 11.9399 20.7628 12.0101 20.8049L16.8025 23.6807L19.6783 28.4731C19.8365 28.7375 20.1079 28.9137 20.4143 28.9517C20.7197 28.9878 21.0261 28.8826 21.2444 28.6653L23.2471 26.6627C23.4954 26.4143 23.5956 26.0528 23.5104 25.7114L22.6472 22.2608L24.2142 20.7147L27.5086 28.358C27.7279 28.8657 28.3168 29.1001 28.8244 28.8807C28.9216 28.8386 29.0117 28.7816 29.0917 28.7115L31.2146 26.8349C31.507 26.5776 31.6242 26.174 31.515 25.8005L28.6952 16.2917L31.2987 13.7182C32.7487 12.1884 33.5569 10.1607 33.5549 8.05178ZM14.2659 11.6136L14.8147 11.0639L22.6493 13.415L21.3176 14.7468L14.2659 11.6136ZM29.4093 25.7547L28.8005 26.2925L25.7444 19.2049L27.0782 17.8881L29.4093 25.7547ZM20.8378 21.2366C20.5855 21.486 20.4843 21.8494 20.5705 22.1928L21.4346 25.6475L20.7397 26.3424L18.3945 22.4372C18.3104 22.297 18.1922 22.1788 18.0521 22.0948L14.1469 19.7496L14.8418 19.0546L18.2964 19.9188C18.6379 20.0039 18.9993 19.9038 19.2476 19.6555L28.1387 10.7645C29.0459 9.85227 30.2144 9.24547 31.4822 9.02609C31.2929 10.2608 30.7342 11.4092 29.88 12.3196L20.8378 21.2366Z" fill="black"/>
<path d="M39.5629 49.9872H44.5697C44.835 49.9872 45.0904 49.882 45.2777 49.6937L49.2831 45.6883C49.4713 45.501 49.5765 45.2457 49.5765 44.9804V41.2753L53.4136 35.5196C53.719 35.058 53.5929 34.4371 53.1312 34.1317C52.9679 34.0236 52.7767 33.9656 52.5804 33.9656H49.1939L46.4722 28.5113C46.3019 28.1698 45.9524 27.9555 45.571 27.9575H35.5575C35.0047 27.9575 34.5562 28.4061 34.5562 28.9589V36.9697C34.5562 37.5225 35.0047 37.9711 35.5575 37.9711H38.5616V48.9859C38.5617 49.5386 39.0092 49.9872 39.5629 49.9872ZM36.5589 35.9683V29.9603H44.9522L47.6789 35.4146C47.8481 35.7541 48.1955 35.9683 48.5751 35.9683H50.709L47.742 40.4193C47.6329 40.5845 47.5737 40.7778 47.5737 40.975V44.5658L44.1551 47.9844H40.5643V36.9696C40.5643 36.4168 40.1157 35.9682 39.5629 35.9682H36.5589V35.9683Z" fill="black"/>
<path d="M20.0898 52.8908C20.4302 53.0589 20.8358 53.0199 21.1382 52.7907L25.1436 49.7867C25.3959 49.5974 25.5441 49.3011 25.5441 48.9856V46.4622L30.1753 42.7572C30.4126 42.5669 30.5508 42.2796 30.5508 41.9762V36.9694C30.5508 36.4166 30.1022 35.968 29.5494 35.968H23.9558L21.2451 33.2573C21.0579 33.0691 20.8025 32.9639 20.5372 32.9639H15.5304C14.9777 32.9639 14.5291 33.4125 14.5291 33.9652V40.9747C14.5291 41.5274 14.9777 41.976 15.5304 41.976H19.5358V51.9895C19.5341 52.3711 19.7483 52.7205 20.0898 52.8908ZM16.532 39.9734V34.9666H20.1228L22.8335 37.6773C23.0208 37.8655 23.2761 37.9708 23.5415 37.9708H28.5482V41.4955L23.9171 45.2005C23.6797 45.3907 23.5416 45.6782 23.5416 45.9816V48.4849L21.5389 49.987V40.9748C21.5389 40.422 21.0903 39.9734 20.5376 39.9734H16.532Z" fill="black"/>
</svg>
