<svg width="48" height="48" viewBox="0 0 48 48" fill="none" xmlns="http://www.w3.org/2000/svg">
<g clip-path="url(#clip0_177_802)">
<path fill-rule="evenodd" clip-rule="evenodd" d="M22.3265 41.4075C23.7396 34.3447 16.9694 30.9635 15.0367 27.9897C14.5816 27.2895 11.9033 22.9782 11.4481 22.2779C10.9732 21.5473 9.99186 21.3379 9.26737 21.813C9.06544 21.9455 8.92266 22.1091 8.82685 22.2945L5.2127 14.5572C4.07357 12.2255 1.37823 13.5216 2.08621 15.5824C2.58542 16.9891 4.46065 23.6112 5.9234 28.0342C6.97562 31.2156 7.4438 32.0588 9.60768 34.5724L12.8971 38.3935L12.7468 41.4076H22.3265V41.4075Z" fill="#FFCC00"/>
<path fill-rule="evenodd" clip-rule="evenodd" d="M32.9635 27.9898C31.0308 30.9636 24.2607 34.3447 25.6737 41.4076H35.2534L35.1031 38.3935L38.3925 34.5724C40.5563 32.0588 41.0246 31.2156 42.0768 28.0342C43.5396 23.6112 45.4148 16.9891 45.9141 15.5824C46.6221 13.5216 43.9267 12.2255 42.7876 14.5572L39.1735 22.2945C39.0777 22.1091 38.935 21.9454 38.733 21.813C38.0085 21.3379 37.0272 21.5473 36.5522 22.2779C36.0968 22.9783 33.4186 27.2896 32.9635 27.9898Z" fill="#FFCC00"/>
<path fill-rule="evenodd" clip-rule="evenodd" d="M35.2534 41.4072H25.6736H24.0001V47.0624H37.1227V41.4072H35.2534Z" fill="#FFCC00"/>
<path fill-rule="evenodd" clip-rule="evenodd" d="M24.0002 47.0624V41.4072H22.3266H12.7469H10.8776V47.0624H24.0002Z" fill="#FFCC00"/>
<path fill-rule="evenodd" clip-rule="evenodd" d="M23.947 19.2628L28.7242 21.5387C29.0439 21.6913 29.4117 21.7524 29.7888 21.7002C30.8147 21.5583 31.5313 20.6115 31.3895 19.5856L30.6715 14.4471L34.2344 10.689C34.5228 10.4198 34.7292 10.0582 34.8023 9.63964C34.9807 8.61779 34.297 7.64479 33.2751 7.46638L28.1684 6.56172L25.6426 1.91549C25.4734 1.60472 25.2148 1.3381 24.8793 1.15914C23.9669 0.672495 22.8328 1.01767 22.3462 1.93003L19.9079 6.50707L14.7639 7.46301C14.3931 7.5187 14.0355 7.68594 13.7448 7.96559C12.9987 8.68323 12.9757 9.86998 13.6934 10.616L17.2953 14.3518L16.6246 19.4648C16.5439 19.8567 16.587 20.2773 16.7757 20.6647C17.2298 21.5973 18.3541 21.9852 19.2867 21.5312L23.947 19.2628Z" fill="#FFCC00"/>
<path d="M45.4211 12.5645C44.3383 12.1161 42.7886 12.4194 41.945 14.146C41.9427 14.1509 41.9403 14.1557 41.938 14.1607L38.8323 20.8095C38.3711 20.6179 37.862 20.5696 37.3609 20.675C36.6999 20.8138 36.1334 21.2018 35.766 21.7672C35.5337 22.1244 34.7702 23.3458 33.9616 24.6388C33.194 25.8666 32.4003 27.136 32.1774 27.479C31.7188 28.1846 30.869 28.996 29.9692 29.8548C27.4739 32.2368 24.112 35.4466 24.5887 40.4703H23.4111C23.6298 38.1737 23.0686 36.0382 21.705 33.967C21.4202 33.5346 20.8389 33.4149 20.4064 33.6995C19.9741 33.9842 19.8542 34.5655 20.1389 34.9981C21.3067 36.772 21.7515 38.5244 21.5246 40.4703H13.7319L13.8331 38.4404C13.8451 38.2001 13.7643 37.9644 13.6074 37.7821L10.318 33.9609C8.25338 31.5627 7.82757 30.8068 6.81323 27.7402C5.98093 25.2236 5.01655 21.9985 4.24163 19.4071C3.65637 17.4496 3.19363 15.9023 2.97126 15.2744C2.78555 14.7292 3.02995 14.407 3.29628 14.2967C3.6769 14.1386 4.08686 14.3937 4.36679 14.9622L7.81257 22.339C7.68705 22.8281 7.68714 23.4549 7.91007 24.257C8.55309 26.5703 9.40207 28.9089 10.2392 30.673C10.461 31.1408 11.0201 31.34 11.488 31.118C11.9557 30.8961 12.1551 30.337 11.9331 29.8692C11.1401 28.1979 10.3321 25.9691 9.71649 23.7548C9.54259 23.1289 9.56425 22.7394 9.78118 22.5972C9.92011 22.5061 10.0878 22.4752 10.2536 22.5099C10.423 22.5456 10.5679 22.6447 10.6618 22.7891C11.1301 23.5097 11.5862 24.2705 12.0693 25.0761C12.8355 26.3541 13.6278 27.6757 14.472 28.8199C14.7794 29.2364 15.3663 29.3251 15.783 29.0176C16.1996 28.7102 16.2882 28.1233 15.9807 27.7066C15.1897 26.6347 14.4208 25.3523 13.6773 24.112C13.207 23.3275 12.7207 22.5163 12.2339 21.7674C11.8664 21.2019 11.3 20.8139 10.639 20.6751C10.1376 20.5697 9.62865 20.618 9.16751 20.8096L6.06184 14.1608C6.05959 14.1558 6.05715 14.151 6.05481 14.1461C5.21136 12.4197 3.66171 12.1161 2.57883 12.5646C1.48217 13.0187 0.656163 14.3059 1.19952 15.8872C1.20055 15.8902 1.20149 15.8931 1.20262 15.8962C1.40839 16.4762 1.88894 18.0834 2.44543 19.9443C3.22382 22.5473 4.19251 25.7868 5.03324 28.3289C6.12624 31.6337 6.66792 32.5947 8.89705 35.1842L11.942 38.7212L11.8548 40.4703H10.8774C10.3597 40.4703 9.93989 40.8901 9.93989 41.4078V47.0628C9.93989 47.5805 10.3597 48.0003 10.8774 48.0003H37.1226C37.6403 48.0003 38.0601 47.5805 38.0601 47.0628V41.4078C38.0601 40.8901 37.6403 40.4703 37.1226 40.4703H36.1452L36.058 38.7212L39.1029 35.1842C41.332 32.5947 41.8737 31.6337 42.9666 28.3289C43.8076 25.7863 44.7764 22.5463 45.5548 19.943C46.1111 18.0827 46.5916 16.4761 46.7972 15.8962C46.7984 15.8932 46.7993 15.8903 46.8003 15.8873C47.3437 14.306 46.5178 13.0188 45.4211 12.5645ZM11.8148 42.3453H23.0625V46.1254H11.8148V42.3453ZM36.1851 46.1254H24.9374V42.3453H36.1851V46.1254ZM45.0284 15.2744C44.8061 15.9022 44.3436 17.449 43.7584 19.4059C42.9834 21.9976 42.0189 25.2233 41.1864 27.7401C40.1723 30.8068 39.7465 31.5626 37.6818 33.9608L34.3924 37.782C34.2354 37.9643 34.1546 38.2 34.1666 38.4403L34.2679 40.4702H26.4736C25.9867 36.2484 28.7829 33.5791 31.2637 31.2108C32.2448 30.2743 33.1716 29.3896 33.7494 28.5007C33.9813 28.1438 34.7438 26.9241 35.5514 25.6328C36.3199 24.4035 37.1148 23.1323 37.338 22.7888C37.4319 22.6445 37.5768 22.5454 37.7462 22.5097C37.9118 22.475 38.0797 22.5058 38.2187 22.597C38.4355 22.7392 38.4573 23.1287 38.2832 23.7546C37.6678 25.9688 36.8598 28.1975 36.0667 29.869C35.8447 30.3368 36.044 30.8959 36.5117 31.1178C36.9797 31.34 37.5387 31.1406 37.7605 30.6728C38.5978 28.9085 39.4466 26.5699 40.0896 24.2568C40.3126 23.4546 40.3128 22.8279 40.1873 22.3388L43.6329 14.9621C43.9127 14.3937 44.3224 14.1388 44.7035 14.2965C44.9698 14.407 45.2142 14.7292 45.0284 15.2744Z" fill="black"/>
<path d="M16.3067 14.6777L15.6988 19.3125C15.583 19.9142 15.6635 20.523 15.9325 21.0753C16.4196 22.0755 17.4244 22.6582 18.4686 22.6581C18.8816 22.6581 19.3011 22.5668 19.6968 22.3743L23.9512 20.3033L28.3203 22.3847C28.8142 22.6205 29.3665 22.7053 29.9171 22.6288C30.6613 22.5258 31.321 22.1392 31.7745 21.5402C32.2279 20.9411 32.421 20.2014 32.3178 19.4559L31.6623 14.7645L34.8968 11.3527C35.3349 10.9349 35.6213 10.3989 35.7258 9.80092C35.855 9.06003 35.6882 8.31305 35.2557 7.69769C34.8232 7.08234 34.177 6.67219 33.4384 6.54329L28.7762 5.71737L26.4661 1.46779C26.466 1.4677 26.4659 1.46751 26.4658 1.46732C26.2027 0.983959 25.8065 0.591344 25.3201 0.332038C24.658 -0.0212029 23.8978 -0.0955448 23.1799 0.123168C22.4619 0.341694 21.8719 0.826744 21.5185 1.48926L19.2925 5.66778L14.6068 6.5386C14.0352 6.62822 13.5125 6.88781 13.0946 7.28999C12.5533 7.81066 12.2471 8.51095 12.2326 9.26197C12.2181 10.013 12.4967 10.7247 13.0182 11.2669L16.3067 14.6777ZM14.3945 8.64126C14.5352 8.50589 14.7111 8.41899 14.9031 8.39011C14.9137 8.38852 14.9244 8.38674 14.935 8.38477L20.079 7.42883C20.3595 7.37661 20.6009 7.19971 20.7351 6.9479L23.1731 2.37133C23.2907 2.15093 23.487 1.98968 23.7259 1.91694C23.8158 1.88947 23.9077 1.87587 23.9992 1.87587C24.1505 1.87587 24.3005 1.913 24.438 1.9864C24.5999 2.07274 24.7316 2.20315 24.8189 2.36336L27.3446 7.00959C27.4809 7.26017 27.7239 7.4352 28.0048 7.48489L33.1138 8.38993C33.3613 8.43305 33.5772 8.57011 33.7216 8.7757C33.8661 8.98129 33.9219 9.23084 33.8787 9.47843C33.8432 9.68168 33.745 9.86317 33.5947 10.0036C33.5808 10.0166 33.5671 10.03 33.554 10.044L29.991 13.8021C29.7947 14.0091 29.7034 14.2942 29.7429 14.5768L30.4608 19.7141C30.5317 20.2264 30.1726 20.7008 29.6606 20.7715C29.4742 20.7974 29.2901 20.77 29.1273 20.6922L24.35 18.4164C24.0925 18.2938 23.793 18.2949 23.5365 18.4199L18.876 20.6884C18.4097 20.9156 17.8455 20.7207 17.6182 20.2542C17.5265 20.0661 17.5004 19.8585 17.5425 19.6541C17.5472 19.6319 17.5509 19.6094 17.5538 19.5869L18.2244 14.4739C18.2615 14.1909 18.1678 13.9066 17.9698 13.7012L14.3686 9.96629C14.1951 9.78592 14.1022 9.54874 14.1071 9.29844C14.112 9.04822 14.214 8.81489 14.3945 8.64126Z" fill="black"/>
<path d="M22.9607 14.8337C22.443 14.8337 22.0232 15.2535 22.0232 15.7712C22.0232 16.2889 22.443 16.7087 22.9607 16.7087H25.0394C25.557 16.7087 25.9768 16.2889 25.9768 15.7712C25.9768 15.2535 25.557 14.8337 25.0394 14.8337H24.9375V8.27148C24.9375 7.93662 24.7588 7.62706 24.4687 7.45963C24.1787 7.2921 23.8213 7.2921 23.5313 7.45963L22.492 8.05961C22.0436 8.31855 21.8899 8.89181 22.1489 9.34021C22.3405 9.67207 22.7044 9.8426 23.0625 9.8036V14.8336H22.9607V14.8337Z" fill="black"/>
<path d="M18.1673 30.3496C17.6496 30.3496 17.2302 30.7694 17.2302 31.2871C17.2302 31.8048 17.6502 32.2246 18.1679 32.2246C18.6857 32.2246 19.1054 31.8048 19.1054 31.2871C19.1054 30.7694 18.6856 30.3496 18.1679 30.3496H18.1673Z" fill="black"/>
</g>
<defs>
<clipPath id="clip0_177_802">
<rect width="48" height="48" fill="white"/>
</clipPath>
</defs>
</svg>
